<mxfile host="65bd71144e">
    <diagram id="mSap_vToOVLqsBb1qRcR" name="Page-1">
        <mxGraphModel dx="697" dy="462" grid="0" gridSize="10" guides="1" tooltips="1" connect="1" arrows="1" fold="1" page="0" pageScale="1" pageWidth="850" pageHeight="1100" background="#ffffff" math="0" shadow="0">
            <root>
                <mxCell id="0"/>
                <mxCell id="1" parent="0"/>
                <mxCell id="18" value="" style="html=1;dashed=1;whitespace=wrap;rounded=1;fontSize=16;fillColor=none;strokeColor=#0092e6;arcSize=9;" vertex="1" parent="1">
                    <mxGeometry x="195" y="247" width="531" height="292" as="geometry"/>
                </mxCell>
                <mxCell id="4" value="" style="edgeStyle=entityRelationEdgeStyle;rounded=1;html=1;entryX=0;entryY=0.5;entryDx=0;entryDy=0;exitX=1;exitY=0.25;exitDx=0;exitDy=0;fillColor=#0050ef;strokeColor=#418bcb;" parent="1" source="2" target="10" edge="1">
                    <mxGeometry relative="1" as="geometry"/>
                </mxCell>
                <mxCell id="12" style="edgeStyle=entityRelationEdgeStyle;html=1;exitX=1;exitY=0.75;exitDx=0;exitDy=0;entryX=0;entryY=0.5;entryDx=0;entryDy=0;fillColor=#0050ef;strokeColor=#418bcb;" edge="1" parent="1" source="2" target="11">
                    <mxGeometry relative="1" as="geometry"/>
                </mxCell>
                <mxCell id="2" value="Large &lt;br style=&quot;font-size: 16px;&quot;&gt;data" style="rounded=1;whiteSpace=wrap;html=1;fontSize=16;fillColor=none;strokeColor=#333333;fontColor=#333333;" parent="1" vertex="1">
                    <mxGeometry x="227" y="358" width="91" height="54" as="geometry"/>
                </mxCell>
                <mxCell id="15" style="edgeStyle=entityRelationEdgeStyle;rounded=1;html=1;exitX=1;exitY=0.5;exitDx=0;exitDy=0;entryX=0;entryY=0.25;entryDx=0;entryDy=0;fontSize=16;fillColor=#0050ef;strokeColor=#418bcb;" edge="1" parent="1" source="10" target="14">
                    <mxGeometry relative="1" as="geometry"/>
                </mxCell>
                <mxCell id="10" value="" style="shape=image;verticalLabelPosition=bottom;labelBackgroundColor=default;verticalAlign=top;aspect=fixed;imageAspect=0;image=data:image/png,iVBORw0KGgoAAAANSUhEUgAAAcMAAAIICAYAAAASQYU0AAAAAXNSR0IArs4c6QAAIABJREFUeF7snQfUFMXy9uteFXPOigoCggEUFcWACVAwISiKYs5ZFBUTYlYUFRQVA6gkc85Zr1mvOQeCijlgvKYbvv31f9pvXTf0zPTs9u5Wn8MB3ne3p7u6p5+uqqeq/ibaVAIqgVpJYFYRmV1E+PvfIvKLiPynVoPR56oEmlkCf2vmyevcVQI1kgDgt7CIrC8iA0VkGRGZIiLjReQZEZkpIv+r0dj0sSqBppSAgmFTLrtOukYS4H2bX0TWEJEBIrKdiCyQNxZA8GoRuVlEXhaRH2o0Tn2sSqDpJKBg2HRLrhOugQR4z+bKgVwnEdk80gZblxgHGuG0nLY4VkTuE5FXReT3GoxZH6kSaCoJKBg21XLrZGsgAUyi7URky5y2t42IdBGR2RzG8WtkMr1BRO6PzKj/dfiefkQloBJIIAEFwwRC06+oBBwk8HcRWTQHaL1EZNscoK0rIguJSJx3Di3xKxF5SkSujTTFb9Wf6CB9/YhKIKYE4ryYMbvWj6sEmlYCc+SAax0R2VtEuonIkhFjNKlAYJrOEJHHReSynKn1ORH5LWln+j2VgErgrxJQMNRdoRLwIwHeJf4sJSKH53x9/SIQJHTCV8N0+omI3Cgiw0XkG9USfYlW+2l2CSgYNvsO0PmnlYB9h+aOGKJDIxB08QsmfTaEGkDxZBGZHGmJGoqRVJr6PZVATP+FCkwloBL4swTwC8ISXSvH+DxeRDZIaQ6NK1/Mp4/lAvUBYEIx0ByVZBNXivp5lYCCoe4BlUAiCaANzpMjtXTIsTx3iTRCyDK1apBsJkZB+++KyL/UfFqrpdDn1qsE1Exaryun466VBPABthWR3hEQrlRlbbDUvNESXxeRcVEoxlSNT6zVFtHn1qMEFAzrcdV0zLWQACbRliLSI8ocs2FkIk01lllmmUVmnXVW+f333+W///Vi4UQrfCgi2RC0/3mqAeqXVQJNIgEFwyZZaJ1mYgnwjiyY881tHAXNbxbFDybukC/+7W9/k6WXXlr69Okjyy67rHz44Ydy6623yieffCL/+58XLswXInJ7LvXbHRE4quk01YrplxtdAgqGjb7COr+kEuDdaBGRY8gj2lNE2ogIGmKqhibYv39/2WGHHWT99deXhRdeWL7++mt58sknZfLkyXLTTTfJv/+N1TN1Q9XEh3iPiFwvIs9rVYzUMtUOGlQCCoYNurA6rVQSmCWXMJvcoVSU6BMRZeZM1WP05Q4dOsg555wjnTp1kmWWWcZoiLahEaIhvv7663LkkUfK22+/7eOR9IFW+GZkOr0mCuD3YpP1NUDtRyVQawkoGNZ6BfT5IUmA92HeKI/ogSLSMWKNptYG55prLjn33HNl0003lVatWsnf/166S3yH06dPlwceeEAOO+ww+fVXIiZSN8Dv+yjx90gRuVdEfk7dq3agEmgQCSgYNshC6jRSS4B3YbVcnN6JuVygm+YyvKAJpn4/IMjsvPPOcvzxx0vr1q0NWca1YSqdNm2anHHGGTJhwgT5z3+81P0FFNEUAcNjowTgXpyUrvPSz6kEQpRA6pc9xEnpmFQCMSRAppglchld9s0V1T0s0gxjfP2vH8X02aJFC+nYsaOcfPLJ0rt37z+ZQ+N2jvn03nvvlWHDhskrr7wiv/3mLS3pd7nk4RdEf0gA7sVRGXd++nmVQAgSUDAMYRV0DLWQAOQYQBBizBE5ggnxgqkbmiB+we22206GDBkic87pxdVoxvXzzz/L8OHDDcHmrbfe8qUpohXiTzwjymZDKIaCYuqdoB3UmwQUDOttxXS8aSUAOWaxnJmwaxQ0DxiSTSZVQxts3769IcacffbZstxyy6Xqr9yXP/roIxk8eLC89tpr8s477/gKxfgxKhF1VVQVg6w2SrLJbBW149AkoGAY2oroeLKSAHt9vqi4LkV2Kba7jI9QiSWXXFI22mgj2XPPPaVHD2Lyq9Mg2Fx55ZXy6KOPyqeffurjoYDfhznf6a1RjCKhGD9pajcfotU+QpeAgmHoK6Tj8yEBtEGYoZRV2iIXYrBKFEOYqm8YooDfNttsY4LnF1qI2r3VbTNnzjTB+rfccos8+OCDxpTqoeGUfC0K2Cc+8R3VEj1IVbsIWgIKhkEvjw4upQRsfcHto3jB1X0QZAiLgByzxx57SK9evaRdu3ZlQyVSzqHi1wnFeO+99wzJBk0R86mn1G4/iMgzucQDd4vIJBH5suJg9AMqgTqVgIJhnS6cDrusBGy84OaRX5ASSwv7CJWYb7755NBDD5V+/foZooxPgkzaNUUrJFAfgs0FF1wgP/wAlqVuEGzwHz4dJQEnJMNL4GPqkWkHKgGPElAw9ChM7SoICRAqsWruAD84YopClnEP7iszhe7du8vo0aNlqaWWEkAx1Pb999/LZ599Jvvvv7888sgjvoYJwxTHJMm/LxSRNzS1my/Raj8hSEDBMIRV0DH4kAApXQC+vaKYwaVFBF9h6gb43XjjjdK5c2eZY445UvdXrQ5++eUXE5fYt29fXwQbhg4ozhARsthcLSLEJ2pTCdS9BBQM634Jm34C1iRKVYnjIrZo6n1Nppj555/fhDAceOCB5t/12r777ju56KKLTDo4tEZPScBJh/NcTiYnRSZUQjM0k029bhIdd/p0UypDlUCNJIAmiK2SavOYRGGKpo5wJ2h+kUUWMSxRkmWvuuqqqbLH1Eg2f3ksWWzQEgFEQjK++uorX0H70Fevy5W5GiUiFBTGUamgGMrC6zicJZD6Bu38JP2gSsCPBNizc+cO4BVFZOvILLqkj67nnXdeEy+4/fbby4ABA2LlEfXx/Gr0gVZ4zTXXyA033GDiEz2RbBg6/sRLcpr5XSJCuQ3yn2pTCdSNBBQM62apdKAiMruItI2IMTvkAsMJlSCtWqqGSRQQ3GCDDQxTtJ5Noq6CwHQ6atQoefzxxw3JxlMScOITX8it0cSooDCa4u+uY9LPqQRqKQEFw1pKX5/tKgFMojaPaN/cQdstqj6fev8SL0jA/I477igrreQlPanrnIL43JtvvmkKCt9+++0mPtFDw0T6TZTn9GYReSCKT1TTqQfhahfZSSD1YZLd0LRnlYDxaaMNbhgV2gUESaGWmiVKdXlKKwGE66yzTl2xRH3vC1inTz/9tAHE8ePHyzffgGWpGwQbUrs9JiLjc9r8k5GWqKCYWrTaQRYSUDDMQqraZ1oJsC/5015EKLJLMu1WETCm6huTKAV2Dz74YOnSpYsAivnV5lN1XsdfhmDz9ddfy3PPPWdiKe+//35fplMC9KdEZtPzROQDJdjU8UZp4KErGDbw4tbx1BYRkd1ymsWeuVi21j5YogAelSSoLwgYLrroogJzVNufJYDv8MsvvzSM0xNPPFGmT5/uS0SwTgHFS3MXGypjaAJwX5LVfrxIQMHQixi1Ew8SsCbR7iJyjIisGWmCqfcoQIgmSMV40qcpCFZeLUCR9G7HHHOMXHzxxb7KRGEiRVN8NpcV6LSc+Zv0OJhTtakEai6B1AdNzWegA6h3CVgQJFTigFyhWZJqp45wBwCpKkGcILk6l1gC/o22JBL4/PPPTRabV199VX76CYXOS5sZ+RIJx0D9hImq/kQvotVOkkhAwTCJ1PQ7viQAOYYquFvl4tT2i8ImUu9J8oa2atXKmPm22moradEidfSFr/nWbT+//fabIdiccsop8sEHH5hMNh4a9RPfjwL2SQCOP1E1RQ+C1S7iSyD1wRP/kfoNlYBhg5I7dIPIL7i+iJBgO1Ujb+gKK6xgKkpQaHeZZSCeavMpgRkzZsi4ceOMtv3uu+8KTFQPDa3w0Sho/5+53LKfaP1ED1LVLmJJQMEwlrj0wyklwH5bVETWFRHiBfkzb8o+DRsU4AMEt912W1l33XVrWl8w7XxC/z61Ep988km5+eabzZ+PPvrIl0/xu1wR5ptyVUduiUIxSAKuptPQN0SDjE/BsEEWsg6mMU+ucvoaIrKNiGyZ8xctLyIE06dqmEB33XVXk0t06623Dqq+YKqJ1cGXIdjcdttt8vDDD8tVV10lv//uJdkMZlIy1xCwf2eU0QYmqjaVQKYSUDDMVLzaeVRLsF2u/l1/EdlCRFYRkbnSSgZtkBAJcohSbV4JMmklmvz7EGzuueceufbaa018IjGLHhq5TUmJc3uUCHyamk49SFW7KCkBBUPdHFlIwO6rBSJT6K4581dHXynUWrduLUcddZTRBtu0aaMm0SxWMGafmE6nTJlitMThw4fLtGlgV+oGqsI6fSWKTcR8qqWiUotVOygmAQVD3RdZSIDK8mvlYsqOFZGuEQimjnCfe+65ZZ999pF9991XAMR6KrSbhZBD7BNCDUA4ZswYueKKK+Rf//JSvALTKTninsmxTYdGGiNMVG0qAW8SUDD0Jsqm78imUGuZK99zdC52bPcoc0xqv+Df//53kzpt5MiRsuaaazZkaaVG2z2UinrhhRdMFZDnn3/el+kUAARdyWBD0P4XSrBptJ1Tu/koGNZO9o3yZPYQWh8p1CiwO0hE2vggx5BHlLRpxAuiEWrmmPrbMphP0RJPO+00k+YNkPTQAMX3cr7nsyPmKUGPGp/oQbDN3IWCYTOvfvq5WxDEFLpvrkLBxj7yiAJ6BM2vt956cskll5hMMtrqWwIwT/fff38TkkG+U0/1E2GZUiJqjIg8F/kX1Xxa31ulZqNXMKyZ6Ov6weyb+aLiuttFJBnynaXaTzZecPXVVzfaIKnUMJFqawwJwDJ95ZVX5KSTTpKXXnrJV3wiJJvPRGRypCW+HCUBbwyh6SyqJoFUh1fVRqkPCkkC5DaDGUqYBEC4sg+T6IILLmiC5QmV2HLLLWWBBSCiamtECXz77bdy5513mlCMp556SmbOhDCaumEmJRTjmhxpi9Ru/NtLjEfqkWkHdSEBBcO6WKYgBolJlJqCBMz3EZF1RGSOtCPDL9i5c2cTOE/cYLt27bS+YFqh1sH30RLff/99ue++++Tqq6+Wl19+2Zc/EdPp45GWeJeIzFBQrIMNEcAQFQwDWITAh8AeWTBHa+8VaYJUm4csk7qRUPuEE06Qbt26KUs0tTTrswMINbBN0RBJAu4pATjCgGn6WC7Jw40ico+I/FCfEtJRV0sCCobVknT9PceWVuqSqyawh4hsIiJL+UioDUFmv/32kx133FHwDypBpv42h+8RE4/44osvyqRJk+Syyy4TWKgeGvnh0AwfFJGxIvKiiHjJGedhbNpFYBJQMAxsQQIZDqwVqkrsLSI75g4Syj+kNolCkFl77bXl1FNPlTXWWEPwE2pTCeRLAP8h5Jrjjz9ennmGGPvUzRYU/lBEJonIpRqfmFqmDdmBgmFDLmuqSUGQ2TrXw0k5MkL7KLdoqg758mKLLWZYhDvvvLPMM8886hdMLdHG7QB/4o8//igTJkwwe4b4RE+NIMd3oqQQ94uIl6BHT2PTbmosAQXDGi9AII9nH8wZJdEm3VXvKJA+1fAIi8AvCDv09NNPl2WXXTZVf/rl5pMA5aGOPfZYueuuu4w/0ZP5FBC8L2cyPV5E3hURijIq87T5ttefZqxg2NwbgPUnop2qEphD8Q1SbzB1IzRitdVWMwdZz549VRNMLdHm7QBN8YEHHpAzzzzTsE4JzfDUUDkxm16bSx84XeMTPUm1TrtRMKzThfMwbHyArXNFVHvm6sdRVaKTD3IMZBjyiPbu3VuOOOIImW221AXsPUxVu2gECVAv8dxzzzXhGM8++6yQ1cZDg1BDoD75TtEW8S0qycaDYOutCwXDelux9OOFHLNkLharey4weVsR2VBE5k/bLSZRSDEbb7yxHHLIIdKyJfm6takE/Evg448/llGjRsmjjz5qkoF7Mp2ibpLajTJRDyvJxv+6hd6jgmHoK+R3fFSbB/xIqN0jYomm3gP4AvELkj1mrbXWktlnn93vqLU3lUCBBH799Vd57rnnTBYbstl8+CEKXepGPAehGMQl3pR7Vx5Rkk1qmdZNB6kPwrqZaXMPlPqCq0ZllYgXXMEHSxSTKObQPffc05hGqTChTSVQTQnANCVon9qJ9957r0/T6VsiAuN0Qi7ZxOsi4iXwsZqy0WfFk4CCYTx51dunbbzgLlEybfKIwhpN3dq3by9nnXWWSaWGZkgMoTaVQC0kAMHmgw8+MEnAjznmGHn77bd9DYPaieQ4JYvNlSLyta+OtZ/wJKAnWHhr4mtEmERJoXZQVF2C/6cuAdGiRQs577zzZOutt5Yll1xSC+36Wi3tJ7UESO322WefyW233SaHH364QLjx0NAIqZf4fI5pfVGkLXph7ngYm3bhUQIKhh6FGUhXmERXjAKLSagNCKZeZzS//v37GyAEBLW0UiCrrcP4iwQg1ACKgwYNkhtvvFHQHD00OiG/KVrimSIyRWMTPUg1oC5SH5IBzaXZh0IMw2IisnOuyOlhEWM0lUwAwDnmmEOsSbRHjx5abT6VRPXL1ZQABYQffPBBGTJkiLz77rvyyy+/+ABGQPFTETknik8kVpHyUdrqXAIKhnW+gBERZvEcLXy9XNDwUZFJNLU5FBBs06aN7LLLLqZC+fzzp46+qH9J6wzqUgJkrrnkkktMercpU6YYUPTQAMCXcq6HU3Jlzf4ZhWIoKHoQbK26UDCsleTTP5f6gpRSoqrETrnA4W18kWPatm0r3bt3l4MOOkg6dqSOrzaVQP1L4LXXXpOLLrrIaIuAoqcGyYbYRFinL0QkGy92WU/j024cJaBg6CiogD7Gms0baYAk1AYEl/NBjllooYWkT58+stVWWxmCDKWWtKkEGkkCmE4h2JDr9NZbb5VvvvnGx/Qg2UyLYhNvzzG3X4lSuyko+pBulfpQMKySoD09Br9gh6jSPBXnSaGWOlSClGmAID5BqkrMPffcnoar3agEwpQA9RPHjx8vDz30kAFFmKgeGixTUrvdGQHj++pP9CDVKnWhYFglQad8DOu0cJQ+rb+IdI6qz6daPwgyFNcdOHCgAcNWrVopSzTlQunX60cCsE6nT59uNMXJkyeb1G4emKdogzOjUIzrRYQ/PynzNPx9keowDX96dT9C1of6guQRPTAyjUKWSU2QIVvM7rvvboCwXbt2Wm2+7reKTiCpBNAS33//fZk4caJceeWV8tVXXyXtKv97mE4/i0BxlIg8qoDoQ6zZ9aFgmJ1s0/aMww6T6OFRfUHCJoghTNXwA5JMe8SIEdK6dWuZd955NXtMKonqlxtFArBOp02bJoMHDzZJwPEvemjYXwFFfIlnR1Ux1JfoQbC+u1Aw9C3R9P2xJgvlHPK75Zhph0TJtL0wWcglevfdd8u6666rpZXSr5P20KASwH/49NNPy2abbeYr1ymSAlmpmXhernTa1Vo7MbzNo2AYzppg+pxPRLrl0j8dEcUNpi4GOOuss5pq84ceeqgcd9xxCoLhrLeOJHAJkM7t1FNPNeEYaI2eSDa/RSZTtMTnRORHNZ+GsREUDGu/DjZUgiTaFNkdICILpB0W5tAlllhC1l9/fRk6dKistNJKag5NK1T9ftNJAELNm2++Kaeccoo88cQT8vnnn/syn0KymRRpiW/m0icSr6ithhJQMKyh8KOwiPZRQu29RWR5H3lEiRfs2rWr7LbbbiZmcM45U0df1FZK+nSVQI0l8PPPP8sdd9whV199tTzzzDM+4xOn5twiF4jIP0SEslFojtpqIAEFwxoIXUQwf7aOCuzuEJlEU/sFMYniDwQAd9xxR1l66aVrMzt9qkqgQSXwySefyDXXXGPCMZ566ilfWiLlNZ4WkYki8nDkW/TC3mnQZchkWgqGmYi1ZKf4BamAS6hEXxHZOCLLpF4HYgT33Xdf6dmzp6yxxhpqEq3uuurTmkgCmE7/+c9/mrRul156qaml6KHBMKVe4oMicmsEisR4KPPUg3Bdukh9CLs8RD9jJDCXiKwd5REFBEmhljpUAnIMOUQ33HBDk08U7VCbSkAlkL0EbFUMwjAg2fzwAxWeUjdCMUDXhyJ/IknA1XSaWqyVO1AwrCyjNJ+w8sUkik+Q+oL8O7UTj3qCW265pey9996GJLPgggumGad+VyWgEkgogZkzZ8qTTz4pV1xxhfErktnGQ4NQQzZx4hPH5M6PGR761C7KSEDBMLvtgWxJ8gk79NCIHIN2mFrmZIyhRhu+wYUXXlgTame3htqzSsBJAmiJJP2+/fbbZfjw4fLee+85fa/ChzCRWlA8S0RuiOIV1XTqQ7oFfaQ+mDMYU713iUwhw3TNpVI7Q0TW8WEORSjUGCR9GtXm55lnHs0jWu87RcffcBLAn4i59PDDD5dJkybJr7/+6muOmE+fyMUlHhnVUQQQFRR9SdeHluJxLPXeFSA4e66uWZtc+qX9I98gmWRSN1KmoQ3ecMMNsvzyRF9oUwmoBEKXAMSavn37mrynnvyJTJmaU+NytUxHR2ne8CcqKHrYDKoZehBilEwbQkxvEdknl6l+JR/JtCHHwBIlc8wOOxCBoU0loBKoNwmgIZ5zzjkm7ymZbDw0wi5ei3yJ90X+RC81qDyMrW67UDBMt3SESiwZpVDbOQqVwC+Yqs0+++wmY8zmm29umKJLLskjtKkEVAL1KgEy14wePVruvPNOk9Hmt9+8EETxJ96bs0ZNEJGnRORL1RKT7xAFw2SysynUyCMKQ5SK85RWStWoL4gZFBAkaL5Lly4aKpFKovpllUA4EiC36fPPP2+C9kmYP3XqVB/1E5kgVTFuFJG7cxfyxzS1W7I1VzCMJzfrF6S4LkHzgGA7HyZRCDH4F/hDxXn8hNpUAiqBxpPAjz/+KA888IDcfPPNcuuttwr/99CI53hXRG7OFf++LSLZkNlGm6MEFAwdBRUxRIkR3E5EtoqqzaeOF+Txa6+9tmGfkUptmWWWcR+RflIloBKoWwl8+OGHJs/p+eefb/721H7OXdJfjACRUAwC+JVg4yBcBcPKQkJG8+cqVm8R1RhcXUSIcE9dbZ6qEmeeeaYBw/bt22uoROW10E+oBBpKAgTov/POO/Lcc8+Z2GF8ix4aWiKs0xci5uk9WiqqslQVDMvLiNxmmESpNt8jAsHU+c5mm202U19wr732kjZt2kiLFi0qr5R+QiWgEmhYCUComTJliowdO1ZGjRrlq3YiDFNAkdRuBO2/EQXtN6wc00xMwbC49JALNQUBQarNoxl6kRWp084++2yjDZJSTZtKQCWgErASQFNESzzqqKNM/URPDTPpdyJybq6A+HkigilVTacFwvVywHtasBC6QesDBHvlblBDRWQFH4NCE1xuueXkwAMPlIMPPlirzfsQqvahEmhgCcA8veCCC+SSSy4xVTF+/90bF4Y8cSeIyP0iQtCjl0SqjbAUCob/t4qkT1tYRNYQkf1yMTub+kimTahE27ZtTSLts846SxZbbLFG2DM6B5WASqBKEvjyyy/l6KOPNonAyWRDujcPDc3wjlw5uYsi0+lMBUVPpj8Pi1OrLrgMzJejI3eKQiVgirb0YRKlsC51BYcOHar1BWu1uvpclUADSMDWTzzttNPkxRdflBkzvBSwQCOko2tF5KYcS/71ZjefNrNmiEmUtGmESWwTAWJqJgsp1DbaaCPZZpttTAq1ueZKnZCmAV5nnYJKQCWQVgL/+te/5Prrr5dbbrlFHnnkEV/5TkmFQ81EAJGgfcyopHtrutaMYMicl4gAkKD5dSPtMNXiU1R3rbXWkv79+0ufPn1MTlHMpNpUAioBlYAvCaAlkuOUYP2bbrrJkG3wL3poEGz+ISJ3RtqilySqHsZVtS6a7bSeR0R6igh5RAFBUqillgG5Q/fff3/ZYostpGPHjhoqUbXtqw9SCTSnBAjFePXVV01atzFjxsinn37qQxA4JEnt9nBUO5Ek4L/46Lge+kgNBPUwSRGZTURWjSpKEC9IhQlIM6nbgAEDZNCgQdKhQweZf34iMLSpBFQCKoHqSOC7774zQfsjR440OU89NVRNMtcAhmMikk3Ds04bHQxtVYndRGQXESGdGn7B1PMmofaNN95oQiYWXHBBNYl6egu1G5WASiC+BGbOnGlCMLbddluTANxDQ0ukMjGdXZU7O69u9KoYqUHBg9Cz6mIOEekexQsSMpE6cwwDJaH2xRdfbHyDVJ7XphJQCagEQpHAL7/8Ykg2BxxwgEC48dTQFCHZEJ+IX9Fb0KOn8XnpptHAEE2QavMEyx8hItvn0hClRqxZZplFYIn269fPFNrVavNe9p52ohJQCWQkgenTpwuhGJBsfvjhB/nPf7wQRIlPvF5Ezs7laZ4WhWJkNIPqd9tIYEgMw/IRS/SgiDGaSqKwQfEDdu3a1WSPgSCjKdRSiVS/rBJQCVRJAqR2o5gwWWyoioF/0VPQPiQb0rrdLiIfNgooNgIYoglCiNko5/TdQ0S6+CDHoA1uvPHGsskmm8ghhxxizKPaVAIqAZVAvUngp59+MqndHn30UXnooYd8aYmoms+LyGWR6RTCjZcYj1rJt57BEJMo8YIbisi2uQrPG0dVJVLNCW2wc+fOBgipMUgmGW0qAZWASqDeJUD4xYgRIwwovvTSSz60REg2pHIjzym1Ex8Xka/qNQl4KuCo0eZgzJhE14tA0FuoBMC33XbbmewxG2ywgZpEa7TA+liVgEogGwlgOv3HP/5hgvZvuOEG+eSTT3w8CC0R1imgiE+RSsVktqmrVk9gyFj50z4yh24WEWVSE2TmnHNO2XrrrWWnnXYySbUXWmihulpEHaxKQCWgEogjgW+++UYef/xxmTx5stxxxx3y889wY1I3AvSpmWjjE20SVS/ZxVOPrkIH9QKGjJPq8rtG2WNgi86bVjiYRMkYc8wxxxgQXGqppQRfoTaVgEpAJdDoEoBhimZIRYwzzzxTXnvtNV+m0x9yTP43RWSSiIwTEW8xHlmuST2A4Zw5B+2fjMT+AAAgAElEQVQmIjI4x15aPcojmnrcxAgSJrHPPvvIwgsvrDUGs9xl2rdKQCUQrASolfj111/LpZdeakrNEavooaENkt/02Vw5vOERySZogk1qUPEgtFJdoKK1i0CQeEFKLXlp6623ntx7770y99xza+YYLxLVTlQCKoF6lwBhFwTq9+rVS5544glf07GgSK44G5/oq2+v/YQIhuQRXTKqL3iwiLTxkT4N4KOSxEUXXSTdunVTcozXbaSdqQRUAo0iAUg2gCFZbEjxRmiGh0Zu0ym5JF4josoYX4QWihESGKIJLhqxRKk2T9wgwJiqQY4BBPfcc0/ZY489jElUm0pAJaASUAmUlwAkmyuvvFKuuOIKA4qeSDawTB8TkQtE5LmQ8p2GAIaMAfom+UP7R39Sl3+ACEMS7c0339yAILGDWl9QX3+VgEpAJeAuAUynxCReddVVctdddxlQ9JTaDX/ihFxR9ZtF5CUR+bbW8Ym1BEMbL7haLgnsliKynYi0dV+m0p8kj+j2228vm222mSm0O9tsqRVMH8PSPlQCKgGVQF1KgALCt9xyizz44INy7bXXyvffe6n9iz8R0+m1ken05Sg+sSahGLUCQ9AJ4NtKRKg23zkKpE+1UcgbCvj17t3bBM9TWkmbSkAloBJQCfiRAPlNr7vuOrnnnnvk9ttvF/yLHhqhF1TFuC0CRQDSS2bxOGOrNhiSQg2n3RZRRQnyiPL/1OMgXnC//faTTTfdVNq1g4RanYYZAfOr/dv1qfmfL/Vv174qfS7pGEv1ywvATZG/uYBgkuZvFzN0/ljo3+U7fK6SfIv9vlCu9nmlfl5Jjvp7lYBK4P8k8N5778n9999vwjGIT/TQ0AZJ5YYfcaKI3J2LJCBesWpaYmoQchSCzR5DCrVDcxkK1hGRxX3UGKSqxEEHHWTMou3bt69qjUEOVQr8vv3227LAAgtIjx49ZMUVV6woEr5HFvmnnnrKOKUtqBR+EZCB8MO8VlppJVlkkUWcwcP2NWXKFLnvvvsEZ/iyyy4rAwcOTJRYgDF/8cUXJkD3hRdeMHFJv/32mzFBswbMmxR2+GlnnbV46Uj8Ddwov/rqK/OdfffdV2afnTzr5RtxT7DbkBeEqJ49e5pkCTZBAvJjDW677TYhZgqABZzzgdfK2F5cLMBycSL70FxzkeFPm0pAJeAqgV9//dW8d2iKsPQ9mU6JRfxURIjtOD/SGKsCiFmDoQXBliJyVJRLdBEfLFEOXHyCw4YNM0DBYeaqZbgudrnPcdBiMiBmkUMeMBw8eLAcfPDBFX2UfHf06NFy9tlnCxWqSzV7qDO3ZZZZRgYMGCC77rqrAUiXuQIAPOfcc8814EWaOQClZUuWw70Re0RcJqVgXnnlFUO1xoluwQbgIYkBQAjAMUZCWfIbn+XZRxxxhLzxxhsm2w+gOu+8lRMJIWcSDJ9//vmmruTw4cONLKwvmLFgstl7772FFzROI6aK262yjONITT+rEvg/CfBecx4AiieddJK5eGM18tAoIEz4BQnAh1VDS8wSDOmbukcDomrzy3gQkOliiSWWMDeRvn37OoGCr+cWHu7k9GMMVuvo37+/ObQrgQ2fHzVqlCm+icYGsAMm+Q2w45BH+7KbCy2KwxsQRaOpBIhococeeqjRXukL0ALQyLpT6bt2LD/++KOMHTtWzjnnHJO6ic0P0JHUHADh9x9//LG5GPAMxsil4MQTT/yT1sf30O64LLz66qsG3F9//XUDbpUafZMuChDk0gEoouHmgyHO/V122cVkz+DnLVq0+It2aMHbaof8H7P6ZZddZrRubSoBlUByCfA+UUwYSx1nj8dGIeGToiTg3HYz0RSzAEP8gpxwa4nI4VFppcq2sAqSsyZDiDEchhx2tWyA1LbbbmuKZ1pgwZwJaBDOUa4IMJtm5MiRf4AhRYPR4PJNecwNEyoVq6E0X3/99fLll18agNlhhx3k9NNPL1teimdg0z/qqKMM6DBG+t9oo41MYl6X+owAC8wxbnwffvihMW0C+Pvvv7+0bdvWrAFADRiS8Pfqq6+Wjz76yPyc+aGpWVNmIRhiskVDdBkHYAgQAojFwJAx3HzzzbLbbrsZMymaKTUoIVDZteH5zN9q2/ayAbAD6pqTtpZvkz67kSTAO0j5O6piYJHyFIoBCD4QpXaDdQrpxgt7x8reJxhaTXDlSBtEI8QvmKpxaKFFrLrqqgYE27QhIU3tG9oNmWwwETA+NCT+kPQbU2A5818hGAKqgF0pAGVzAYhoeYANQHLKKacY7aiUf45xYR5FU0WGaHLvvPOOMZVye8O/V64xxhdffNFoeZR8ATCOPPJIOfDAA4vODVMqwbkA1meffWbWCZNJ/nqRJT9fM3zzzTdjgyGADNDma4aW9g0IIivkNHToUGUT1/410RE0sQSmTZtm3kXOSs4tzpSUjQ4+iwg2lIp6K+d+85Ieh3H5AkPUNEorUVZpZxFZxUe1+UUXXdQEy5MWCPNgoSkxpWATfx0NA20JMyeHM9rXs88+a/xW+DEBoJVXXrmkKbIQDNF2cUKX0ybxhZ1xxhnmD+CGb44xlDLvvfXWWzJkyBADoptssokJOQGoAQsACdAqp10D7JdffrkBFbRgTJAAcLlix4DgXnvtZUCQMQLGPMvOCzMpJhReDkzJgKGrz7CcZsjN05pJmR9aIWZaDa1JvMX1iyoBLxLAumT5BlyuIc95aIRdvCoiV0Xa4rs+QjHSgiEmUXyBm0bkGKrOp64vCOitueaaxiRHoV00oZDa559/LltttZU8//zzhryDOYAFP/74440PDH8g2l6pYP9CnyHzxBxZybQKmCAPSDeAm/UdFsrGmg2PPvpoobo1JKMdd9zRfAfTJLKdOHFi2RAUbnWACmCK/NHGttxyy7LkIObFReDkk082Jl6ex7ww7XIBgIkKOELCiQuGZNPnD2bS8847T3beeeeiPkML9oCh1qUM6a3RsTSzBNAMubBiAYM456kyBkUYH46y2FBY+OM0/sSkYGjrC3YXkW1EpGeUVzT1enPwEi9ImMIaa6wRpC8HQgrmQnx4+M8ACnvQY4rkdxzGaLbFWqFm6AKG9AOQkVCAjYV8AB7Mx4WN2xea1AUXXGBYm5gvMYsyJn6++OKLGw0TH1sxAAbUCP2Ascmz0MqttlvJtMoFAXM2YAjJB+0Vv1wxAg3zcdUMLYEGTZz+C8EQn6E1kwLiaLQKhqlfR+1AJeBNApwrnA+PPPKIIfLBQ/DUUDeJSyRo/8GkzNMkYIjmR7D8jrlYkB4i0tpHvCBaFP6p7t27m3AF4slCbBzygN0111CRROTuu+82ZkgWFrCZMGGCibkbP358yXyoSTVDcgRCzoGpBShC1kEzzW/W14c58rnnnjPaNQBIsvJ//vOfBkS5lRGXCYgXAww0S4hBO+20kzGRwj5Fu4TFW6khHwg1zBGNEA0QckoxMIzjM8zXDIuxSQvBUM2klVZKf68SqI0EbNwwqd1wpXgKxSCeY6qIoCFOzmU3eyFK7eY8yThgSFUJ7JX4BLeN0qkRqRynj78MDN8SfjbIGauvvnrwfh4AiQoYmPo6deokjz32mPEb4tOzPjYAAVPp7rvvXjSoPC6BBqGxYTBtojXzb7QgGKVofvmNjQazc9CgQQaA+AysTmIVGRfM1UcffdRolIyxGJEGUyPPwi+J5sjaYHJlnklbIRgSkwgYulx6CObFJIw2Wyq0ohgY8tlyzTW8JOmc9XsqAZVAaQng7sGPiNUJnoEngg0s0/ejfKfjI8KNE+vUBcj4DNog5tDDInJMahBERJhEOawBQ9iK5XxmIWwqiBpoJWgpxAdyOENSsYcqPj2YpJgC0ODI9F7MVJqEQEP6I8yWbB5A6bjjjpPDDjvsL2ALiYUx4KuzDNwNN9zwj5RxxAxCSCKkAeIPfwp9mwAqwA49mt9hcuTfLsBVap2sz9ASaHg+wG7ZsDb0g+/b1G427yHjwWwLSakYmzSfQMOlBPP6+uuvbwhXltaNdmqfwVh4Bj7QtdZaq2KShBD2no5BJdCIEuAdJ/zCci5wy3hosE5hmb4eFRS+U0QI4i9/OS7zW0AQggz5xYZHJJniebYqPaXg9xyqaCuYsuop2BnzJCbSW2+91QDDyy+//KfQAXx1xx57rAFBNLEHHnjAHLaFjQ2APw82KhsBkyVmVVq+toIGyO2JkASYnDBEOcQBN0gkq61GwY//3zjkMYVCsgEUKV3F9/K1x/fff9+YomfMmGE+h5kCE2p+A3yw6QOUME4xkQK8adi8hZphzC3zx8ddgu5d+gbkmTv7MA3IuzxLP6MSUAlUlgDnJ+cVHAdPtRN5KObTu3LZbA6MtESAsmiMRzHNkJ8RJE/Orr1E5IBcjrjk9rE8GUCWgMmIyYvbez2ZqTjM8Q8CEIAS5kZyYeYHa6OFoFHBpgSM0BrRHgs1XvqyGWgAQ0IAllxyyT+C7m2mFPpDA/3222+NaRRgImSDSwRaTWGgOP49NFdYrfQJeQVTZ77mR8gEBBMC5IkBxJ8IKOaPETAcM2aMMY/yTJ6H2TUNGLINbAYaTMyMCX+inWux7DD5eUSRAX8qsUkZO9ojfwqTh9tnMBbmRagJ2nbaeVV+zfUTKgGVgIsEeEdhm3LO8vcPP5Cr20ujXiIFhS+P0rxRZPhPrRAMiRckVAJ2KNXmO/qIF0RL4hCHvYiJLnRzaDHRE1QOsEE6AXSoAE24QiGg41MEbJ5++mlZYYUVTMD6Yost9hcNLj8DDfLIT1htbef0jRkR+UF0QcuEzNK1a9eiLFs0V5JOQ5zhM2g+/J3fbNgFGhFgi8aHPzA/Jg9A4XYGAAJagCum1zTJrAs1Q+IV8bfmA5HdF2jO+eAIgF988cXmAlEp6J754dNlXhYQ6cv+sc9AtoTBVDunrZfXWjtRCTS4BDgDeOchJFIVw5OmiJZIIeHRIvJolBD8D/OpBUPIMWSLoaoEmWNgiVZOGllhQTjIIcWsu+66cuqppzplGwl1jSF7oClh27YHMpln8hsHLIuGdgZ9mAaZBUZnPmhyMPMZ/KVofmhosENpFgj5G/mhTUM24TIBYYcwhVIaNRUheBZj2HjjjU2AezHSCyne0PbINcrncGBjcrX9AvaMG+AFPGD5ouX6JNDETcembNJQ3wwdl0ogOwmghMCPQLmAL+GJefqdiNybSxRDSMCTIvI1R69NoUZJpb65WlKbR4xRF2JNSQlwqJK7Eho/t3SyyNRz7kcWgGBRNCjCBtCWAEKrZVgAs/8n/pB8mvwcIg1xifl+qWIEmkmTJv1BcrGCRY78seSPclsOBijaHr5Hq/VA3sk3Ndrcp2iEBOOjAfIZQjQwF1rtlN8TbI/my2dYQ0y/hczVYuNBi3v33XeNyZc5ox0jr0LNEDDkglFY3aJYn8iyEhhqBprsDiTtWSVQSwlwHmFxg/z38MMPm1qKHpinMEwJdLwlKij8FKB3hoj0iliiVKBP1fDpAAAkk4a2X4nenuphVfoy5kdMpFTKoFnTXikNjZ8DImhYmOIeeugh4yu1rRAMXYPuy02XDQKxBpDDH8YYLRuzcJzWZAjzkn+TQg3/In5Lq51iagUMyUSD9ogmWyzAv3BMmD4JkGf+JC6H6GOD7klMYNmkXCaSBt0X5iYtTMdGlhvNQFOll0MfoxKokgTgDEAmJMYbKxj/99Awk5La7R7A8EcR+XPxuQRPQCtCA8Sc1qVLF2PaqyeCTKkpAxZQ+jlgceiuvfbaJvsJPrZ8bdcCDP0gC8g2pGkDcJAJzNH8YrSwSTEdYyaFTcoCJ/WlAnoABE5ntDtSxUGKKdRYLdDxc55LPlQAqkOHDjJu3Djjk7RjoEYjPkOYs4AkoNavX7+y+UwBJdhgaJrMG5BHUwWcCzXDuOnYXEs4aTq2BC+vfkUlUCcS4BzhbII1j7UIjdFe+lNO4SfAMHUqcWLGIDfgG8Q8WqqSQsrB1uTraDg4cSGQ8G9CJyw5o9yAuMGQwQVWKf44wDFf88on0Lgk6i4H1gSlkzKNWDyIKTie0c7LNVhaF154odlQbCYYvvgIrTmXqheYJU444QTBbo+WiI+zXJ5YwjVIBgBpiIsQzFpIU9ZUW1jPMGkGmmK5STUdW01eD32oSqAmEuDijTWMguFUxuC8SttSgSGaDoHTaD6k6qp1jcG0wij2fXyEEEjwGQJmAE2xsIbC7wJQhF8AADBBuSxQdsgCQz4YVirhVG5e3JQww9IH/rp11lnH1PYrZLAW9gEA4heEFISPjyK3hFvYlGv0SwgE2ib9Y+7lIlCqhBObkTkCVISLrLLKKkK6JfKg2pZVCSdejHww1BJOWbwJ2qdKIDwJ4IqicAIhYsRGp9ESE4MhPjAqhOezEMMTVboRAQhoW5gcbdgCGhS+MJcG4KFRoiljCkVeUPmtWdOySdP4DCH3EK5CoD8mTi4m+P9cTK5Tp041n6e+IaxVTKIU/81nlWLqRTuEgYrWiImYbDSYOZkXm5HfoUVCAsL8iqUANirmWtsKzaT4DONohnFKOFFuCrM2puz8OMZisYz4VrkANJI1w2Vv6mdUAo0kAd5tkqBg3cKdlaTFAkP8UZjJiKODYejCBEwyqFC+Y3OMQu0FCIi3w4/mGm+HxoXp2GpKABbJBlg4tCjrM0wKhvRDRpm+ffsaYEEDxbGMz9al4deDGAPQwNgE5Ph3PjCgbWImZryAJz45gBMwY/3RgDEFY3YFgNFIkRPB/vn9MNb8Ek5xwRBzLmMjvKNcCSdM2bBX+VOMOIRcGKf1p7Ie+GtdmLIuMtXPqARUArWTAC4dLuZwMkjtxhnn2pzBkNs+/h/MZpBjmqGRHog546wlZRkaF745F2KQJdTgNyQxNloK5jub/PrSSy81pBfSrWF2xb/mos3ly51nQFCBXEI/kHvISeoK1nwfqjLzAriXX355U62CPLH5DYAhtRyJBjCdov1ZJipjRruCNYxpFGYquWbzkwjQlyUikfWFDD6AD75FlxJOAC6yGj16tAFDSDr4WW1mHRsKgjaYv/mtJmjnYk3UFgj5P2DIy2P9uc2wr3WOKoFGlwBVhLjcc55hvXJpzmCIORTmTjM1AAZfFAcshzelpUrVKCwlF0IUrNyo70e4Cb5Wqr3zc24yBN337NkzNhgCAvgk3377bROM2rFjR+nWrZsTWNvxMkfCIdDuGBcmYfLFFtOqiJ9kPgAiIRxoiQAvQAIQkmAB+RSLKQWA+A4AaE2pmI5dUqGxmbmQIC80dLRtZJnPzkVrxbeJTOzYC0NLbCkpm7wbGeDT5ILDZU+bSkAl0DgSQOHAxYNS49IUDMtIKT+w00UbLNZVpT7ytRSXBSv8TGHwaZJxVhpj4TMBGQCKvwEYNDQXrTbtWMvJqrDvuLJMIre4z9DPqwRUAtWTgIJh9WStT1IJqARUAiqBQCWgYBjowuiwVAIqAZWASqB6ElAwrJ6s9UkqAZWASkAlEKgEFAwDXRgdlkpAJaASUAlUTwIKhtWTtT5JJaASUAmoBAKVgIJhoAujw1IJqARUAiqB6klAwbB6stYnqQRUAioBlUCgElAwDHRhdFgqAZWASkAlUD0JKBhWT9b6JJWASkAloBIIVAIKhoEujA5LJaASUAmoBKonAQXD6slan6QSUAmoBFQCgUpAwTDQhdFhqQRUAioBlUD1JKBgWD1ZJ35SfsFZOrGlhey/+btYUuvCkkSJBxDzi6USbOcnzi6cU+Ej7Bzz51ruMzGHmPjjhUnKC+dUbH1c5ZH/XZsIPG1i9sQTTfhFxktSdupVkv2f6iaU1KKsF9U/qFlJXUsqnVAkmRJbVDKx5bUSPrbi14olZi8mY9/yzt/nhe9tsfc6/132mQy+3BmSLzyfz6y4KIF9QMEwsAXJH84nn3xiqslTiJeDhA1tKz7wf/5Q/cFWgKAqhP0Zn+OwGThwoCmsW41NTommp556yhQM/umnn8xUKBXFs205JP7Nz5gLByN/GLMdO7+3ByOfs83O036W/vjD96lxSMmsDh06mNqZlFlq0aLFH3P2NXfGTFVsivtSpovn2/HwDPuHz9l526LBdr2YJ2Pm5/Zn9gDm5/Rh1zp/fqxl+/btpXXr1mZ+lKayz6v1FmaugN6LL75o6lhSOot6l5QbY0/w+/zyWKwlc6UcF7UwKSVGma2NNtrIrCHlsVyqmrjOm6Lb1O2ksrndZ/kVVOzPWAe7L5ExRbRXWGGFVO8O/VGGzL4TthwY87P70u4h+z6wNyiNhkzS7l3ew/vvv9/USGUteJbdV4whv3Yf/+d3Xbt2NTVTXWqHuq5BPXxOwTDQVeKwnThxohxxxBHmZp2kcahQIJhivFnfvBnfjBkzZOjQoXL11Vf/RVNNMv443+HQAACZM6BBHchNN91UVlxxRVlooYWKVrKP0z+fZU322GMPufHGG83BUs1mLwkcUACinR9AAqAUFkfOemwcol9//bUBwFtuucXUhvz4448Ty4X5oTGydn369JGtttrKFI/2AYxffPGFAZenn37aWSyAwnHHHSeDBw822mvSxrMpYA0Y5tfFLNcfoLT++uub2qiFhbPjjAMgpq7njjvuKFOmTHH+Ku8NwECB8mZqCoaBrvbnn39uQOyyyy7741Ydd6i8VJtssokBJzSnrNv06dPl2GOPNbfwWjfmDghyqFDlnkLLSy+9dKpLAaa+nXbaSe644w6j7dSyAR7zzTefdOnSxRx2gOOyyy5rLgRZNrQoLBYUiWadKfT83Xffeb38AEQUgGbdtt12W1l55ZVlgQUWSKwl/fjjj3LkkUeadylOHUsAdNSoUUauSRuWkoMOOsgUuI7zbAp4T5gwQdZZZ52kjzZ7lIvKLrvsYi5yLo19td9++8kpp5wSuzC5S/8hf0bBMMDV4aWhsv2ee+5pbt5pGmaekSNHmursaU0ulcbxwQcfGDDEjBhKY86A4mabbSY777yzAQ00kCQNcxtgeOedd9YcDPPHj89t4403lt1331023HDDzA4xzJ7PPvusOaSRwZdffplEjM7fARTbtWtnZN63b19jskwC9mjxWFkOOOAAZ1BgkGip7OXVVlst0bvDe4ysqJ7+0UcfOc+bD+JTPfXUUw0wJX1vWa+zzz7b9GPN1JUGgYXhvPPOMxYQTPHN1BQMA1xtXl5udHvvvbchIqRp3KgxtQ4ZMiTRQRLn2SGCoR0/Byv+qH322cccrosuumicqZnPhgqGjI0DE7PirrvuavzE/DvpIVooGA51LBU33XSTMZ+98cYbzodrbCEXfMFqwD169DDvA5o+ptM4DSDARDpgwABjyndtmKQBsy222ML4OOM2tLHTTjvNaJdx32OAiMvN+eefn9gEjhkbUMOS4dqwIKFBc3nmnWmmpmAY4GpjdjrxxBPlwgsvjGVaKTYVNjS3al6qli1bZjrbkMHQTnyxxRYzGvfhhx8u/DtOw0yKSTI0zdDOAeAA5Lfffns5+OCDjVaVlogCEGL+vuSSS2TSpEnGRFqLhsay+uqryyGHHJKI3DF16lSjZT344IPOw+fdOf30043fPYmWhL8QnyPm5LhmddatZ8+ecsUVVyR+b5kzffC3a8OdwLnTuXNn1680zOcUDANcSg4fAAz2m4+26qqryrnnnmv8h760hWLjqgcwZNyYTTGZ4UdCc3ZtoYMh87BmYTTEQYMGpfJ3AYQffvihMZsBhN98803qy5mrrIt9Du0MQtQxxxxj3o84ADVz5kwZPny4nHPOObG0WvyWl19+eax9YseOq4M1gMkZx19ov897O3r0aKMNJ2k8F1aoZXZX6oO9A9nn5JNPrgrHoNJ4qv17BcNqS9zheffdd5/069fPUNN9NA58/BbcqpP4XFzHEBKBptyYeekh0+DfxGzqyrQFDDFB3n777bFv+q4y9PE55ofPiflxuEG0SdLwCWLi45DA5JbkQE/y3HLfQWMCELncofW4ar6wX9HQeAfisLMxrfM+xiXRICv2Ce6Jd955J5EYIBFBomOPJrnEouEddthhzutGqAvPQ0b4oZutKRgGtuL4NzDhXXDBBd5GhrkHTQH/RZas0noBQwTLIYrZDfOx6807JDZppc3B4dm2bVsDZJCG4vp/mOv48eONlvDpp586H6iVxuXj96zdGmusIddff70z/d/G++2///7y9ttvOw8DstVdd91liElxGmbRiy++2IALWmmShuZ74IEHGmZnXHAijAPCWBxmN7GsvA877LBDIvBNMseQvqNgGNJqiBhHO3T5pLfJUtPh8IBV6nrwJxELZlJisyZPnpzk61X/DjdhCAZcEjCdVmohE2iKjR1A5EDEzImm6Nos4QRfWVo2s+sz436OuUGEuvLKK501+/fee0+OPvpok8jCtQG8XEwJj4jTvv32W7Ov+G7SmFSejYUoib8fqxJm1vfff9952AT5s1fWXntt5+800gcVDANbTbJVdO/e3bsZbsEFFzQ0azTErEylScGQ8biau+xycdMvzOCSZClXWmklI5fevXtXHENSzRAzbFzNjPkBSjZbT5K58R1M5Nddd50xKbqa2iB+QBy56KKLnAPFC8dn067ByCRonYsHPwMYiPvD/8jlgj+utP/CZyBXfJnEIrrsHzQ01poDPz/zSiXZ4jdEC3WVH/0R5I5vkwQNaRoXY0zC3bp1i9UNWavWWmutWP5CXADIB/NsMzYFw4BWnUMBFiDMPd+Nw4LbLb7DuCxK17EkIdDAEiTjCCxIe9gUyw/J75CP/RvaOgcqWU+I4cK/FZexx7w4pNGAOLi4MJRrScCQ+cHQA3Rtfsj8ZxT7GfPksIZVzNyYI6ENcQ7w/GfstttuZk+5EE64YJBSDcYt5tG4DcDDH4slgthHDnPSAdpMMqwROUsBCwL3Cdp/6623zFomAUUOfEI+XJjSPJtQCfx4cWIk8VESPO9KtmJNH3/8cVeyPK8AACAASURBVEOeITVdmgYwnXHGGSZw3vVCxfOxzmAVcG3sDUKwOB94J5qxKRgGtOocEmSciGPaiDN8cg7ix0gaRFzpWfgMMZPGCbrHfEcqL7KMxGkcnIATQIE2DVmBAygOOYLnAa7kxBwxYoShk5e7/SdhkwKwmKe5dcdpHGiAHyD4zDPPyG233WZYiWhtcYksgBPfxYdYqaE9cYgDGnGfg38N/yTgS0ovNMJyGhta4rRp04z2hG8L10BcwAdkYYkSNlEJLJgP4Eu4QxzzL/N68sknjdnRpQG6zAnyCuuVpgFSmHZhPrvGV/JuQJy66qqrnB8NlwDfJG4DFy3bueM6+qCCYUCLRUJdcjLGPRBcp8DBjIaAH8KVQenaN59LQqBBIwQMybGZtKHNcIEYN26cCRjGXxOncRAAWND1ywVXJ9EMkTl+ozi39MKxc7gB+gDU2LFjDYDEASoON3xrmMgrteeff95o6nG1QhirxDdC/kKTimNS5ALD3mcNnnvuuVg+NgAQEzAHP8m1KzVi7tAMyfvpqokiPy6RAK5LwwxMSMSwYcNSv8s8m9hWzNYkoXdpPB+NGY3btVWDU+A6llp9TsGwVpIveC4HOgcJdOisGi8Wt2K0N1eTT5yxJDGT+gBDxgg4YGojjgzwwRfl2vBZwvrDRF0uU38SMISYw3jiaoaFY2d+WA4IwqY/qkTEaZjZAMRy2hPPOPPMM03CB9ek0owBUzDZXQjlSBroz3rdfffdRjt5/fXXnYGK55O4nEse2mglEAYoILbwnsUJXeIyg/xcMtFwcSFhPQAd59JSaj2x6ECigdhSaX70AVEIpjRzdWmcC2TZQYZYEZq1KRgGsvKYwzbffPNY5htbBibOwcWLBemAdF2+WxICDWbSRx55RFZZZRUvwyFIfN999zWahutBZIONOYjLkQeSsEkBQw5emI9pG/NBxgA3PqE4LEW0NUyD5fxBgD1pzzAJujZkBwsREMXE7wIWpfrm8B4zZoycddZZJq7RtaGV4vcFxCtZPHhXSFzPZwEt10a8ISndXC6Rr732mtEi41TJKDcO9iQXIBKHu8gXwhT7zVXzxRRLqjvIM83qL0T+Coaub0OGn+OQg7SA9sDt36XxUuDD4LDlu66NgwP/DImrffsGkmiGkHkwk/oCQ/w1HAYAYpybP2xSDpxyfrVaaoZ2fTnMmd/xxx9vzNKuDXMtDENiyUo1SC2Y19CwXRvgwFiI33P1aZXrG4BCi8W353qY8y5svfXWxkTuUvIIMgz+PMobuTYsBvim8beXa4z54YcfNnOIq72X6hfNm2TbZE2qJGPOEogwJEtwvQxiXuaClSYpuKscQ/6cgmEAq8MBhx8DKjsHrkuDnIBTHbMXG9nVz8hNHnMW/gzfIRZJfIa+wRDZEVQN3Z7D37UBAqTdwndZyhSVBAwBITTDtGbS/HkwP7KExMmzyY2fw78cUYmcq/gLXUGIMcGUhXzkasKrtB48G//cUUcd5fwu0CfrBxi6kFwAKYLZIV25WlV4z9gfJM8uZ6qE5YzlBeByfScryYTn8VyXpBlcALEwcZlwbVgNmBtr2cxNwTCA1YfmTSwTVHPXgwi6OiQAsvATMhEngTIHBqbJSqEEcUWTRDPEZ8hN2pdmyJjRLrjlkjnEtVGuB4LKmmuuWfKwS2om9eEzzJ8HjE/MgrB24xzm7C/M5MWa9Rei5bk2NDJYi5A7XDQy134Bexi+uA5cGwc62hBm3kp+NczL+PS4fLr61awpnQOznEUF8haXU9bcVTNzmSP7EvJUp06dyn6cd5AcxK7JuW0h4RtuuCGzkCuX+YXwGQXDAFYB/xY3SdcNzIsJhZ2bPMxCNET6cG2kdiLfou9sNEnBMC2btHDe0Nmho+Mbcm2QMAAXNAyfmqEvAk3+PGyxWggdrtoHc+ICVCqtGKAK2zRO9iBM7lgZ2H8uvizXtUC7AdTi+NyIM8TnS1hHJfM/IIX2RmxpHL8hFwkq1pfzG3I5JTwhjtbuIhf2EfsTuZSbH9ouFxRXdwvWIchB+Gor+VtdxlnPn1EwrPHq4eOyN0nXmmeYbGCE2ryHNltInIORg4DvVbpFxxFPEgKNLzZp/jjRKGDmxol3xFfIAUmQeDkwjFvCCe0bmr0PAo2dI6EIsILJHeq65hygxBqWymQCGHLQ8hnXBgDhywKAfO4jxoK8yPri2tBMeSeIkawEhvQJYxW/XpwK9CTrJpVbqfJGgCyVKqgUEaduosscuWyQiYak3aWSJ2BV4p0m7tK1UgUXGi4R+FCbvSkY1ngHYN6EfACt3NXkRRAwWiG3fL4DhZvMEXHMSrzQmCdd2HGuIkoChrBJGUeaOMPC8TEOfCxxDnZMx2ha5RISJDWT+mKT2nmyzvgMybzialZHA0DTgnJfrAGqACVxfq4N0zIMRGJjfYIhc0Kz5/B3bRzq+BnRVCsF39Mn5kxAnPfONXMR2hmm2FIxo4yb95IwkzihPa5zZLykkiuVRxcARCvEfeLKNIapyj6CCdzsTcGwxjsA8ya3fG6qrg3/CNlWrJ8GKjx9cJC5+ikwld57772xcx6WG2OSDDS+fYbMn8BxCDRxbuf4WSBucMCXaklKOFU6QF3XPP9zrDOaL6xI1wYbEsp/qcBtiB8ciHHSh+HnBbCI7/PZWEM0Tkhero35waLEF+gChlwi0Ygg/7iyjtHIcGegeRUzCwOqhJgwbpf3sDD9YKW5cmFEMy0VFsX7h0ZNxiKX5/M8fJCYdHkPm70pGNZwB3B746bHyxWnzAuaJKY3+9KjKeC3iVtRm1s0DDUXs5KLmEJgk6LhcEBzILnejpkbJjNyQJbLcZmETeobDNE4eGkZa5z8mpj4uHCVSioAGMIIxWzo2jic2b+YV302DnLMfQCbayPkADAkftAFDOkXLQ7/nqt/jX579epliFbFyGeAKlrhHXfcUXHY9MVe493D7+/SYJDTN77+Ypo4FhbOBoLuXRp9UK5p4sSJzjJz6bdeP6NgWMOVw3mP7y4OK5AbKXkqoU/bxo0UAMBkFSdGDIYamqkvVmlSAo1PNumzzz5rzF9xSmBBHMDfhLbFgVOqJTWT+mKTYoZDK+QSQ8ybq4mU+RAyQb7MUkQXLhGQh+odDAFQVzIP+xVwc61vCHhgRoeYVcysT8gG4QkuRDhcHaRFBPhd33+Ak5R1sMcLL7DsBdixaNSulyT64FKNtqtNg+5rtgd4CTjQ0OjiBP9i5sIMWGjWwOTJzThOPkL8hbfccouhsftoScEQM00lynil8SFPDjXixzAhu/pf6RdzM+muuNWXY9Ql0Qx9EWiYHzd+Djt8PHF8UhzitiZfKd8eYAhbMhQzaVzNEI0XVwG+c1fNEG0YsyI+NtdGSBOXTvZKYcM8SaUOl1hhfHVcamAGY1p1Jc/xXIhThfuUZ+IzJfzCdW9g9iXcppQf2VUmjfI51QxrtJKY8Ni4xHXF0eb69+9vbpKFLzxEHMrukI3GVWOAVMELhO/Eh6k0CYHGB5uUgwBAxTSKZhMHCFl+fGXcuNGMyrVagSGaPxcm2MOQgjjE4zRMtZBnVlhhhZJfSwqGmElJlO2zAfyY7zF5ujbAkIsl75MrGNI3uWxJeOHqY8NygAWB5xRqoPicXYsA4/fngoIWByjy7rg01hCOQGGxZhKro+FhRnV9/1u1amVM52ip2lQzrNkeIBYOECI5ruvmBbAw0RRjs3FgYnIlXsiVVm0DbnHK+zCVJtEMOah5gan3V6yeIYcUP7eHlf0386Xe38svv2zSkxE3Gbd8E4vPhYAAdsyklWSQxEyK9k2uTW70di48t9S8+B1zZH74oN544w1j3iQoOsn86A+/EEzZcvUMAUN8hsjTtWXpM8Qnipbn2uISaGy/XDJg0bpoc3wHjQx5whDOZ2LzDkPa4l2q1GycMBoeplXCQVxjKllDiFOFaeGYB4nmcRO4NrRi/J8+LsKuzwz5c6oZ1mB1OAjZvBzCmFZcG3klCZwmaXBho0/MPfQZJxsNZlcAtlQwtuvY+FwSAg0HAwHv+bdT5mLBIh8ILYjwN8AE6Qjzkis1vnAu9M0NHQITPthKh0ISNil9covPL6jMc+0FyF4A7Dzt3LEckKwaM5prLGGxteKyQSB9pYoOoRFo4oKhJdDE8RkiL0IssAjEIZ1gCgUMucDZRj/44MnvWqlxAcPCYy+uvLNceFwuxewTtHEA1DabRABtlUT1Lo1+sExVSi/n0lejfEbBsAYryUFHQDE3uTi19yizUorJxjR4EUjrBtC6mn2Iz8LXiGaUNgNFktCKGoj/j0eiTZDQm7mXit3KH18SM2kt58d6wpLFx1UpXVojEGjwGbqGVth1waROxYY4hXC5QGFe5QJlLzME2+NzdfHX8c7ZsXIJwRyMidXVogPxBua4fV9ZO8bDpc7V98jeh4xV7GJdyz1by2crGNZA+tz4IQjgp3IFLfwgbHgIImSxL9Z4sfg9gOkaVoDfg5eaJMcuxVHLiSuJz7AG4jeP5CBBG4a8QGFTl6DxJGbSWs0PjRSNB5Yx5s9KfjT2Dod5HDMpcYah+AzRDC2BxpVNai0NaM6konPRzPgOmj4mXN41C0hoWWSHcXmfsfDA4sSsyjMxYQOIrhYdSDyU47J+Q0JD8DvSj6u/nITtWKUqVcGo1f6txXMVDKssdct6JL4pjn0fMxu+MXKSljPnAYS8pK4JiJk+hxrOfMw/aVq9gCHyY84QUkid5aoR14tmCLCTPIADu2/fvkKChUotNDBMwiaNE3SfLw9Mm1wEXOMNMXMSz3fyyScbvyEAhIVh3LhxlcRsfo82BiPYmlnxAdIfSRFcGpdhCGM2tzDf4yIQp5Qb4UeMt5JrwGU8jfIZBcMqryQvDmEQkGDimEgJf6DMSrl6e0wF3wf+oTi17rhhkv6K/IRpyjolIdBUWfxGA6QaOzdxV6CwYwQM4+Ymrfb8ONzYI/ihIO1UMo/a8TUCGMYNrbBzR+OHEeta1Jg9RKFdzJLsJYhc3bt3lxdeeKHicrM+vMv4921MKxohl2MS1rtqdjwbJjiNlHLM3TW2Fs0Z4h7mYW3/XwIKhlXeDfgFoI3jx3E1y2DiAqzY/JUYjxxqHIIurDY7dTQjDnnGlMZUGrrPkIMIkgM+Qg4/F40pf3uErhmyTzB/canhsGavuJh/mWO9s0mTEmiYO9YatGhIO66N3L6YiDG1w/jlAkp4Q6UGEAFC+Rmk2FesGexSV1Yr+WDRLmmYaDGTul6u0WbRInkXtCkY1mwP8MKQDYTAedfG5sXBDjnGxaTHZ0nk7Aq2jINqDfiXSqV6chlrEjapS78+PsMtfPvttzdywYSYRAMOGQyh3Pfu3dvMj0Muri8oNDCMaya1PsO4BBq7twjvIWTChQDDd3Bb8L5wiYQMh5nUxTVBkWXez3wWJ2DMzxi7a1pGtH9iTmFhc4klx6orT4Ck9Fin8F1qUzCs2R4g6wyEFVfmGAMlQwRmjXLlhfInhA+EOCSXl9N+j+B3fCDcWl0At5gAQzSTckiSIouAZOLJ4mhLhXMMkUDDWrHWgCBgyPwqkWWKrV0SNmlIBJokGWjy5YB7AWuBa/A7fjssDJijAW5CLVySIXApw99XSNriXID56xoawToTjkHgPEkD+LdrwyRL9Y1SeWpd+2m0z6mZtMoriq+KlFquDTMXmWUI0F9qqaWcvsYNkRf7sccec/o8H8KESHV4ADFpBvuQCDTQ17l0UNIGNiWg6GoyLCW0kMAQDQPTHBoJIM9807QkcYahgWFSAg1yg+GNLF1Ts7GXABXcFwAiAOdiicHHSEhDYek0knBwmSEdngsjFUsASTbIrQr5xjWNHu85hz7s2STWkTR7LPTvKhhWcYXQBjm4XDcuQ8MMAnii2XAAujZMOLyoLi+o7RMTKX4QzGxJgCOJz5CXE6q4fTHzn5ufdYaUda5sP+ZD2ipMR7BFk8ylmJyTmElt0D2HX+Ehlx9oz96g+ojrenFhIRyG2NOkmnz+HJkbjMo4ibqzBMMkQfdJ4gytDLjoEOqEqdKVxELoCgDMWGF0uoAYvlzMqoVrhmYOw5NMQy7PR/tn7QcOHGjOBteUjhCq0CIrsdJdz5lG+pyCYRVXEz8h4QtxTKT4twC2/ABflyETL8azXJ3q9MkBy7MqJawu9fwkPkNAAuIANHOAAIDIT8tmM9Fw8yYnpCvBgEsEWiHhE5VIRy7y5DNJwBCNDXMa/koOufzMOvTJ//k5TEQyiLiygJERmgwXpaSafP68k2iGIaVjS+szZA1I6QfL29Vvh88NzQz/G2nVKjXWDP8eoF14QWMf8O6xB1wyDvF9/IaAGuFULt9hfLhcJk2apMH2RRZLwbDSDvb0ew56Dua4JlJYYwTbl0uyXGyI0L3RishK79q4bQI4mF9cKfn5fSfxGboW9wXUuRC45nDksODFR3Yw/nzEU6E9cBOHbOGaAo7MNi4lnCBWYaKGGejaN2ZzAsaxNqSdX6MQaGCFxgm6t/sXMEK7w/RJQLtLQ+Zcusgh66LNYf0AcEtVicGtwTvr6utnnphLXbPOMCc4AbDZ07DGXWRTj59RMKzSqgFOHFqugbUMi40OMQLTTRJ2II59Nr6r6Y1nAhzURctPnO0qoqRgSHxVsfpw+c/lsCJImBR2rtohBAH8OZiyXNKtVZpnEs0QrRRyBSBaruHnJRyGyguuJAr6w8+LaTtumEjhWJKAYZZm0rhs0qSJuvPlQLwfmhm5el1MnpX2S+HvKdsE0JZicWImp4KKa7HfuM/HNEt8Insm7X6J++x6+LyCYZVWiRp7EB5cD3KGRXVyDgWyy8e9+QOAmBYxzwHEro0AfLQTtLC4N+wkBJo4JZw4rAiUh4Dg0tAO8YOhHXLIxJVh4TOSBN3HqWcIoxHNhvgxF02D8XGwUuy5UvmpSvIKLeg+SQmnpEH3Vja4LzgQMWu7MEMrybTw97gt7rnnnpLpFLmQsL8Jos+iEQ7C/LA2JWEcZzGmkPpUMKzCanDL5MZJKR/XGycHOSEBaBWF5Vpch0yIBUDqCh70y0tCAC/km7jU66Rg6FrpHu2JeCzG5uojQaNG9qSoS8u4TMImdTWTInsOYC4iMIfRElwaAI9vFG0+DZEGeXJhcDURMjY0Q/xcXPJ8tqT1DNOCIReQu+66y9QknDFjhs8pGR8hWj+aWSlCF/PGp4ibIosGq5rzJClBLosxhdSngmEVVgN/F7TpOOWa0Moo80I8kE3blD/UYrXxCqcCEQA/FKViXEGYPrjBksUfzTROS0Kg4baKmZSDtVJjDm+++aYBeKoEuDSrHRKn2alTp1TM0iRmUsCQNSxWg7LY+Cm2ilkXrd51zfDv8vmklybGwUWDy1ecZBCY0mHssrd9NqwahCBhFXFtXHQAG7S6NFoPlwH85sT9+WxcVGCRwiYt10gJh0/R1W/sOkbeA/YgGnfc99r1GfX+OQXDKqwgjnEyVbika7LDYfPi5IYxxu3fmvgK/X/8nEOzkIlJP7xQH330USwfFN+D4QlJhMMxTlhC1mDI2ChwywGMlu2acQPfK5+nqkC5AreVtkKWBBr7bLRDtAP8gK5MYBvzxssc17Rtn8teIb9mHBBYfvnlTdUPLm1x9kklObOX8WtdccUVlT76x++5EGDRAMjSmMPRyCG6EbYSx9deaaCMD1cJ5Z/KNcKHCMiP4zeu9Gx+D3kH7gHy0cr2xSWmYOiyk1J8BqAaNmyYOdzihFSkeGTqr3KwoVFiroljektCoMFHScFiF82QiXFAcXsmEcH777/vPFdMgBMnThQO8KQtazOpHRfVTDDrugZg8z3kSL5JUm0lASZMhJB8qIzi2jjgOWAheaUBoMLnYbIlZIF94dqWXnppw9ROW6wW7R9TPPufi5evBsDdf//9FYlcXEqIH+SzPhu+ZUy0rHEazdnnmELrS8Ew4xUhGJa4PfxirqSIjIfk1D2mGtiNxUy0pTpIAoYQaDDxYcJ0bdzeMfdg/nU1J5GwgBAHqPNJtackZlJXNmn+3HkOSdlhz0Lbd2lcWtCm0JpL1bss1w+XtrgMTp6Dfw1NKq5/udRYGAf+OuLnXGMu6YuySFw405psef4tt9xi/NIuVetd1obPANKAbCXLRFZ+Q8AY+SBXbcUloGCY8c4gmS7pklzLq2Q8HOfu8cHgy4uT2T4pGLqEVuQPHADEjAthIg4NnQw7ZPhImqA4azZp/hyRCUH1U6dOdVozW8OQsICkzFJYqRScdb208Uw0OADY1uZzGmyZDwEGZEjh0uJqSWEczJnDDM04bbP1AeP4bcs9k8sXFzHXvL9o+DA+fTFa0dr79etnWNXkMtWmYFj1PcChzUGBD8g1q0XVB1nigRwwaF+YSl1NYEnSscU1k9rhAhKY6CAluGqH+E3QJpOa0qqlGTJHAq9Js3Xttdc6zw/mLN/BxFdJAym27JidAZU4e9WaJ/GJx0kXWGqfkyMUDRerhCsoAzYEq+Pn85GNB78dIS5UjndlLZd7b7GukPMUa4vLu8SlEg3Ol9+QdSE+Fw1e/YWlV0o1wwzR58svvzRB39x0XQ/sDIcTu2ti9Lilugb8V4NAYyfBrRktiIOf+EPXBr0crTLJoVlNMERDIt6MhMqueSe5wGAOo1Ye84zb8In26NFDqLzu2gAitBguTpBDkvgr7bMgRAH+XMDirCkmWsy1hKTE8XGXmiPjQJODHAQ4p21ozcSOYsp1acQF49sjzMNHg4gHb4FLhgsY+3hmPfahYJjhqsEeGzRoUKzYrQyHE7trbpGYeV1NpUnNpK5xhoUToKgqvjXIBq5aBH4uYvIg4MQ9uJOAYZw4w8L5cShSY48UXq4NJjCFYpFLXC0AAAZQ+BOHSYlfFMIPz01yyWBurB8gjLYPQSrO5XG55ZYz8XO+krIjB4AIGb799tuuoi/5OeqQAq5koHFpXPQAYghBcdahVN/4488//3zZZJNNXB7ftJ9RMMxo6XmZOXS5MceptpDRcBJ1C1hgWuGAcgGOrIPuCyeBJkMMH6boODf4pL7DpGxSDmpiI+M2DmV8nGiHrv4jbv6k/cM/lCS4GiYrmh5WjTiNPKmY4jDTFpYnqtQPmhjxjbgTsES4kobol/mSQhCmsGuJs0rj4fdkA2IuMFrTABLjsyENrmQ0Lgb4b6lvGEcWxebF80mKgHuAS4O20hJQMMxodwCABADDCHTVWjIaSqpuOVjvvPNOp+wtSTRDgu4hKlTKTVpsEoAF1R4wkXGYugapY1aDWUfmFheQt89OohkmYZPa5zEf6P0cZnGyCPFMm3Unru8QkyzyJMTCVZ6MFzkSaoEWhEbVunXrirKlf5JMo/lycWSOrpXmrYzIsYmpnPg5nyED+Gyx6gCyrheRYnsU7ZxDllhM1/qByIWqM5Be4jBqiz0fSwg+ci6NSVjGqQ6POvuygmFGC0a2GTKJuFZZsMPgJmcP6GJlXvLLGxX7vT2Y8qdlDzVuuHEOOPoArADDLl26VJRUEjCMk5u02AA4qAi2hjzhyj602gTkGwg8ri0pm9QlUXe5MVCih1p3rmvHvgBA0Q7jXjKwaFCSiAM0jrZtx8+BD2ORbCcwUwFF/Hh2X9sEESQU4AKD3xfti2cluTQSn4pJ03dWFcaJaTOtZQdtDCJO3MopkGdIEpE23pALCmQggF1beQkoGGawQ3ipOcC4IccxkXKI4ei2mV/sTZcDygKfzUYDsPHz/Ow0vMD2sLFEAguA/A2oMa44bEGYaJh5AJxKWlQSAo1rCadyy4SvCVNinLgwQJ4gZL7nSipIohnGTcdWbJ6sF4dpnIonhMYAhoBoXI2ATElYNagzmdREyF5hDAAj1d1hnQKUgCAmSPYK8YRxfIOFsoG8gy8MTbbS3kzymuMvB5DiJHcofA6EJLSyuKEnrDlFg8n96noJKjZHZE8mH40vrLwDFAwryyj2J7jl4gDnRY1zmOBgp9J4UhJCpYGipeIHIa+n6wsGIPfs2VOuueaair6gJKEVacykdr6Y1ojlpLaf6+HKZQHCBcxLV19TEjBMYya182NOaJdDhgxxTkHHd5kfhykHYhyw4DKHtobpEZKS616ptP98/p4LDOnjYGqnTcBealwU7KXqC4SeOO9xvpWHWFHyrLqSZ+x3CemAWcu+jms6zn8+jHD8zq573Oca1VtfCoaeV4yDA0CDWRcnzyPDoHwLprukGVIqTQV/EDddQgtc83rSJ4WFSdzNi1XuUE1CoPEBhsgc4gUklTimPUx4mMFgbLr4m5KCIYCbhEBj15P5AUr0EUc7hMiCqY8DPa52CJMVjQJyEhl/QgJEm2AAK4cr07nSu1Hs9wASqebY+0niDfHXwsyFaRu3fiDgy4WEQP2kfkMufKw9lVDirn8SedX7dxQMPa8gIAMTjBcgDiOPw5hDk5tgVo0bPxor5rM4eRfRbjCbVSIpJAHDpEH3hTKC8EBs1u233+4sPg4IgBBzFGa8Si1pou6kbNL88QBOABOm3TgXma233tqkAXOZX+H8OYQhGkEiiWNaryTHtL/H9IrpHhN3VhdHxsgFAAIc+z5ONXk7P7RB5Ad5xuWyVSgXLkBcqslGlKQRHwwbPG3y8iTPrsfvKBh6XjV8IraqQhxCABoSxIXOnTt7HtGfu8MPAjkC4HJt3DBhtsH4wyFfqiUl0CSNM8wfBwcXlxCIG65EGqv1AoZ9+vSpeLAm1QzTEmgYJ5oCcasETsdJ7QedH80Aq4Orb9TKFZm+9dZbxtSKOTLOBcp1b8X5HBohRBkAgjhR11CFOM8o/CwuBRJnJ6lvSAIEXCUwspM0NHI0S8qPJdHMOVOwNOFv1lZZAgqGlWUU6xM42zFtULYpTiMgFr8cGzjLhhkRlh8Hq6sfhENo9dVXN34rqj+Uakl8hj4INHY8XESg9se5SaMdcrDCuKvkV6klGDJHiC0E4QmlDgAAIABJREFUYmO+dNUOWTviBiHDJAEP9gg1JFl79mcSDcnHfgbIKWeG5YQLDxaFOH7QpGNAI8f3+sQTT8TqgrFxAUGTZ9xJGpYI4gPRguNc8OyzIO3wLiTNxZtkzPX8HQVDj6vHwYGWg+nNNYUWj+dFh0VKcdK4voW4w0dbJQYN843rgcozAGkAA/NvKZNPLTVDxsjtmfg4GJRxfDykEUMeEIXKmbOSmknx22HCTdtYL3J2wlKOo9kTVwmQbb755okAhH3N8wBUTPlxGNJp58z3MYVSuBjWKMAOQ7caQMizeV9gUuNaiNNgzvKuQJ7BzZCkIXcqaJCQPs5622dxMYRU5iNFXZLx19t3FAw9rhiHJWYRbnKuWhePh+jApiU2LIlvIc4UAAxui5g949zyebnx0eBzLBWblxQM41atKDdfTEtUEyfO07UxN4gSsDXLMXmTxhmmJdDkz8OGr8QNiqe0EcmikybTZt+gJaEhoe0gX1fmrus6FPscfi8AkOw2VKTgslgtILTjISSJPRXH7QFgA4QAeBq/JrGYgCGWnDgNGbFOXJy0uUlAwdBNTk6fwgTJSxPXpAIjjlt3pSrYToNw+BDjxI+BP8i18XLxHTQofCHFWhICTdqg+8JxoD0RgA9pII7m2759e0OWgDFbyreWJB0bWoFPMASAMJNiSfjiiy9cl8/E+MEi5sKVpvF8zLVc3hgHJbTigITrs7kUAn6sIxotF8a4Pk/XZ1X63Mcff2x8+XEIcZhGASMunWkaz0YznTRpUqwLNusNmz1JwvY0463n7yoYelw9iA3kvYzDvANk0EowXZYjp3gcpnmpICHgmI/TWrZsKWeddZYxAxe7nUMy4DYM5d3V4Y+fjrAIwMhH47msA2ZJQlxcGwctYRZoIKVM1WiGpHBDw3IFWrRo5Iz/yFcjeTTZjZCbq5x5NkQQzG5pQcUmdkBLRUOFpEEgPdmAkmQ5Yi/xh3GRvgz/NCQvLpaYeKutCRa7YLF+ENxcGuMlyH3kyJGxMwAV9s8FDBMtJKY4fkPChkhvl9RE6zLPRvuMgqHHFYVth8MbDYkDw96Yecmx2/MzDlFrQuVnbFZigUgrlfaQijMVDjIOacbMOHmBMecwBv7PH8bLDd2m0oIqzqFQqlQPfjoClDErYYLle/b7aBR23vzMHoD4goif8+kr5VCGwMThBYDZA9pm6+FvxmPnzXi4STO3ddddt6SPBXlgHqQcjzUx2zkie9unnTN/c4GAARo3eXW5tWTcdn6ElFhA5G87R/7NeOzPGAtzo+6gz32GbNFQSfBNjtkXX3zR/J9xsR/sutsx5gMf+41YPIg9hEugxZCxhXcBEOQ7tQZCuw6wSrEcsJ+sjFkH5p8vc8bMXsKKgnk3bXyfvdyx5yhrZd9PnsvzWVfkiJysrPkZ2jSXn1DkF+dsqtVnFQw9Sz6Or9A+2h4QnodSsbu4Y3UZp00JV/Hh0Qdc+nTtq/BzcefnAhL5wOMyriznl0TWjDmLA9Jqi1yuAEO0c0x8+BnRbgBGPsPBDUBw+cGvBgguv/zyxg8NMLqsgYvcs/hMnP3ke93jPJu5hyzHLNbGR58Khj6kqH2oBFQCJTW5QtNpfjJ6FZtKIBQJKBiGshI6DpWASkAloBKomQQUDGsmen2wSkAloBJQCYQiAQXDUFZCx6ESUAmoBFQCNZOAgmHNRK8PVgmoBFQCKoFQJKBgGMpK6DhUAioBlYBKoGYSUDCsmej1wSoBlYBKQCUQigQUDENZCR2HSkAloBJQCdRMAgqGNRO9PlgloBJQCagEQpGAgmEoK6HjUAmoBFQCKoGaSUDBsGai1werBFQCKgGVQCgSUDAMZSV0HCoBlYBKQCVQMwkoGNZM9PpglYBKQCWgEghFAgqGoayEjkMloBJQCagEaiYBBcOaiV4frBJQCagEVAKhSEDBMJSV0HGoBFQCKgGVQM0koGBYM9Hrg1UCKgGVgEogFAkoGIayEjoOlYBKQCWgEqiZBBQMayZ6fbBKQCWgElAJhCIBBcNQVkLHoRJQCagEVAI1k4CCYc1Erw9WCagEVAIqgVAkoGAYykoEPo4ffvhBvvzyS1l00UVl3nnnDXy02Q7v22+/lU8//VTatm0rs802W7YPC7j3//3vf/LVV1/Jzz//LEsssYS0aNEi4NHq0FQC5SWgYKg7pKIEfv/9d7n77rvlnHPOkW233VZ23313WXDBBSt+rxE/AACcd955Mm7cODn88MNlt912a1pA/P777+WSSy6R++67T4444gjp2bOnzD777I247DqnJpCAgmETLHLaKf7yyy8yYcIEOfTQQ2X++eeX4447TvbYY4+m1BD/+9//ykEHHSS8OEsuuaScdtppMnDgwKbUirAUnHzyyUYW7dq1k5EjR0r37t1llllmSbvl9PsqgapLQMGw6iKvvwf++uuvMn78eDnkkEOEfy+yyCJy6qmnys477yzzzDNP/U0oxYgBwwMOOEAuu+wy00vLli0NIACIzaYVAYannHKKXHzxxYJcMBuPHTtW1ltvPQXEFHtMv1obCSgY1kbudfXUQjBk8ACi1YqaCRA59Pfff3+5/PLLzRr+7W9/MyBwzDHHSP/+/c3lgJ81Q7OaIaZS5EJr06aN0RS7devWlNpyM6x7o85RwbBRV9bjvABDzKQHH3yw0QxtW2yxxWTYsGFGK8J82gytEAwtIHbo0EGOPPJI6devn5FFMwBioWZo1799+/YyYsQI6dGjh8wxxxzNsC10jg0gAQXDBljErKdQTDO0z0RDPP7442XXXXeVhRZaKOuh1Lz/QjOpHRDgt9JKK8ngwYMNyWi++ear+VizHkApMEQWHTt2NBelzTbbTOaee+6sh6L9qwRSS0DBMLUIG78DCDT4DCHQ5GuGduZLLbWUDBo0yJBqAMdGboDhgQceaEyBhQ0QWHnllQ3LdIcddmh4EChmJrUygUSz6qqrytFHHy1bbrllw8uikfd8s8xNwbBZVjrFPC2b1BJoioHAMsssY4gle+21l4lFbNRWDgytyXSFFVaQIUOGyC677CKzzjpro4rCxJ1CHsr3GeZPlhhMABHzsQJiw26DhpmYgmHDLGV2EylnJrVP/fvf/y4AIlrTnnvu2bAaYjGfYbHLQatWrUwISiPHIZYykxYCYqdOnQzBaIsttpA555wzu42qPasEUkhAwTCF8JrlqxYMIdD89ttvJacNIC699NLGnIqG2IiB+aV8hsUAkawsaE4AYiNmZ3EBQ+SCdoz5mDCMXr16NaQsmuUsaOR5Khg28up6mpuLZmgfhd9s8cUXl2OPPdZkqmk0IokrGFp5EJhPTCYm00YDRFcwRBZclGCZjho1SjbeeOOGNh97eu20mypLQMGwygKvx8e5aob5c7NxiATmNxKbMC4YcjlYdtll5cQTT5SddtqpoUIN4oCh3RvEZJLKjsB8AFKbSiAUCSgYhrISAY+jEpu01NAXXnhhE5iPVtQogBgXDJENgEi6MrRlwi4aJdF5JQJNqX0BIJK1ZsMNN2w4bTng11iHVkECCoa6RSpKoBKbtFwHFhAHDBggCyywQMVnhf6BJGBoAREzIaEGNjA/9LlWGl9SMKRfLgckPCeXqZJqKklaf18NCSgYVkPKdf6MUhloXKdFMP4JJ5xgAvMBx3puScHQAmIjBeZTvgmCkM1NGmddbWD+0KFDpXfv3g1jOYgjA/1sWBJQMAxrPYIcTRwCTakJwDI97LDD6j4wv1KcYaUFBARWXHFFOeqoo0wu03o2H6fRDJETLFMbmE/YRT3LotK66+/Dl4CCYfhrVPMR+gBDSyQhDpFMNfUamJ8WDPNNpgTmQzCq18D8tGCILAjMX2211UxgvgJizV/1ph6AgmFTL7/b5H2AIU+ygflkqtl7773r0mSaxkyaL20uBwTmQ6qp1zhEH2BoAVED893eRf1UdhJQMMxOtg3Tsy8wtIBoTaZkqqm3wHyXDDRxFp68rieddJKJyURLqqfmCwytyVQD8+tp9RtvrAqGjbem3mfkEwytmZDyT5Bq0IrqKdTANxiiIRKYX4+AmCTOsNzmxHIAy3T06NEmMJ9k39pUAtWSgIJhtSRdx8+xbNKDDjqobDq2uFOsx8B8X2bSQlktt9xyBhCpdlEvoQZp2KTl9gpxiGPHjpX1119fA/PjvlT6+cQSUDBMLLrm+WLSoHsXCUGkIV1ZvWSq8UGgKSYXNESqXZDQmsD8eeaZJ/gCwb41w3y5AIhUw+jWrZvMPvvsLltJP6MSSCUBBcNU4muOL2cJhkiQOEQy1ey4447BB+ZnBYbWfEwcIszKvn37yvzzzx/0BvPpMyw2UZIUjBgxQgPzg94FjTM4BcPGWcvMZpIkN2ncwWAytczKkAPzszKTWnmhIVpADD11W5aaIfLAhwjL9Pjjj9fA/LgvlH4+tgQUDGOLrPm+4JtAU0qCsEypEk+mmlDjEH0TaEqZTDt06GBSt4XsQ8xaM0Q2xGASh0iSgs0339yYj7WpBLKQgIJhFlJtsD7TpmNzFQeaABUeiEMMNTC/GmBoTab4EAFEEp2HGHaRFYGmcL/YwHwAkcD8ueaay3VL6edUAs4SUDB0FlXzfrBamqE1jQGINlMN5tOQWtZm0vy52qw9w4YNk4EDBwZX4SFrM2m+LABEUrdBMEJDrBfGbUh7V8dSXgIKhrpDKkogawJN4QDQEFu2bCmDBg0yweghBeYDhoSYjBkzpqLcfH0AWRCTuddeewWVuq0aZtJ8GWIyXWWVVQz7eNNNNw3ucuBrvbWf2khAwbA2cq+rp6Yp4ZR0omhFaIUUxQUQQ/EVZckmLSUrZEGmGipE4E8NxWRabTC05mNbD3GTTTbROMSkL5h+7y8SUDDUTVFRAtVgk5YahA3Mx28Wgq+oWj7DYvIgMJ/LwU477SRzzDFHxXXL+gPVNJMWzqVNmzZy5ZVXyrrrrquZarJe6CbpX8GwSRY6zTSr6TMsNk5CLU4//XTjN6u1hlhNn2GhLNAQSVdGCEoIgfm1BENks/zyywsHmAbmp3m79btWAgqGuhcqSqDWYMgA0RBJVwYgLrDAAhXHnNUHagmG1kxIQmsC87fZZpuaBubXGgyRBzGZZ555pvTs2VNJNVlt+ibpV8GwSRY6zTRraSbNHzfJvWET4jerVWB+LXyGhWsHwcgG5vfr169mic5r4TMsJgtYpgTm9+rVSwsEp3nRm/y7CoZNvgFcpl9tNmmpMWEmtOWfqHaBtsjPqtlqrRnaudpMNYMHDzY+xFrk7wwBDJFHfmC+Fgiu5tvQWM9SMGys9cxkNiGYSe3Eah2YHwoYWpMpzEp8iCQ6rzbLNAQzqd0XNjAf87ECYibHQMN3qmDY8EucfoIhgSGzsYBIvB+ZaqppMg0JDC0gkqTA1oasJiBaMLzooovkf//7X/qNlrIH5k4u0+OOO87kMtXA/JQCbbKvKxg22YInmW5oYGgBEZPpEUccYeIQq0WqCcFnWGwNl1lmGRk6dKjxp1bLZBqKmTRfHphMIRjBPiYwv5qXgyTvln4nHAkoGIazFsGOJEQwtFoRCb0BgWoF5ocKhtafesopp1TNZBoiGNp9QV5XNFYC86vtVw72RdaBlZWAgqFukIoSCBUM7cCph3jOOefIgAEDMg/MDxUMLQi0atXKBOYji6wD80PyGRbbxK1bt5ZJkyZJly5dgkpjV/GF0w/URAIKhjURe3099N///rfcd999cuihh8r06dMFQAit4Tck3owCwVkG5uMbowI7fqnvvvsuNDEYLYjyT5BqiEOcd955Mxvjjz/+aGQxfPhw+eabb4LwGxZOlkw1F198sWy00UaayzSzndAYHSsYNsY6Zj6LmTNnysSJE+XCCy+UqVOnyn/+85/Mnxn3AYRakL8TQMwyuTcgeP755xszHGWMQmsA4oorrmjKP2UZmM/FgMvRBRdcYDQwZBECkaZwPYjJPOuss6R79+6ZWw5C2ws6HncJKBi6y6rpP/n111+bQ2/06NEyZcqUIDXExRdfXIYMGZJ5YD5aEYCIZvTpp58GtzcARJupxqZuy2KQgN+0adPMJWnChAnCHgmtwT7WwPzQViW88SgYhrcmQY+I2//kyZNl1KhR5hAMTRMABGBWHnLIIYZUk1U9ROaNaZAXCDPcxx9/HNy62cB8iuLusMMOmfkQLSBySRo7dqx8//33wckClunqq69u0thRD3HuuecObow6oNpKQMGwtvKvy6djMkVDPPvss+Wjjz4Kbg42DpECwQAijNMsGiDwxRdfyFVXXWVMpiHKwib3Jo1dloH5yIILgdWWf/755yxEnqpPwiw6d+6sgJhKio37ZQXDxl3bTGeG3+zaa681wd4h+s2qFZgPCHz++ed/AOKMGTMylXuSzq22TP5OkhRkGXv32WefGasBf0IFxI4dO5pcpmiIWTNuk6yXfqc2ElAwrI3cG+KpP/30k9xwww2GqAHNPrQGIFYjMB9A5EJw2WWXGX8qgBBis4H55HVt0aJFZkPEbzhixAhDrPnXv/6V2XOSdjzLLLPIKqusooH5SQXYoN9TMGzQha3WtAi7wGRKJhh8aKE1tCLMpJR/AgSyKhAMIKItoxEBAqHKomXLliYOkUw1WQMisZ/IIkQN0ZqPucBssMEGGpgf2otbg/EoGNZA6I32SKpaQKrB9ITJMDRSDfK2cYj4zbLMWYm2fMYZZxgNMUQiCSBAUVyy9vTv3z/TywF74bzzzpMxY8bIDz/8EOS2RxZXX321dO3aVQPzg1yh6g1KwbB6sm7oJ3HYQa1HG/jwww+DDLuAWUrOSkoeZRmYT9gFgeiEG4QamE+6MhIH9O3bN7PAfC5FkIog1YwfP14gXoV4UQIQbWB+tfK6NvRhUKeTUzCs04ULcdg2MB/TGGEXIQbmk9AbQMw6MB9AhG3LCwbjNLRmwy5sYD6ZarLI4Qn4ffDBBzJy5EhjTsefGCIgkqSAwPwePXpkpi2Htgd0PH+WgIKh7givErBxiCEH5i+xxBJC7B1+M8ynWYAAQkVb5mKA1vHJJ594lbOPzvIBsV+/fplpyzYOEVmQxSjEwHxINQTmk8aO8k8ah+hjh9VXHwqG9bVedTFaC4hWQwwtl6kNNSDX6i677CKLLbZYZnJFFpdffrmJQww1MB+tiKw9BOZnZSbMz1Qzbty4IP2pNjCfi1KvXr0yuxxkttm041QSUDBMJT79cikJcPsnDpHk2SGCAGEXyy23nNjA/Cwz1WAmBQDQEEONQ8SHiMkUglFWLFMAEX8yVgP+QLwKrRGDmZ+pJiv2cWjz1vGIcWnEiZv+m4g4lbRebbXV5KWXXlIZN7EEII9cf/31QvaTEEMNAERi7w4++GATjI7JNItmM9WQqgwQCDWXKbIg7AJtOUtAhGWK1QA/YohhFwBip06dDDsak6kG5mfxVoTXp4JheGvSUCMi6JrA/MGDBwfpK7JFcclZSRwiBJssGoBIYgJMprBMAYQQ27LLLmtAIOtMNVgOzj333GABER8i1S4gQVHtIsusPSHug2Yck4JhM656ledsA/NDBkS0QqrEZxmYj9ht+Sc0I9i3oTXrT7WB+VmCAP5UADHUTDXIgnqIBOZTDzErolVoe6BZx6Ng2KwrX+V54x+CSThs2DBjJgyRXm8D8zETZmkag2UKjb/ZA/PZguwFAPGKK64IMiaTMRKHSDL2ddZZRwPzq3xuVPNxCobVlHaTP4uMLLbaRaiB+RYQiUPMKjCfiwDmY+IdqYf47bffBrcz0II6dOhgWKYE5s8333yZjNEG5uM/JDAf33KIFyU0RBjBG264YaYXpUyErJ06SUDB0ElM+iFfEsgPzJ86dWqQmWoWXHBBYzKFWZmVDxF5AohoiCEH5pPQmlCDPn36ZAqI06dPN3ldQw7MRxannXaabLrpppmm9PP1rmk/8SSgYBhPXvppDxKAPEHqNm7aoQIigfk21CCreoiIEm0ZnxkaYqiB+cQhwggmMD+rYHS0QQARDRFzeojs4/zAfI1D9HAQBNaFgmFgC9IswwEQOfRsYH5opjFLJDnkkEMMqYY4xKwIFLBMIWnwMoZaIBhA5HJAXtcsSTWk8WNPEIYSYnJvG5gP+5h6iFldDprlHAhpngqGIa1Gk42lHgLzW7VqJQcccIABxKw0RFsg+Morrww6MB+/GWEX+FOzzFTDhYDwE7RlqoCE1mxgPuZj4hA1MD+0FUo2HgXDZHLTb3mSAKEG1113nTlkodqH1gjMJ/bOBuYvtNBCmQwxHxBhmYZqMrUFgmHcZgmIxGFiMgUUQywQDCCSy5SMJZtttpmSajJ5K6rbqYJhdeWtTysiAW7/N910kxx++OFB+ooAxKWWWsoQSXbfffdMiSRoy6RtAxAxn4bWMBWTxo7yTyQ6zwoQmTdp7DCZUhMxxEw1NjCfsmUE5mNC1Va/ElAwrN+1a6iR28B8fDEhaogI2wbmk50lywLBlH8aMWKE0YxCrYeItkzMKIzbLH2IXAhsYH6IgGgD88ksRNhFVn7lhnrZA52MgmGgC9OMw+Kwg1Rz0kknBRuYT6gFQAUIZKkVQR5B4wAQQySSsD8JRh86dKipdpHl5cAG5gM4yCI0shWy4HJAWEjXrl1VQ6zTw0vBsE4XrlGHTagBgAjgUBQ2tPJPyJ04RCrZDxgwILMq8TwH8zFVPwhBCTkwn7CLbbbZJjPzMbIgScP5559vQnJCDcxv27atMetusskmmV6UGvXdr/W8FAxrvQL6/L9IgMOOQw+/WahxiBBpTj75ZBk4cKABx6waJlM0RJiVofoQV155ZRN2kXVgPmEXBOZPnjzZJH0PTUPERNqxY0c59dRTpUePHsoyzeqlyKhfBcOMBKvdppOADcwHEDkEQ9QQIdXg44RZmVU9RKSItoy5lJc1VJYp2VmQxXbbbZcZCNjAfACR1G0hJjqHVNO5c2eTpIDAfI1DTHcOVPPbCobVlLY+K5YEINLghwEIMJmGqAngKzrooINMyaMsARFZEJiPhhhqgWAC88llivk4y3qIZKrBHIkPMeQ4RC4HxCEqIMZ67Wv2YQXDmon+/7V3JvBbjvn+//zPOHOUJXtKiBRDIpEk25QlSyEyJofsSmU71jlkb+yyS6KMFrSiCBkGQwkVUYpisi+NrbG9/ud5X3Pf5nc6Lc9yXc9z3c/zvV4vL3OO53fd1/25rvv+3N/l8/3ahfNBAJcpbjFqeC5atCifPynrb5BdIDXo3bu3CfOTlkfnn3++SzAKSYicBWKIvMBiJkQT5pf1cSzpYkaGJcFnf1wOBLIizKd0GzrE0ML8IUOGOC1ijB8HnAc+DiiiQNWeUITIdT766KPohfmtWrUSvSER5ofMPi7Hc1jt1zAyrPYdrpL74+t/zJgxokFwjIkkJsz/10FLhfkQIhZiyN6QVKohhojbNEYLkRgiCUZXX321S6rh/7YRJwJGhnHui61qGQj88MMPzmVKLIYEmxgHcUPa/GAVhSSBNMsUIohVmI+FiA4xtMs0FeZTui1mYT61Zzt06BDjsbU1Sc7lTnm9fIt+/D9J/z8f5Lbffnu9+uqr+fzUfmMI5I0AdSohRFxPuMliS6rhRho0aOCqpoQW5vPiR96BDhFyjG1gIaK94wUTMsuU+86KMB/JUPv27U2YH9thNTKMcEdsSStFAKkBqfXUrIxZmI9gnpZHa6yxxkrvqdgfQIK44LCKYhXmb7nllq6WKcL8UFjwUZQK89N+iDF+KPFxwF7tueeeQT0HxZ6nWv47swxrefczfO91hfnoEH/++efo7obSbbhMaXkUKqmGm05rmd5xxx0ihhbbwEIkbob2rkuXLkEJEdkFWaYjRoyIVpiPJhNh/t577x1MkxnbGcjCeowMs7BLtsZlIpDqEGOuVLPRRhu5pJ/QwnwE6OAAIeIyjM0qSgkRqUFIlyn3TdUirK9Yhfl0t0CYjybThPnxvNyMDOPZC1tJEQikhIg1gJssRhIgkYR+iLQ8CtkgmEQShOgQYqzC/K222kroELt37x5MapBWqoldmN+mTRv3oWTC/CIe/AB/YmQYAFSbsrwIYBVRqeaKK65wSTWxDWQXTZs2dZVqIMRQlWogAe6frMWYK9U0b97c9YYEi1A6RLBAhwkhYjHHmGVK66sddtjB1XXFQqxfv35sR7em1mNkWFPbXb03i7zggQcecIka+aZGlxMNCJEu8f369XOl20IV94YEiBsOHjzYCfNxmcY26uoQcR+HEqODBdYyiVa4TclEjm1AiCbMj2NXjAzj2AdbhQcE+PofOXKkS9SgS3psAxIghoglQKWakJmVfBDgLsUyivHjICVEPl5CV6rhLECIWIixCvOp68oaaf9kwvzKPLlGhpXB3a4aCIFUmI8bLkYS4LbXXXddXXnllY4EQlpFdYX5yFFiGykhIsynFVYoLLhvCBHtJ4QYo4UIFptttplL+tl1111j26qaWI+RYU1sc23dJCRADJH0dVoexZZUw27gJqVPYUhhPveNtUwsFQsxZmE+hHjooYcG7fBADBFCpLZrjFV7OBfEltNKNWSd2igfAkaG5cParlRGBHjZUe2Dlx9ZpjH2Q0SHiGCelkehXKZAjiUEIZJUE2MPQKwi3IS4t0ML899//313JhDmg0WMH0otWrRw9VZNmF/GF4ZVoCkv2Ha18iKAMB+3U8wNghHjX3zxxc5CDJVUA+pYiLTBoidijBm3ECJidOKpXbt2DfpxQJEG4nMI8zkjsREiyVbbbrutOxf77LOPZZmW6bVhlmGZgLbLVAYB4oZYiNTv5CUYo4WYCvMhxFA6RNDnxY91yD8xuo/rWogI8+vVqxfs0HAW0KamFmKwCxU5cSrMx1qm/ZM1CC4SyAL+zMiwALDsp9lEgA4XEOKNN94YtTCffohIDUIRIhYQiSTILnjwEebHZhVBiAjzIQHcxyF1iJRuwx3xdmbjAAAgAElEQVQJHjFmmSK7QJhPlxarVBP+3WNkGB5ju0IECGAVjRo1ynV5iLF+J64xsgl79+5dFmE+SSRYiDE2CIYQmzVr5jSj1HUN1QqLDwFiiHgNYs0yTYX5aem2kNZyBI9pRZdgZFhR+O3i5UQAeQGEGLMwn9JtWIjoEEPFEFNh/t133+2IIFZhPh8HlG4LXakmC8L87bbbTv3793cxxFDWcjmfxRivZWQY467YmoIhQCIJlWpwPcWoQ8Qq2nDDDV0PQEhg9dVXD4IFhMj9U6UGqyhWLJAapIQYUodIUhHyE9ymMeoQEeLTCos17rXXXsKTYMMvAkaGfvG02TKAwPfff+8aBON6wiqIcWAVIsw/7rjjgloCX3/9tdM7kkwSqw4RQqSZM70hQ1lFaTz12muvdR8IMRIiH0pgMXToUO22224xHttMr8nIMNPbZ4svFgESJkiqQX9H3Cy2RBLuCx0imjhIIFTcjOtAiFdddZVLMIoxkQQSoCkuwvxu3boFlRpwFvg4gHDQqsZ4Lqhxy9lt3769iCna8IOAkaEfHG2WDCJAZ3hS69GcLVy4MErZBYQIUZFIUg5hPvVMSTaKbUCIW2+99S8Ngtdcc80gS4T8KNKQyi5i1CFy42Tccm5xmYb8UAoCcqSTGhlGujG2rPIgkAVhPlILrKLQwnxcgxAvL4UYM25TYT7u7S5dugT7OIAQUx0i7vQYK9UQM0yTavbee++g1nJ5nsTKX8XIsPJ7YCuoMAIQ4r333uuSJ0i1j801Bgk0btxYf/jDH1z7p5CWAFiQUIOFGGuWKRYi7u2DDjooWCIJZwBvAW5qzkaM8VSE+fRDTCvVWLeL0l4kRoal4Wd/XQUI8OJ75ZVXXPPdadOmRekuJXGEQtaQVIMGDYKhToWeF198Ub169dLMmTODXaeUiSEBLGWyTEPGzH7++WeNHz/eYRFjSzAwJNGKDi1nnXVWsOSiUvYqS39rZJil3bK1ekcgdYnR/JWkhBhjRFiG1KokuxSdWUgCwD2IpTF27FiXWBPbwPqh5x8dSXbaaadgliEfBXwYUc910qRJIgM5toGHgFJtZNpuv/32wbCI7b5DrcfIMBSyNm/0CKTJEmRRkkhD2bbYXKSASLIEa6SLQSitHfeN1g79JdZQjFmlWIQQIe7idu3aBbOEUiIcMGCAnnjiiShlFmDBh9Hll1/uPpSs3VPprxsjw9IxtBkyiAAvf4pVExOif1ysafSUJaNSTOg0eoiQUnATJ06M0grCItxjjz2cFbTLLrsEJcJXX31Vl156qSZPnqx//OMfUZ7ujh07OgE+QnyLFfrZIiNDPzjaLBlDALE9LjDqc1KVJsYBEZK8QedzXKWhBokyEOGECROijJeSOYkliKUGFqFe/nwgzZo1y1mejz32mH766adQkJc0LxjgyaB0X8hzUdIiM/jHRoYZ3DRbcmkI4A7FIkRLFuOXPy9/mt3iGkVHFurljzsQTR2JKGPGjNEPP/xQGrAB/hr3X9u2bZ07cPfddw+GBckyb731louXjhs3LkoiBAusY4qsb7LJJgHQru0pjQxre/9r6u758k+LMiOjiJEIeeERA+Ll36lTp2DuQF7+8+bNc0k5Dz30ULRxsR133NElyxArDFWPk3Mxe/Zs19GEjwKwiW2QLAMGfMThGjWL0P8OGRn6x9RmjBABXniU2iJrlFhLjERIlmjr1q2dpUb/ulB6Qtx/c+bMcZbxgw8+KLp5xDawhrEIIcKQhamxjt98801HhGTQxugarV+/vhDWs0Y+lEJ9FMR2Bsq9HiPDciNu1ys7AhAhjVwhwkGDBkWZKZn2rUMvdsABBwSrKILVkxIh3TtiJUIShnj54xYM9fKHCEmWgXAfeeSRKC1COtwjnzjnnHNco1/LGg33+jAyDIetzRwBAhDhO++846xBdISU1opt8IJDJ0aZsc6dO4sXYIjByx/XKIWosQjJoI1tYBEiIUFUT2eGkEQ4ffp0R4Rk0MboGsUihAiRu6CpDKkvje0cVGI9RoaVQN2uWRYEUiLEIrz//vuj1BES+2nVqpWzgogRhiJCAEdQn8bFYhbU08sRyzCUFQTxpYL6xx9/PEqXOXpSXOW4zCm5ZkQY/pVhZBgeY7tCBRCACKkzSkbmsGHDoqwsAywtWrRwVivuwFAxQq6DjvD000937sAYBfVpZZkLLrjAEWGovoVYx5TeI0EpVkE9WGARUn+1ZcuWwT4KKvBYRn1JI8Oot8cWVwwCqaCeBBEE6zEL6iFqEkVCWUHgR3EBdISUFYtRPsHLH9lE//79gwvqX3vtNecaxSKMVV9KwhD61+bNmwdzExfzXFX73xgZVvsO19j9QYTUF7366qtdwkysLzya1UKEO++8c7AXHljQiokC5JRYizEuBhHWFdSHjBGSNYqg/tFHH40ya5RHtUOHDqJtVJMmTUw+UeZ3l5FhmQG3y4VFACKksgyuxxiLK/PyTxuzohsLZRGmgnpe/qNHj44SC+4dHSEuy9DyCQT1JOXE+lEAFiQO8ULefPPNwz4kNvsyETAytINRFQikgvprr73W9eOL0SLkhUdDVuprEhMKVXQbC/Dtt992HwUI6mONEUKExMVCEmEqqMcFCxHGqCMkVkytURor06vRBPWVeSUZGVYGd7uqRwRSQT3WYKwWYSqoT+UT9erV84jAv6ZKdYTXX3+90BHGmDWKKzQtsYY1FLLcXFpiLdbKMsgn6D5BBi3ymlBYBDlsVTapkWGVbWit3U7akRxrkMMcY0fylAgRTu+///4KTYRk0EKEMeoIsY7JFqUrBEkzoawg3MRpsszDDz8cZbw0FdTzgYR8IpTLvNbeCcXer5FhscjZ31UcgVRHeOutt2ro0KEucSa2wZc+X/zoxRDUYwmEGGCBa5TEIVyjMRJhKqjHTUyiSKhkGazjl19+2bmJkZLE6BpNBfV0qcddbDrCEE9FYXMaGRaGl/06EgTqdqhHUP/ZZ59F2Zg3FdTjCgtFhGwJ3ScgGdyBMbpGIULiYnwUQIShrCAswqlTpzoijFlQT8wYLCixZkQYx0vFyDCOfbBVFIBA6hql80TMHeqRT7BGskZDCerTDvUI6pEMxJosQ2wwrSwTUlCPRUgnjpgF9RTdJoOWDyUjwgIe/MA/NTIMDLBN7xeB9OVPgsjgwYOjFdQjmL7nnntcokjIFx6C+j59+jgijFlQT59A9IQhiXDGjBkuFklj3hi7kvAkkDmbyicsWcbvu6HU2YwMS0XQ/r6sCKSC+lj7EQIGHeopCr7LLrsExYYO9b169Yq24wIve4oK0KE+ZIyQDySyRtFUkiwTY4yQRCEShyiQ3qhRo6DnwiYvDgEjw+Jws7+qAAJ0nCBBhGzJGL/8efmnHepDSwYWLlzo3I7ECGPEIhXUoyMEi1DJMsQIIULipXSoj7HKDp4Bas/eddddatq0aQWeHLtkPggYGeaDkv2mogikZcWoNRpzY14ar6aC+lAxwrRDPR8Fo0aNijZGSMsh4mKhPwogQgT1NOaNkQiR0ZA4lBbdDvVRUNEHtEoubmRYJRtZrbeRCuohQiQUMZZYS3WE9J0L3Zh37ty5Il4KEcaaNZqWWCNxKNTLP+1QT4m1CRMmREmE6AhJlknbMIXKoK3WZ7/c92VkWG7E7Xp5I5B2qEdQj4spxpc/L7jWrVu7TuQI6kPJJ9LKMjEL6nET77rrrs4i5N8hiZAO9VwnVkE954B+hNahPu/HveI/NDKs+BbYApaFQKojhAjp7vD5559HB1Q5BfXz58932jkSML766qvosEgLTZPEQmWZkERIh3rkE7EL6iFCrGSzCKM7rstckJFhNvapplZZlwjREcYqqCdGiHWCKyxUiTU2nibFkAwJIrFax0gGaMyLRRhKSlK3skys/Qgpvo6gnv2yEmvZem0ZGWZrv6p+tRAh1VRwB8YsqEdHiLwDEgiVLAMWyCfOPPNM5w787rvvott/rOOUCJEOhOrEQYxw2rRpTqYRq6AeaxgipHkw3UnMIozuuK5wQUaG2dqvql8tL3/aMNGhHncghBDbaNGihQYNGuR0Y6GsoJQI+/bt69yBsQrqd9ttN5fNCRahBPVYhDNnzsyEoJ4kL86HCepje2pXvh4jw5VjZL8oEwII6vnyJ04Yo3YOGLAIhwwZ4l7+oeJiXCetLBOriJx7Rz6BxCO0oJ4O9bhg+SiIUT7BfoEBnUJMUF+ml0WAyxgZBgDVpiwcAbos8GK97rrropRP8KVP41XWh3YulEWIO3DBggVOr0iH+hg/CnD/EQ8joQcxeaiPArBASoLlCRYxEiHngPOAp2DTTTcN1pKq8CfK/qJQBIwMC0XMfu8VAdyBn3zyidARxlpijRceyTLU1yQmFNIdOG/ePNfxHCsj1qLbdFpARB5SR5iWWOOjIGZBPRjwUbDNNtsYEXp9M5R/MiPD8mNuV0wQ4IVHpuTNN98crWsUIqQfIWnyCOpDZY1i9WAFkTg0cuTIKOUTWMdIBZA1hC6xNnv2bGcdxy6ox32LztSSZbL/WjMyzP4eZvIO6vYjJFkmVskAL7q0sgwVRUKMukRIZZlYG/MSF6MrRMgYIVggqMfyjFVQzzmgPyXngrhpKJd5iLNmcy4fASNDOx1lR6AuEdLdIUZBPXGwuh3qQxEhWOAaxdVGh/pYBfXEBikMzr/pwBBiECNEUA8RTpo0KcoMWjwDuMrpUG9EGOIUVG5OI8PKYV+TV06JkBR0iDBWQT0xIAiKIsuhXKOpmxiSIS72zTffRHcmcI0SFyuXoJ54Kf0IlyxZEh0WxIohQuqh8qFkFmF0W1TSgowMS4LP/rgQBNKXP50nhg4d6izCWHWEyDsoKxZKRA5uyCfOOOMMJxmIUVBft8RaaB3hK6+84mQ1VJaJEQs8BbhGWWPLli0tRljIg5+R3xoZZmSjqmGZWRDUoyMkhklj3lBJEXwAQIQI6mPuUE9pNTJo+XeoDFpcowjquQ5EGKOUBLcwH0a8LDkfoaQk1fCMZ/kejAyzvHsZWvvixYtdFiKZozG+8ICSFx3dMaiqEvKFBxH269dP48ePj7Ireyqov+aaa4J2n+CjYM6cOTrvvPOiFdSnREhpwCZNmmToibOlFoqAkWGhiNnvC0aA7EjcS2gJYy0rhqCeGCFFt0PFgrIgqCdGmArqQ8sn3n77bZeUM2bMGIFNbINzQLwUtz4l1mxUNwJGhtW9vxW9u7RDPdq5WAX1uEIpqpx2qA8VI0QywMsfawtBfYzJMliECOpJYoEIQ2WNphYhiSixC+r5iCOZKqSnoKIPqV38FwSMDO0wBEEgTZYhEYUv61g71JMVeO6557rGvKGyRuvqCEeMGBGlprKcgvo33njD6RVjJUJkNJ06dfqlDZMV3Q7yiohuUiPD6LYk+wuq26GeZJQYReRph3r0YgceeGBQIsQixEUca2UZsCBJ5pJLLgkaL8UVStZoVgT1bdu2DZZElf2nvPruwMiw+va0oncEEb7zzjtKdYQxyidweeEaPf/8851FGEpQz0bU7VAf40cBVg8uUZrRhi66TT9C4rII6mP0FOAZQD7BBxJEGCp2XNEH1C6+XASMDO1weEMgtQjJGI25Qz0xIKwTkmXq16/v7f7rTpTKJxCrkyASY4wQi5AEEbI5Q8on0g71MQvqIb799tvvF9eoEWGQxyLqSYOR4VprreVq91Hg2A5W1GfAy+LSGCGJMsOGDYtWUL/FFlvotttuCy6oX7RokU4//XRNnDgxShE5FiHaOZJYQneoxzWKrCZWQT2JQnwY0UKMD6VQ+lIvD5pNEgQBGgacdtppTuLz448/5nUNihLm1XqcA8ZXN/X7SJ/mCzRUdlpeK7cfBUXg448/dr3+6OsWozuQm99yyy1dY96QNSX5KEiJkI4L+T5YQTdnqckhQixBklgoLhBSUD9r1iwXi8Q1Gqu+FPcwse3NNtvMskbLeRAjuBZnkr0npv+3v/2tIPd93mRY9z6J0Zxyyikufb1hw4YRQGBL8IUAL386TvDlj4QixlgQ94pODEE9JBAyOxBBPRbhuHHjoiTCVD6BxCNkcQGSZShAjgs21jZMfJxDhMOHD9eGG25oH+u+XgoZmIf3FpWPTjzxRL388stFlYUsigxTbNZYYw33QuIAQopmKWbg1KxgiRwouiwQf4tVPgHx4fpCL0a6fEgr6N1333XW1oMPPhhloelyCeo5F2TQxkyEnIO99trLfcBttdVW2X4QbfV5I4CnhrKQeLGQfZVS7KEkMkxXTNzm3nvvdW6Jxo0b530j9sN4EOCF99FHHzn3QqxESKy6VatWruMCWaOrrrpqEABTQT0PGP0IY+zNmFqEZHOWo7IM2alYx2AT2yBrlA8j3LdkFZugPrYd8r8eSI/m2VOnTtXJJ5/sxWXvhQy5VSp9dO/eXT179nTds9dcc03/CNiMQRCACPGv81WNhCJG12jaoZ40eTrUh8oatQ71/zpivHDSDvXUXS3lqzvIwZXcOSBZBlkN1XYsWSYU0nHMy7vqvffe+0XfSuNoT+dyMWT4uqStJXnp8Il1eOSRR6pLly6uJqJlnsZxiJa3ilQ+QUbm4MGDRQHu2AYvuLSyDEQYqrJM+rWJdRxrh3qwIFv08ssvD1p0Gyx40RA7hghjtAghQnSEVBziA9yIMLYn1+96SOR79tlnXbELEri+/PJLHxf4h6TnJD0BAe4rae+cnvg/JW3gY3YIEJErjTOPO+44bbTRRj6mtTk8I5AK6iHCWOUTqaAe12hIIkybFBOLjNU1mvYjBAtkFKESh1IdIdIEWlLF6ClIBfVIvUJmE3t+5Gy6IhDgPM6YMcPlp0yZMsXFrz30TaWS/JuSxkp6SNIbqTW4Vo4dO0n6naQDJHkJxpBg065dO/Xo0UPHHHNMETDYn4RCIGuCeiyAUBYhGCOfgGSorxljjBAiJEGEJJYOHToESxyqK6iPVUfIxzbnAYkXrlHzPoV6S1R+XhJkCI28+OKLLkvUk4fi04QAH5T0iqSvkBjWdY2uIonsl99KOi3HmNv5cp02atRIzZo10x133OEyAW1UFoE0Rog78L777otWUE9WIHFMEkRCdZ9gJ4iX0qE+ZkE9GdsksSAlCYUFrtHp06c71+jkyZOjLC6QCupJHNp2223NNVrZV0mwq3MW0TiTmIlkYsmSJT6u9VPOE/pXSddImioJUvyl19iy4oS/TtylZ+TeEydI8pYJAykS7CZbsUGDBj5uzuYoAgG+tigp1rt3b+d39+ByKGIVK/6T3/zmN+7jifhYyFgQ905XdtyjsQrqsQTJlASLkFYQMRn0itdff72vl4/XcwERYh3zkjRBvVdoo5oMC5BqZ8SskXp5Gp9JukDSeElfSIIY/9dYUdIM/w1LcaSkDp4W5KZBfsHDTTzR0qB9IpvfXMSAiBH26dMnyua8dKinsgwv/9Dngy9QCkgQj4htcO+tW7d2chcIMbSO99NPP3W6SmLInjL0vEHKvVNUAM3nBht4SW3wtjabyA8CX3zxhfsw5Vn0WN0I0vuTpD6SvltRxbV8M0gPzsUR/yipSc7EXM3Pret/+f2JB4V+2H2tO+vzxEqGqaAeF1jHjh2DxcXq7h8v/V69ejlrI6YBFhAhlhou0nI8G7GSIYJ6yj9SJ9c61Md0SktfC88f3qknnnjC1b2mpqiHgevzm8QVepGkl+q6Q5c3f75kyN+vn8szOFHSUZI285VkgwuMQHjnzp2dFCOkS8wDyFUxRUqGffv2jSZTsFyC+qU3MEYyxCLkWeCjALdgaOs4xSRGMuQjmQ8jLFYT1FfF6+eXm4AEKfqO54OsZQ+DOttfJ1mi90oalct/yVt/UQgZstZfSdpJ0rGSOkraVBKJNyWP9dZbT7SE4SXAoS/Hl3DJi87oBLFZhhAhe06c4KCDDgomqF/WdsVGhliESAWIYSKfKBcRgg1kSPji9ttvj8JNmnaoR0cIJvahnNEXzlLL5v3zl7/8RU899ZSuvfZa/fTT/wnfFXOjPyQkCKven1NGvJWPNVj3QoWSYfq3qyf6xENyqaldJK1RzOqX/hsIkNgIVWxItNl44419TGtzLIUA/nhihv369au4ZZgK6iFCOtSHbMwbOxlChMTFiJuELLq9vAciJjJMBfWcC2vMWx2vMJLVSI55+umnXR1RTy5RwFko6RFJ43JG2l8kfV8MYsWSYXotYojoEiFFhPv/Vswilv6btdde28UTKe+G+zSkvszHerM2B19mSCpIoKmkoJqPHyxC3OTUGq3EPsdiGZZLUL+isxqLm5Saszz/aCrNIsza22XZ60W+RG3bBx54QNOmTfOVIENcENH8w1SQkVRS+axSyZA7hwApE7+HpLOTeGLJO4h7aPPNN9fOO+/sNGC4T811WjKsboJY3KTIJ0gQISYUquj2yhCLgQxTIqS+ZkhB/cqwSMmQ+rSVktukgvr+/fu7BCJzja5s1+L+73ihHnvsMZeh/NprrzlXvIeBX/WZxB36lCSybvLqy7uia/sgw3T+/0iE+t0knSSJqjYlDx4GBPuHHnqoEx2X241W8g1EOEEMCTQI6skOJFOSbMFKfehAhugt77zzzorsFOeb2CDVbyDCUIL6fG6u0m7SVFBP7kDLli2NCPPZtIh/s3DhQpep/cYbbziXqIcPLAjvXUl3SJogaUGxLtFlweaTDJmf+ernFrqDpAuTJBsvrlNcaOuss44TYhNbslE8ApUmQ4iQmAFEWOkv/0qSITFCOtOTKQkRhhTU53NaKkmGECGVhkjeQWdazsShfLCx3+SPAAkxZ555pnOJfvbZZ75KqH0raXQuP+U6SW9LosB2ydZg3bvyTYZ15/53SUfnFtw/0Sd6uRYPDR0MSMW1btb5H9C6v6ykm3TLLbd0baJ48YUqNF0IKpUS3ZdbUJ8PJpUkQ87Dn/70Jyvqn89GRfobLD9q++Jp+fjjj32tEsKbm8j6ni80Q7SQRXghqJVckHJuNySJNusl8oxC1rjM366++uqugg1p1+uuu25F3Usl30yZJ6iEZZgK6ql7SaZwqA71hUJZCTIEC5oUk1aOjrBSLuKlsaoEGaYd6lNBfSxYFHqOavX3EOB3332nOXPm6KKLLnLxQU/FtMkI/ShXGvQ2STcllmBQmMtBhukNtM4l21yaqw3Hvynz5uXaxBaQCJB1Su3TGKyNoDvmYfJyk2EqqE+LK1QyLrY0fOUmQ84nGbQQIdZQTC//cmeTIp+gssxll13mPg7MNerh4S7jFLxH6DY/YsQI3XzzzfrmG5I7Sx4/Ujs/yQ4dkMQFS540nwm8EFI+F0p+U0/Sobkb7JnEFdcp4G+X+1NeKMgwDjnkEEeKa67prba4j+VFN0c53aSpoJ42LAjqKyGfWNEGlDObFCJEM4d1XK4Sa4UcPuI7iO7LUZs0FdQjn7DGvIXsUhy/nTdvniuhRhlDskQ9DEqofZh0laB6zBRJXlpV5Lu2cpMh6yKhhnJukCI1T9tIIhO15IHrlOwl5Bhkn8b01V3yzXmcoFyie17+xHdTIsQSiG2UK4GGRCGE9BdeeKEjwhitoHK5SVNB/VlnneWe1UonDsV2JmNeD70+hw8f7lp8oRv0VNCdEmovJD0GJyak6DU5Jh9MK0GG6bpoFUXWKRVsekii3IyX9Wy66aY66qijHCGiT7TxvxEoh5uUDxFcX6lrNFZJTDksQz4K0n6EyCgqnUG7vOehHGSInpSYcSqoNyLMxtuJ52T06NGuhNr999/vyyUK4WFWUj4N0fwbORXCz5VCxAv5lLj4tRPrEH3iyb4IkbgUVkm3bt10/PHHO1mGjX8iUA4yRD5BXIyYUGyu0brnIHTMsG6H+pCNeX2c7dBkyEfBvvvu61yxPJuxfhT4wLJa5iBBBjfo0KFD9fDDDwvtoKcEGfoLkhwzKVfBbEa5XaLL2p8YyJB1sQ66Ymwv6YpcnbkdfR0mSHCbbbZxRaCJJ9qXaFgyxCKkzQ5xp0pWU8n3/IQkw9Q1inUcOxGCV8gEGs4FH0Y0DuZ5tES3fE9o5X5HVwn6it59992OBMka9TCIAz6Qa/JwT2IV/t3DnF6miIUM05shnggp7ifpKkkNfdwl8RmSanBR8ZLeaKONfEyb2TlC1ialxBrCaYgwCy+8UGQYm6A+n8MaKoHGOtTng348v+GZeOGFF3TCCSeImqLffoveveRBgsyrSV9ckmOoI8r/L5oRGxnWBWaT3P9xcRJPJL7oZfBg0icOSzHGJAYvN7mSSUJlk+IaJcUayUBWXGAhYoacK9yAWEGV6D5R7BkK4SZNiRALY5NNNrGktmI3pwx/h0v0xx9/VKdOnVyLJY/jE0kDc8bN7YX0F/R4/bymipkMuQEsxT0l/UFSW0mr+Yop0hmDKja49HCl1lLmqe9sUqwg9J7Egvbbb79MFUCADE899VRX5s/HgAhJHIIIY9MRruz+fJNhKqgndoxrtJaesZVhHdN/hwA///xz3XXXXbriiit8dbIhOebzpKUSpTnfjM0SXHoPYifDdL3k5J+WM7O7JsXAV/VxmNIK+XQLwL1XK0k2PhNosAARkYPhAQccULHuE8WeB5+WYVpi7brrrsuURZhi55MMSZrCwqA3I1ZyrXphij2X5fg7zv6iRYv0/PPPu2bSs2bN8lFMm6V/IWlWrlnDjUmfQS/de0NjkhUyBAfWSuWac5J2US19lXajck2PHj10xBFHOAunUu2EQm92Or8vN2nsgvp88PQVM+SjgN57sQrq88HCVwINOkKIkA8kMMlC7DgffKrpN4sXL3auUOrBjh8/3pc1SHCRzFAa7d4qCf1g2fWCxe5TlsgwvUdcp/ROPDLpioGA38t9tGvXzlk3PXv2VJMm9C2uzuHDMkwF9eecc06UlWXy3TkfliFESMIQPfhirCyTLxY+yDAlQs4FgvqsxI7zxSjrvyMuCKdV5HgAAB9ASURBVAlCgKNGjXKWoYeB5fdWLpSFYH6EpNclZcIarHvvXkjEA5iFTsG6EQ7ulfNFH5Er4bNvrrXHGoVOsqzfY+107drVuXYoAl6ND3OpZJgK6ukvycdDjJVl8j0LpVagSRvzIiInWznL0p1SyRBtL4J6nhurLJPvCSzf7+gkQa9IyHD69Ok+XKJYfSTH0Gn+oaSU2lfluyO/V8oqGaYo/EpS0yTJBsE+RcBX8QERpd32339/HXnkkTr4YKrGVc9IE2j69u2rH374oeAbI2uUh4oXX8yC+nxurBTLsC4RVroxbz73urLflBIzTAX1dC6g6lOWPwpWhlPW/vuSJUtEHBsSfPLJJ32VUKOg9tOS6Io9NddiCRMzMy7RZe1h1skwvScSapBiHJZknnopgknQH00iL33iH1tssUXWnoNlrreUbFKIkH6EWRCR57NZxZIhL/+01mi1YFEKGSKov/HGG7X11ltbjDCfg1eG3+ASnThxonte0Q1+9dVXPqxBVk63+csSMqTDROZcotVMhum90RWDJBsE+4ck0oySjx0p4g0bNnTaxJNOOinzCTbFiu6zJqjPZ+OLSaCBCIkvX3755e6joFqsoGJE93V1hBtvvLFljeZz6MrwmwULFrhkroceesiRoKcSavRoQi84KOk1WLhbqQz3XuwlqsUyXPr+ua92SQFY3Kje7rNZs2YaOXKkcwVlNV28mGzS1CIkQaSasgMLtQzZc6Qk6AiznCyzrBdGahlSpQmrYmUjJcJ77rnHCeptVB4BvD4U1KZ6DP/b08AlOjlnAf53rtvQzNj1gsXeszeSKHYBgf+OJJsTkgLg1GDz0iqKNR9zzDGuszNu1Jia1eaDZyEJNFkW1OeDRSEJNCkREn/JmqA+HywKcZPiLenYsaOuvvpq5xrN6odhPrhk4TfUEaV0Gglt77//vo8l8zVEHVE6SdBpfqwkL3XZfCwuxBzVToYpZmgSEe3vIwlSJPHGy+ArmtgRllNWMk/zJcO0Q33W5RMr2uh8ybBuh/pY+xGWeqDzJcNUUE8B8jZt2lSVp6BUDMv997hA58yZo5tuuslpBj0NLEEqxiCVoLOEF3b1tLZg09QKGQIg9U2pYENq6P656ghr+UA1Lb+VNipt3ry5j2mDzpFPAk1aWSbmxrw+QMonZpgK6qlpy4dPtZYVy4cMUx0h8om2bdtm5gPQx1mJaQ6ywGfOnKlJkya5UoIffPCBj+VhDZIc80xCghTWrlh/QR83VMgctUSGKS6rJ67TTpL2TkiyEMyW+VukGFTdOProo50LjdqnsQ7I8L777hPSCqzEpUdqBfHCO/DAAzOtI1zZHqyMDFNBPS7xarUIU4xWRoZYhKmO0IhwZScrzH8nlktyzNixY11s8KWXXvKVHPOppMcTzeAESd4CjmGQ8D9rLZJhiuJWkrokcoydfEG7+eabO+uhd+/e0bqQVpZNuu2227pqKlmsNVroPq4ogQY3MQRYDYL6fHBZUTZpKqhHYmREmA+a/n+DXpDsUP6ZMmWKr27zfA3TogLRPOL5D7OuFywW+VomQzBDn0hD4cOTVlFe+ifiRiPblH/IOsRqjGmsKJuU2CdJEVgA1V6jlT1ZXswQizAlQj5uspYkVcx5W14FGkIBdKin6DZnOiux8WIwiPFvsAZnzJjh8H/llVd8JcjQS/BtSUOTWqJzJf1fN1GMgARaU62TIbCmpd22TZJsOvvKOuUFSuua7t27i9hbLBl3y4sZoiMcOHCgKytWCy//5ZFh6hql3ByVZWrhowAsluUm5cOOrFEyaMkaNSIM9CZezrS0VjrzzDOdO3Tu3Ll5SV7yWCEt6+k2T5boPEnoB1eupclj4iz/xMjwX7tHAXDqmx6QdGPe2NfGknSANg2Li5drpceyyrFBhGSkZakxrw8cl3aTEi+l0wJ93bAIq0VQnw9WS1uGECGVZQYNGqSmTZtG8zGXz71k/TecS55HqscsXLjQNd31NEiK6Zd0lzASrAOqkeGyTxjuUxoKn5vUOvWCE5bhySef7CpDNGjQoGJZiXXdpDxkdTvUV5OgPp+XR90EmjQzmJcQHy3VmjW6PFzqWoa45nATDxs2TFSWsVEeBDiP06ZNc54kj93m00a750m6p1pF86XukJeXfKmLiPjvKUaKzmaHXBki0kOxHkseG2ywgbM8SFChzFu53aeQ4f3336/TTjvN1Vu99NJLXUwIIXWtDV76ffr0cdYPiUPVKqjPZ19JoKHEHB3PIUI61OMxqLWPgnyw8v0bpBLz588X1XxuuOEG/fSTl3KfmJNkiZIcc12iF6x5d+jy9s7IcOWnGiuROOLpklr50idyWV44yBd23HFHrb/++itfiadfUKfwueeecw8eHTn222+/momLLQ0hZMiHAb3dqD1LvLRWX/7fffedw4H41IknnujamNWap8DTI5b3NJw/RPNTp04VWmU+SDwMtIEfJy2V6CrxbK0nx+SDqZFhPij98zcUX/zPRI5Bsg1Fwb0M9H6dO3d28ZlyJa7gHuVrlOvVelIEWJC2vsYaa9QsEaYHmXgyrjqShsrtsfDyMGVoEsqm8eGBJUhXCU+D7vLPSRqdlFD7wtO8VT+NkWFhW0wZtx0lHSTpaEnegimNGjVy2kSSNvjHXkSFbYz92hDICgLffvutJk+erHHjxmnMmDG+9IJYgy9JelTSg7kP9/kWGyzsRBgZFoZX+mtcp5R02z3nhz9ekhchYVoL9He/+526deumzTbbrLjV2V8ZAoZAdAgQnsASpOvNo48+qnfffdeXVIISavdJmiTp5WrpL1juDTQyLA3xdQn9JYRIXNELnpRya9Wqlcs87dq1a1WXQysNfvtrQyAbCJCpe8stt2jChAmaPXu2C1F4GF8lViCawb9KwkVqo0gEvLy8i7x2tfwZGaabJnVOSbKhzJsXXBs3bqwtt9zSpbc3adKkWvCy+zAEagYBEmQon4ac6p133nGNdj0MXKIEGRHNEx8kY7RmCmp7wG+ZU3h5aYdaXMbmRZfQWNIZko7z5ToldrjOOuu48mgU17bsvoydCltuzSKQ9hfEHfr1196Mtk+SbvN3S/rcXKL+jpeRoT8s05nAtE1yYCkA/u++LrHeeus57VePHj0cKdaqBMAXnjaPIeAbASxBEmTQ8CLZWVZXmCKvifCQ5JhTJdGvyfSCRQK5vD8zMvQMaJ3pcJ8em1Sy2dCXFAMC3GuvvXTZZZc5kThFwI0Uw22izWwI5IMAyTF0m3/44Yc1YMAAvf02NbBLHhAeJiWTnS/piZJntAmWi4CRYfjDsU4uxfminG+f/oktfFmKaOJOOeUUHX744Y4Ua6WYdPjtsisYAoUhsHjxYlc6jSIW48ePdzpND4O6oXMk0b7+3lzRj8Ue5rQpVoCAkWF5jgf6RFynfSVRqRsBv5fSbs2bN9epp56qffbZx5XOsmEIGALlQQDSQy8IEd54442igo+HQZop7ZRotItc4nVLjvGAah5TGBnmAZLHn2Al7iPp0MRSpN6pl7H//vu7+qLEE9ddF8WHDUPAEAiBAHFB+go++eSTuu222/Tee+/5uAwu0Y+S3oJjkoa73/qY2ObIDwEjw/xw8vkrMEdNj9v0REmtJWE5ljxwlR5xxBHOSjzssMNqsvB2ySDaBIbAChD4+OOPNXz4cOcOpb4vsUIPA2twXPLPnxNStAQZD8AWMoWRYSFo+f0tWaYU/m6baxN1eU4zhNVY8kCKgSYRK/G4447TzjvvbAk2JaNqE9Q6AtRsRTCP5vfFF18UTXc9DIKLr0m6WdIzOUkWJqYXdvWwtpqbwsiw8ltOaTeCfack+sRVfCyJAtz0oTvmmGNcog2yDBuGgCFQGAK4RN966y1dcsklLjb40Ucf+UqQQR4xMHGL0m3eS0mawu7Ofl0XASPDeM4D9U23y2WbXpHUPPWyN/Xq1dNaa62l0aNHq127dmYlxrPftpLIEaCbCTKJgQMHusoxnnoMfp90k7hW0htJayVziUZwFry8cCO4j2paQv0klkhX6g18ZZ0CEP3pnnrqKTVo0MAq2VTTibF78YoApDd9+nSn56W1l6eB+3N2IrN6xCrHeELV4zRGhh7B9DwV8osLJR0gqaEvUsR9Sv/Efv36qWHDhpZk43nTbLrsIkDJNEqnnXHGGXrmmWd8JcfQbX5RLhQyStKAXLnGv2cXoepeuZFh3PvL/tAqCn3i9gkpelnx1ltvrbPPPts1FCbhxvoneoHVJskgAlh/FNEmOWbIkCG+us2THENCDD0GL0tcohlEp3aWbGSYjb2uJ6mnpEMktZe0mo9l0z/x4IMPVvfu3Z1LyPSJPlC1ObKCAKL5BQsWOJnEiBEj9PLLL/voL0j8j2LaL0oaliu28XCuJCPWoY3IETAyjHyD6iwv1Scekwj3qWjjpQg4JIg+kd6JdMewWqfZORS20uIQoFoMluCUKVNct3lPekFKqEGC4xPNIO5RS44pbovK/ldGhmWHvOQLYiUi1O+Wc70cLmnjkmdMJqDG6R577OFiii1aUEbVhiFQXQgglRg3bpweeeQRjR071hXX9jBIjnkr18t0ZNJZgixRk0p4ALacUxgZlhNtv9dCOLhjok0kyYYs1JIHscP27durU6dOOuecc4Q0w4YhUA0I0GH+5ptvdmXU5s1D2udl0FVicK6ABiXUZkry0r3Xy8pskoIQMDIsCK7ofkwZNzJNSa65TdKmPlaIm5SuGG3atFGvXr1caTdznfpA1uaoBALffPONbr31Vtcce/78+aKajIeBNUgx7auS5JgvzCXqAdUKTmFkWEHwPV4aUqTodw9JV/q0EuvXr68uXbro4osvFh0ybBgCWUGAOCC6Wjwcc+fOdSSIm9TDoLXSH3LFMaYkUgkvPZs8rMumKAEBI8MSwIv0TxtJuiHpjEFpNy97/Ktf/Uo33XSTjj76aK222mpmKUa6+bYsuXJpn376qes2P2oU8j4vA8IjwDgoV0f4pqSYtpeJbZI4EPDyoozjVmwVdRD4taR9JZ2TlHij1JuXvd5kk01cabdNN91U66+/voFuCESDAJbgBx98oIkTJ7okMMqpeRgpCT6dkzRdI2m6FdP2gGqEU3h5QUZ4X7akfyKA6/TkJOt0a0kUBfcyDjroIJ1//vnaaquttPba3toyelmbTVJbCOD6XLhwoWbOnOkKSeAS9TRIjpkmaXiSKWr9BT0BG+M0RoYx7orfNbHHJNgcnViLdMjwMijnRpsoiHGHHXYQpd5sGALlROCzzz7TtGnTNGjQID3++OO+aoliUr6SK3AxOUlM+9iSY8q5q5W5lpFhZXCvxFX/LVcaqnOuf9rBkrpK8uLjJMuUrNNu3bq5f5o1a2al3SqxuzV2ze+//95VjKFyDJpBLEMPA5coZuWkpJboVCNBD6hmZAojw4xslMdlrivpwKQAOP/2IiQkqQbBPlYiSTZkodowBEIgQFzwxhtvdMW0IUQSZjwMuvXSTeIhSc+aXtADohmbwsgwYxvmablkmdIVA7H+cTnBcCtfXTE23HBD5zIlnR1ytGEI+EKABJmrrrpKkydP1tSpU325ROkv+HyuktPdkv4iiaa71m3e16ZlaB4jwwxtVoClYr4h1CeeeKIkrMaSB65Tsk1bt26twYMHa5111il5TpugdhEgQYaqMVdeeaVeffVV/f3v3rogUTv0uqSW6N+shFrtnjHu3Miwtvc/PQNkvqCop4rNrr7OBdrEjTbaSCeffLLL8qNLhg1DoBAEPvzwQ5133nmaMGGC6zbvySVKgsyQpL/gR0m3+UKWZb+tQgSMDKtwU0u4JZJs9swR4/1Jgg2VbbyMnXbaybm4OnTooFVWWcVE+15Qrc5JsAS//fZbVz6tf//+TkDvYVB65qdcvPxlSX1ySWSvWnKMB1SraAojwyraTI+3skbua/l8SUflrMUNcl/QXjQTWIqnnHKKTjzxRP3mN7/Rr39NbQAbhsC/EFi8eLFee+01p2F98UW6IZU8IMHvcqUK35Z0i6QHJNFqyUtdtpJXZxNEg4CRYTRbEd1CsBK3y5WgOi2XXffbXBmqxrmO3V4sRYqA33LLLdpuu+1E2yg6ZdiobQSoGzp9+nQ98MAD7mx4coeSHPNOkiVKggyE6CX1tLZ3qzrv3siwOvfV512tlhMgd5HUXdJuubqMZMN4OTctW7Z0FkC7du20+eab+1yzzZURBH766Scnmn/ppZd00UUX6euvKfriZZAQ81hSOYYsUesv6AXW6p3Ey0uteuGxO0sQ4Jw0WYoUvZwd9IgHHHCAE+zvu+++WmuttQz0GkCAuCA9BakaM3ToUOcahRg9DFygE5N/xiVdJTxMa1NUOwJeXmjVDpLd3y8IcF7aJG7T43M1G1v4wAYpBgXA9957b/Xs2dNZisQXbVQnAmSFUjVm+PDheuGFF3x2m38uiQlChpSksbhgdR6hIHdlZBgE1qqflISatomlSCFwEm5KHkgvSKzp2LGjzj33XFH71Eb1IIA1+Prrr+vCCy90luB7773no78ghAfx3SNpQs6dP9tcotVzZsp5J0aG5US7uq7F2aFdRTtJvSXtI8mLkBDXadOmTXXWWWfp2GOPNRlGFZybJUuWOL3pX//6V7377ruimoyHQReJMZLukPS6JAKOZg16ALYWpzAyrMVd93vP+DPpl0iCDd2/qWjjZUCKjRo1coLrrbemA5WNrCGANXjHHXfosssuc3pBT3FBMkIhv4skPSlpiWWJZu1kxLdeI8P49iTLK6ITxoCEGL01FKY1VPfu3TVw4ECtueaaFk/MwAmB9Ogv2Lt3b1dHFFL0MCBBEmSuTDSD1l/QA6g2xT8RMDK0k+AbAc7UNknh4y0SV6qXc0a9U8q6kXm63nrruUo2NuJCAL3gggULdOedd7oeg999h9695EGaKWVonsrFAy+Q9H7JM9oEhsBSCHh5SRmqhsAyECB++J+5FxdZp5BjAx8okXnauXNn11R4zz33dEXA+f/ZqCwCWH7z5893BbUpuwchehhYgpAgfQWpm/u01RH1gKpNsUwE7C1iByMkAqk+EUKkd2JLn6XdTjvtNNcmav/99zcrMeQurmRuus1PnDhRI0eO1KRJ9MX1MmhNMS1XBWls8g8Ftb34Wr2sziapOgSMDKtuS6O8IaQYOydSjEMkNfXVP5EEG+qd/va3v3VFwG2UDwFcouPHj3dNdmnV9eOPNIMoeZBmSnLMg4lU4s2kwHbJE9sEhsCKEDAytPNRTgRwle4u6QhJh0qq5+PiCPTbtGmjQw89VL///e+18cYb+5jW5lgOArhEn3vuOY0ZM8b98/777/tKkMElelcSG6RKt5eAo22kIZAPAkaG+aBkv/GJAGduk5w+rFXSGWMXX5NTyo3i38cff7zLPiUL1YZfBBYtWqQhQ4bowQcf1Ny5c/X999TCLnlQN3S0pKGSXkpKqJlLtGRYbYJCEDAyLAQt+61PBGhVgSYRsf5lSf/EkucnmWaDDTYQ/RPpjE4xcEuwKRlW5wIlLkgx7YULF/rqNg/h0V/w+lyJv2clERe0rhKlb5fNUAQCRoZFgGZ/4hUBsk6JIfaTdIKkVX3Mjut09dVX1wknnKABAwaIUm82ikPgk08+0SGHHKIZM2Y4qYQnzeDniVYQt+jHFhcsbm/sr/whYGToD0ubqTQEsBQ75RJrLpXUOint5uV80kR47NixruYp/9ssxZVvFP0EcYGeccYZTi/oiQCxBKkWMyWpVjTLMkRXvhf2i/Ig4OVlU56l2lVqBAH6J1L8+zhJzXPVRn7t475pINy2bVtXGowOGWuvTVlVG0sjAAlSNu2pp57SBRdc4FyiHgYkSLUYmutek2SKeunX5GFtNoUh4BAwMrSDECsCuE4vkbRT0irKS08nkmyOOuooJ9pv0aKFVlsN7rWB5ff555+7bvN0mn/sscd81RHFEnwr6TZ/g6QvDW1DIEYEjAxj3BVbU4oArtPdJJ0oac9c2v1GvqAh6/TII49U165d1bx585qud4o7lL6CFES/7777HCl6GIgOsQT/nGsMPVjSDEuO8YCqTREMASPDYNDaxB4RWCv3MkWs30XSXr5Ku5FkQ/UayrqdeuqpNSnFQB4xbNgwR4SzZhHCK3ngEiUrdHIil3jGWiuVjKlNUAYEjAzLALJdwgsCuEk3T6QYx0raPifJ8OI6Jev08MMPd6R49NFHe1ls7JOQFXrdddfp+eef1xNPPCFihR4GLlHqh47IfbRAgovMGvSAqk1RFgSMDMsCs13EIwJILyj8jZXYy5c+kfU1adJE++yzj/r06aPWrUlorb5Ba6URI0Zo9OjRmjJlir7+mn64XsY8SVdL+kuuQPv8XLaol9psXlZmkxgCeSBgZJgHSPaTKBFYM6lkc7mkrr5WiPSCbFPiiaeffrrrilEtA53gtdde6yxBimt76jYPm94k6U+SaFXxj2rBy+6jthAwMqyt/a7GuyUdtI2kOyVt5esGIUX6J950003OWkSakdWB9Xf77bfrj3/8o7MEPXabn5Bk/JItaiSY1QNi63YIGBnaQagWBCBFKthclCTYeIknAg5JNgjPGzZsmKlWUXSVeOONN9SlSxd98MEHvvYZfSAu0SuSBBnihDYMgcwjYGSY+S20G6iDAOYb8cQzJe2bawi7ga8kG6rWXHPNNa4sGV0xYi7vhvUH+Z100kl69llKfnoZxAD/lutJ+ZCkgZJgVyum7QVamyQGBIwMY9gFW4NvBChESoINVWzoiuGt3Ezjxo11ww03aIcddlCzZs2iKu2GJThnzhyXHDNw4EB99dVXPnCF8MgK/WvSbZ4sUSNBH8jaHFEhYGQY1XbYYjwjsH5CiB0T0b6Xat2rrrqqq3NKEfBddtnFuU8rOZBFzJs3T5MnT9bdd9+tmTNn+pJKLE6yQ7EG+cf6C1Zyo+3aQREwMgwKr00eAQKccWqcIiDEWsSN6iUbBiuReGKPHj0cKVaif+KXX36pcePGuY7zZImiH/QwSIbBEpyUS0oaKel9D3PaFIZA1AgYGUa9PbY4jwigT+xAPkyuVubvctmnjXzMTSwRTSJu00suuUQQZLkGxbQHDx6sZ555Rh9++KGPy6K8p4TaA7nOIeMlvZ5rwOyle6+PxdkchkBIBIwMQ6Jrc8eGAOd93SSOSL1TGgv/h49FIr1o3769dt99d0eKq6yyio9plzkHyTG0VqJ82ptvvunrOhTQhgSpHjNTEi5Siw36QtfmiR4BI8Pot8gWGAABmIpA3x6JFKOFL5kRpd0oAn722Wc7SYPP3okkyKAVHDNmjGbPnu1LNA/hvZToBek6/4WVUAtw4mzK6BEwMox+i2yBARGAFBskhNjXFyFCgLSGIp541VVXqWlTulEVP2ivNHHiRPXv399Zgz/++KOvZrt0mD89iQ1SScZLgdLi79T+0hCoHAJGhpXD3q4cFwK4T3ET7po0FPbybJB5OmDAANc/EauxkEo2lEujue6VV16pIUOG+CJACO+bXNHzYZIoZQch2jAEah4BLw98zaNoAFQLAkgvDkxchptIov6pl2dk2223daL9Nm3aaL311lshXkglFixYoD//+c/q27evrwxRSJC44PNJt/kXJVm3+Wo5uXYfJSPg5UEveRU2gSEQFwJkmvZMsk6JJ5KJ6mX07NlTxxxzjHbccUdnKS49IEHigf/1X//lMzkGF+hrkoZLGmXJMV620iapMgSMDKtsQ+12vCGAFrG9pCMk7Zf0UvSiT4QEzz33XO22227q0KGDaDKMXvC5555zneZJkPHUUQJrkA7zj+a0lvdLmmMZot7Oh01UZQgYGVbZhtrteEeAAuDUOUWf2MOXlQgBbrPNNjrssMNUr149vffee44EkU2QMONhUELtQUl0lqDHoLlEPYBqU1QvAkaG1bu3dmd+EcB12jknRD8sF3fbO5d84kVIiB6Rot/ff/+9rxJquETHJST4uCRv3Xv9wmmzGQJxIWBkGNd+2GriRgA3KaXdqHV6Wi4GRzwxlkFXiamS7pb0VFJc++dYFmfrMARiR8DIMPYdsvXFiEC9hAiPTRJt0CpWaqRdJe5IpCHUEbVGu5XaDbtuZhEwMszs1tnCK4wAzw6l3LbLSTCul9TOVwHwAu7rh6SGKA2N35GEdegl4FjAGuynhkBVIGBkWBXbaDdRYQTQJ56QS1L576TM268CrwcSpNt8r0Q3aO7QwIDb9NWPgJFh9e+x3WH5EECPeJukTklXDC9JNnWW/22uP+N7kgZLwi26xCzB8m2uXam6ETAyrO79tbsrPwI8U21zcbvzci7M1pKoZFPqc4YluDDRC0KCtFmyOqLl31u7YhUjUOpDWsXQ2K0ZAiUhsEZS2o2mwjtLWruI2SA8GhU+mWgGn7Zu80WgaH9iCOSBgJFhHiDZTwyBIhFAirFFUsGGSjY7JkXA85mOprpPSHoo6SrxqblE84HNfmMIFIeAkWFxuNlfGQKFIEDssE3STLhPLq64wUr+mDqixAWxBN8yl2ghUNtvDYHiEDAyLA43+ytDoBgE6IKxfVLF5hRJZKHWHTTWvTlHnA9LmiWJWKENQ8AQKAMCRoZlANkuYQgshcA6CSn+XtJaSYLN3CRBZqakrwwxQ8AQKC8CRoblxduuZgikCBBPRLSfPoMky2AJWpaonRFDoAII/A+O7iu+wwm7UwAAAABJRU5ErkJggg==;rounded=1;" vertex="1" parent="1">
                    <mxGeometry x="404" y="269" width="92.8" height="107" as="geometry"/>
                </mxCell>
                <mxCell id="16" style="edgeStyle=entityRelationEdgeStyle;rounded=1;html=1;exitX=1;exitY=0.5;exitDx=0;exitDy=0;entryX=0;entryY=0.75;entryDx=0;entryDy=0;fontSize=16;fillColor=#0050ef;strokeColor=#418bcb;" edge="1" parent="1" source="11" target="14">
                    <mxGeometry relative="1" as="geometry"/>
                </mxCell>
                <mxCell id="14" value="" style="shape=image;verticalLabelPosition=bottom;labelBackgroundColor=default;verticalAlign=top;aspect=fixed;imageAspect=0;image=https://www.worldbank.org/content/dam/photos/780x439/2021/apr/Shiny-logo.png;clipPath=inset(0% 21.67% 0% 21.67%);" vertex="1" parent="1">
                    <mxGeometry x="579" y="332.36" width="105.9" height="105.28" as="geometry"/>
                </mxCell>
                <mxCell id="17" value="&lt;a style=&quot;box-sizing: inherit; background-color: transparent; text-decoration: underline; color: rgb(25, 25, 112); transition: 0.2s linear; outline: 0px; font-family: Verdana, Helvetica, Arial, sans-serif; font-size: 17px; font-style: normal; font-variant-caps: normal; font-weight: 400; letter-spacing: normal; text-align: center; text-indent: 0px; text-transform: none; word-spacing: 0px; -webkit-text-stroke-width: 0px;&quot; data-featherlight=&quot;image&quot; href=&quot;https://logos-world.net/wp-content/uploads/2021/02/Docker-Logo.png&quot;&gt;&lt;img style=&quot;box-sizing: inherit; border: 0px; height: auto; max-width: 100%; vertical-align: middle; clear: both; text-align: center; display: block; margin-left: auto; margin-right: auto; cursor: zoom-in;&quot; height=&quot;394&quot; width=&quot;700&quot; alt=&quot;Docker Logo&quot; src=&quot;https://logos-world.net/wp-content/uploads/2021/02/Docker-Logo-700x394.png&quot; class=&quot;aligncenter wp-image-28073 size-large&quot; decoding=&quot;async&quot;&gt;&lt;/a&gt;&lt;em style=&quot;box-sizing: inherit; font-style: italic; caret-color: rgb(0, 0, 0); color: rgb(0, 0, 0); font-family: Verdana, Helvetica, Arial, sans-serif; font-size: 17px; font-variant-caps: normal; font-weight: 400; letter-spacing: normal; text-align: center; text-indent: 0px; text-transform: none; word-spacing: 0px; -webkit-text-stroke-width: 0px; text-decoration: none;&quot;&gt;&lt;/em&gt;&lt;br class=&quot;Apple-interchange-newline&quot;&gt;" style="text;whiteSpace=wrap;html=1;fontSize=16;fillColor=#FFFFFF;" vertex="1" parent="1">
                    <mxGeometry x="383" y="492" width="144" height="82" as="geometry"/>
                </mxCell>
                <mxCell id="11" value="" style="shape=image;verticalLabelPosition=bottom;labelBackgroundColor=default;verticalAlign=top;aspect=fixed;imageAspect=0;image=data:image/png,iVBORw0KGgoAAAANSUhEUgAAAPMAAAEYCAYAAACJAsDKAAAAAXNSR0IArs4c6QAAAERlWElmTU0AKgAAAAgAAYdpAAQAAAABAAAAGgAAAAAAA6ABAAMAAAABAAEAAKACAAQAAAABAAAA86ADAAQAAAABAAABGAAAAABVii70AABAAElEQVR4AexdB5wURfb+NszmzO6ysOyyS84gUXIQxZwVzOnUM51/s553Zk89zzOiZ5YTczoxYUBBlChIznmBhU2wOc1s/7+vhxp6R5C0RKd+v57u6VBd/aq+eq/ee/UKCKQjiQIufky444OyjzrqqDE9evSo6N69+5s838pca9Wqle7T/YEUoECAAocQBUJYlkhHeeJ79ep1a8+ePdfynGU2gnpd79697+D/RMe9ek7PB1KAAgEKHEQKBPHdEdy0t1ObNm1GDRgwYCr/2CA+4YQTrOeee85z6qmn1plzut6xY8dR3id8v/Xy8Z0NHAQoEKDAfqdAGAEZ5nhL30GDBr3fvHlzHycePXp05bp16zx1dXXW+vXrPf/5z3+qeL99vWnTphZB/VFoaOhAkwc5t7+Ybi4F9gEKBCiwHygQyjydInXW0Ucf/QSBWMjzNlDvuuuuqrlz57oFYmfS/4ULF7rvueceH6g5pt7K55/hsy0dZRWX1nsCKUCBAAX2AwWCmacTxJFdunT5S//+/ZfyvA3ic845p2bixIk15eXlPgy73W7LbOZkZWWlNXny5Jrzzz+/xjzbr1+/lQT2Lfwfw80kvU/vDaQABQIUaCAKRAwZMsTHKSkin0aRelJkZKQN4ujo6LoPPvigKj8/38eKPR6PDWIDYO11TptJBQUF1scff1zdokULD8tp5zVw4MCfMzMzzzblZgch5Zg4dSAFKBCgwD5QwJWVleUEUndy4rc6derk46hPPfVU1apVq7YjlEgVJ/695H99zZo1HirJfKJ3u3bt3BxPv89y9zFl32bKco7RzaXAPkCBAAV+hwL+pqbGHBM/2rdv3818xuag//d//1c9e/bsWiYfbgVS/3Gy76Lfge5zglrHHGfX3nbbbdXmHX369Cnge//F/+mOskr0DpiyHAQJHAYosCMKyMQksBhTU1Dr1q2vJpdcwHM2iI855hj3d999V1NaWuqDp7/47LuwGwf+z5aVlVnff/99zUknneQ27+T7l5Bb38D/TicTZzl5KZACFAhQwFAg3M/UdDxB9K3T1DR27NjqTZs2+cbF/tx1N7C701sEaidX1/j73Xff9XHpJk2ayJT1Q1RU1MmmwAFTlqFEYB+ggJcC/qamDhRvXyNQKnjZ5saPPvpozYoVK34zLnaCb6co3YMLO+ocVq5c6XniiSd8oKbGu4qmrLEsWxdHBYpL+xR0jvOBwwAF/hAU8Dc1JZAzP0AF10Z+vQ3iq666qnbmzJm1NTU1Pkj6c1DfhQY8EKj1HpM0Ltf4/Lrrrqs1ZaMpaxPL+wj/JztqS6AOmLIcBAkcHvkUqGdqSktLu4wi7NygoCAbxF27dq0bP358TXFxscGTLQI7Aea7sB8P/DsOjdO/+eabGgLZ6Rq6sFmzZleZKguYsgwlAvsjnQL+pqYhFKnHk8PZIObHW6+++mpNbm7udrZIsB5oEPv3D/7v37x5c92YMWN85jEqxyyK3t+x/MeaCtxmUguYsgxBAvsjhgIy5UQ5vqYlvbdeIpDLeM4G8t///vfaZcuW1TMQ+3NGf5AdyP/+orfezXG8+8EHH/SJ3pyRVdGtW7fX+U1tHN8q0TtgynIQJHB4eFLAmJpM6SPJse6imJrDEzaIKZZ6pk6dWltVVeXD5qEEYl+hth34g7q6utrSuP6CCy7weZHx+zbSq+wefmOs+XDuA6YsBzECh4cXBfxnNY2kKDqLrpI+kfrTTz+t3bp1az1Tk79I6w+mQ+W/f4dTUlJS98UXX9Ry/Gx/n0xZ/N65ERERF5pq22Z6cwZPMJcC+wAFDkkK+JuaetOcM46bT2nEqYm1GzZs+M24WFzvcEv+nY/G+y+++KJP9KYyz+K3f8ma6u+orYApy0GMwOGhRwF/kbopAwU8R+5UzKLa3Ormm2/2LFq0qN7URH8Od7iBWeX1F731f+nSpe4777zT50VG/UBp27Zt/0NaNHdUXcCU5SBG4PDQoED4NpOMShOSkJBwE0G8hsc2iI899lhNOXRr6qFJavCHIyc25d/R3v+bpAeYMmWKm66hPqmEdFmfkpKi0EVG0y3lmHMyCf8GUoACB54C8lV2NsTT6Lk1vX379jaIec16//333Vu2bKknP/uLpjsCxuF8zv/7pBfgVEsfl6bEYpFOs0gf31RLHgcCDJIIgXTgKeDvvdWZttYPGUDPx4Eef/xxT05OTr1xsT/nOpwBu6uy7+hbpSd4+umnfaAmoK0OHTp8yurr7qjCgCnLQYzA4f6lgJMTJzJQwL9oX93KV9rcmC6YdZxKSOa0Hcc7ati7AsORct3/2/V/wYIFnhtuuMHX8XE8XUI6Pk0apjiqTnQ2s8ccpwOHAQrsOwU0xjPjPOV2NWNRr0xPT7dBTGcJi1MTNS6uJ1Kr8QaSV0nmpAXH03U//PCDm5FNbPqlpqZK9F5LumqqpUkaxjhpbs4H9gEK7BUF/BU0w2kv/UkmF+Zmb2+88YansLCwHmqdDTcA5u0U8KeL9AlvvfWWz+Gkc+fOFjeFCj7BUVvi0oFZWQ6CBA73jAIS8ZwidWvOLR7LcbGv4d13330ehdzZ3lR/y4Gc1wLHXgoI0P6gVkjgf/zjHz7aks5Wdnb2e6yD9o5qC4jeDmIEDnePAtKsGn/iaHoxPUCRegvP2ZyYrot1s2bN8jjD7uyogQbA+/sU8KeZ9Axz5szxXH755b7xNEXv4tjY2MdI+7htVSflY8CLbBsxArudU0CinLOhXMzgecsYuscGcePGjS26LHoqKioCIvXv43SPrvpzaekdOAXUY2aT0c9bovcq1s0VjqrTWDogejsIEjj0UkC9vVOk7scG9L2UWjxvb3RR9OTl5QVAvEcw3bOb/UEtPQSnhPpEb+kpWrZsOZl1MoSbSao31V8gBShQjxNnJCUlvUJfYp8tlNEq65YvX/4bEPs3vD1rtoG7d0YBf9Fb9zGUcN3dd9/tE73ZydbRi2wM226Wo/06JSrH6cDhH4ECMnsYMU3Ht1OkLkhOTrY5MRdcq6MrYp1zXKyGFQCxqLD/kz+dNZ6eMWNG3WmnnWaDmoEFJXpLj/F3bkaqUn2qLgPpD0IBiWRO2+WZHBPPd7hg1n300Ud1DDnr48Y74hb7vzkH3iAK+NNe+opx48YJ0DaoOXnDonvoYv4f6Wi/ql+jwHScDhweKRSQqckpinVl7K3PGfHDNy5+8skn63Jzc30gNo1pX2GlBikObzZxGX/OY97lvNd5j471nPJwnt/Xsh0uz/t/s0IXPfvssz7RW/ZpepF9wzru6Wiwqm/VeyAdQRSQ6GUqtZHL5XqamlJfDKtrr73Ww9URGxzEBqC/BxgvSH9rd93+jIpVr2j2pZ11CNufOzKP/EG9ZMmSOq7u4VOScajk5hpcz7O+Gzvar1MSc5w+sg5NAz+yvmr710jU0jdKoaV0PUXqv1KEbkIODC73UvfII48EMbxtENcptm8gBMAomfbxvv6w4SE4OBgUDbFw4QJUVrqpGg9CcqNEZGdnICoqut4r6uo8KCoswvoNG5C7qQALFqzGr3OXIC4uDGmpqejcuR3atM5AmzYtER4eaT9r3lEvoz/AH2c9sWMDQy9Z9957r1bjCKbeA1Rk5jOm2qMkhXy+BXajHzFt4YijUsO02kOPLPouVZ4iXiiNyMjIeJhKkx6cNK//dVwdIuiUU04Jiovz+iI4G4du2NdkQFZWVoobb7wFr702GQ89MICFyoPbaorNhQlIbJSB+PhIgjXWBvFilq2oKB9xMUFo37IM7drEICMjC2EuD8qrErF2zVJMnuZGUGgGzjp9CIYOHcSOJwTmXfta5sPxeWe9sZPGl19+aY0cOVJDp2COpdmBVs7l7DUpyT7b9n2S0gRuiehHVDoSwazKMiBuQ++hhxmX6uzFi6UjQd1DDz2Eiy++OJjgtivS2RjsEw3wY/LkuA5P/PslTPrxM4z/8FQkxn1COaEn8rZ0RXV1NAo3TUZhwXgeb4ArrA2apg9Ao+RExEZVITqmDltLsjH1l2KsXFVIUDfGcYMrEBlWgCWru+ONd9diw8YydhC3oXnzFjagJVE0lFTRAGQ4oFkYmuulnGqJt99+u+7222/X32AqN0FJ7FPOq76b/xfqJJOznXjPBH4PGQqIE5vOSVEh/8FlSH3LlBLA7l9//ZV17k3kZg2uSHLmOW3aNFux9vB9Z1iP//Nv1tzp91tbcv5qjX7mb9aYMc9bNfkXWu58WFbJRZZVOcKyynlcDKuugPsiWKsXXGkh7VI7jz/96Worstlp1kP3X2W5i/5iWVth1Wx91nr5pX/xenNr/nzvd/1Rx9E7q9N58+ZZV155peHCFtuD9CSPc0vkpmQkOO+/wO9Bp4BMTU4zxCXkxGupqbaBQNOF+6uvvqpTSFiTBLqGTs48ly1bar97zJgXrZLcv1nF66+yHn/sLxZSzrHGf/WOZZXda1VvgjV72tPWhG/esX6e+C9r/qz/WDlLH7JK159MMHe1qjb1tca8fK6dD7/P3t9373VWdcHtVtVGgr4wxKopesS6884b7WurV6+wP8nfLt7Q33k45OesCy3t8+2339ZxzrntCKSplpTKNpCmVzpartrPYe9FZjiZ47sOm0OVXZVgFBoDqPh4JCYmZgBnMukj3C+99FLIWWedFURliP7v97ElGw5WrVqJp55+FgX5ubjjpuPYQtYgMyMRcRHT8fb4C3DO8VsRE3Ilamo7wwqKRcGWVA7eEjiI64itpSkoqUiBp3YzmjetQkxsOhatDMfnn45F505NceLQzUhJ/AxV1alkKbkIjwjChrxL0az7V7jg9AF46aWnqFSLAQENo9CzP/wP+kNQ2wpIfT6X+gFDF1mcxCFOHcoZcFJMTuNql3/l/x90D5OkO11XB3nYJSdHO5wKr3Ibx4HmVGw9xSABz2zcuDGT4yIPo0KCy6eEDB8+PIhmChvE+jhplhsykUv5xqg0keCHH75HWWkp3v/fLLzweCd06nAbkmJiEB66EuGub1G4tSdiooIQF/UlgkLaYEPRxVibP4ItpxG2FG1AdsZ6tEqfhJRG4SgqScXqXGplE+Nx+oit6HPU24h0rUdNTQhCQ/TpsfB4KpGYUIRRp/XF1Te8SvA3woD+fRASEsprngb/3oak3YHIS/oD1ZE2tQO66QZddtllwVR62o4nBHMmFyW4hAvjteY2h2Uq3FYuta/DDtCHG5iFRluspCgdycq4lY4Cb9Mhvw9BjNNPP939+uuvh1566aVBiYmJdiWqcgTihlYMOYHMxdRQUFAARuFEp06dsWL5YvTslozVq9tiwaqj0SozB3XuYlRUZqOksgkSEzth3ITeCHa1QkXZBmQ02YS46Apy4ZZYs74REmJWokXGfchuvAgV5aFYvKYtLHc8FWif85ua2N8VFMThX1AC3LVLkda4Aldddj7GvDMHS5dtRq9eXRAWFu5TiokGf9RklIIG1GoXQ4cODTr55JODya3dP//8cxCB3IXM4EpqvkMbNWo0i+1KS9gqmfbm/XeI/x4uYJZILcLa5oSwsLBzKEa+HxISMpJiUjjHQbWMVhF8xx13hLCntUluRKyGBrGdOX9MvpwSCTYANRDafsPt87NnTcOseZvRrWMiend6DUtX9cLy9aeic9tl+H5KBjKbhSE1sQCr1lSidfM1yN+SDk9dMI7u/i1BHY/5K49GbsGJCKZGrHmzZ9A4IRrLNwxDcWlHpDX6kG83gK7i+9LgrtnADmIKTjj2PHw3KRdvjh2PwYN6UiMeGwD0tgozoFa70DGZAE499dRghv4Fl6t1r169OoLceyjb1nkEdz4lm/l8VIyjYcW5beXZH7tDHcwGxDY3jo+P70GR+o3o6Og7CeJGVGrVMNpj0PPPPx/KSey244fES1VWQ4vUTuIbrvzjjz+Cpi8wIJ0PNHJGmTT5F7TN2opjTpiP2bO6Y8PmSAzvPxZl5Y3Rb+hMLFu5DCOGJSMlJQbzFqdgSO8pKKtqi4lTO9FMZaFLy0lo1rgUi9adS47fDc2bPI7MxhY2FQ9nXm147SNqwARodSoEdHAKaqrzEB31E47ufRom/LQR4z6bhOOOHYSIiMiAyO2oPNMJq53QE5AOOG2CRo0aJSZQ97///a+2vLw8mdz7LHbMgwnspWxjOdseP+RBfaiCuR6Iqaxowkp4lAR+hSJ1SxLcfeONN9Yx9paLAdaDCG67wRoQmwpz1GGDHRqOzzA3YFnAgHQ2kNV5yK5MsQ2XX34xpk5birUrg6ikaopjB09AXn53PPDvUpx7Tl/86dIB2Li5FAVFcVi8wsJSbonxIViyPAQh4S3QqW08IkPuQ2aTNGypGoiV6/ojo/E/kZZkoajiBKzLSUOztM9QZ2US0DUEdCU7r0zUUkUeFb0VbVp0wp9veM4W+Tt36WJ3bIYjNRghDvOMVF/qlEUXKk05NOkVxAgyIYwq42ZgxjoGHGzJsfWfCPimVKzO4drUxds++ZAF9aEGZoFYm82JyW1d1BBfR7Hn3aKioiEEMUaMGFHDCeuuq6++OphzWu3KUKVQ5LY58v5sY3qPGoF6dboP2qK1eS8XTsPXX38Ndi6IYeeSlJSKwUPfx4hjw7B8TU98PTkJJw2tw6jTa9E4eTyVXXPQoul8dOvcmhy3FxqnpOLkEa8gMaYp5i6JQXpqHvWq7yElvhCFZd2xMe94NE19lAq1cOSXn4TSklikpnyJ2trmCNb4GTKp89iaQ6+yFohL7IaHn52L887sR+kh3tfh7E/6HG55m85fgFbdyg2Ueo9gKk6DqQOpoV9CMDlzT3LoyymCeyiBzaalxDgkmbZ6uH32fi/vbwhDO/GJNCn9yjfbwOa+il49HvaQpLs3HWibKkFsv1h+wAxYYIphz2SS2YOeR/Y5KlAs2ratwoLN1vATr7U+/+RvdAq5xrK2RFvVubAqN0RalRubWTWbIi2rENbG5XdaP0x4k9c7WbV5sObOHG3Nm/m07USi++uKjrdmz3jNmjP9H5ZVCqt4w9+smdM/tLas6WE/X5XbyarZ3Myq3tzJquL9VukZ1rRJ99p0GzfuY1852Wh9x4GD31LA2Z7IOLQaSR25s8/xiO1xPsfap/qh4Tdt1+/6Aft7sDmzkxBqfKCXTkf2mC+Q0z1EX9s0nqp+7LHHQJE6jOv+BrGXtO2oplc9UJRi1dtcmaGDwPE6GO3C7s1VDgZ1pwIqEZzEYRfnl19+sRUsGRnNUVaSh4yUb+hy+R3KaesMDe3IfCK4hbCXasQtGJHha5FX1IX5ZTGfSYgKT8XaTe0QTZ/s2Ohl/N4VaNyoApuKeqCmKptc/F/UjB+D4rK2tDt/Q+VZGqWSWoo0NMPU1fIdeTzXE0+9GYRmyR4MHDSQ51wB7ryLxuIUvaXM5My6IFpGQglgDy0WtdR2N6X4fR5B3YPx4BbRgrJ5W5amHWt/0NLBBLP5cBvEXN5FUxPvoXjzXwK5E7mgm6tDuClSh9PxQ7ZBW7wVpYxoeyCpJtAqTZ8+XfZKn+ZaIrcmbzB6p10uDgewcuVKSEuqFB7uwtsfrMWQ/qcjKmwGz6zjfWEE3noqrgq4L4crtAAhoUdh1fo0NG/8JUKCVvF/d+QWtkETiuS1td3hCvmZmm66oOT2RyL30ZFbkFd8FOKjNtGOPZPgzbCVYXVWKO3QG+3nC/PL8Oxz83HtNacgNi7e7nzUYANp5xQwTEKitza1O86uCz777LNpQAmtoVRWR8mrPcXvq2hFicvOzp5DXUn5thwNqHf+gv145WCA2XywDWKtnkiR5goqk94lkE/k+Dh4yJAhVQyg57r++uvVK9qNUIQ9GCB20p5lo/2WZiVORxSnVsWLU+s87d72rfPnz5d0YTcC3ZOW1hjl5dX4/qcijmPPRFXtCGwpTqTTSB+4646ira0fNdFB9NxKQWFxFhKiyxERthjhYckoqepLb7B0e4JGdXVXREX8yOf6Yt3mbkhP+RalFR1YjgTOspoMj1tgLmEZ4hESnM9Oogk2bGqEL7/+EuedN5KSQjO7vCqk6ZjsAgd+dkgBA2p11krkxDjuuONCqPAMIXir2YG7OOTrR259EYeElazzObRkeG/26n0Ms9ph/vvj5IEEsz5ObMEGsT6GftPD6Dn1Jj23rqP4ormIVa+99lowg8u7JOKIi8g1UftDgaOoM6F5zAayyq8KX7Fiha040XmVlfZKW9w27pS6p0P7tram+8a7vkC1Ox3zljbCxsIu2FjQGlWe7qh1JyIl4VeUVhHcdE6Nj51CcXkVOXYiNhQeheS4uVRylZFypQR5BApKu6HOE42E2M0oLG2BFDqT1NVFsjz0RgwK5rUChEVlorIqFW+MnYmTTzoRbdu194E4AGbV3u4ltTvRS3WrOmXUVjAOWSgXvKv75JNPqsihE+l8chI79BFkPDmUzFY6cj6gYtCBeJkTxLbTB0XqNnR2H8PebQI5Wz9+fPX9999fu2rVqgi523F9Y5t44sYi4KHU+AxHVpnEkdk7k/tqaA/NnbU5N80bPs6t+/kBbACn48Wn/ozqihxcd9WJuOj0agzvPQ1dsh5Cm/Q7EVS3lnZiN0rKWSX8Zo19YyO/pQhdwimTF3CK5AbUuHshwvUl0pOmkIvTIcQKprTiQWV1D+5X8Z0S36vYW1JKsBYiMZYacablK9ZwiOJ1YbfLY58N/OwJBdQORTuBWqL3RRddFLx27dpIBreQdruaUmVvduzj6Un2DhlRh215q72LeQln+51T72/ObDoLmxtTaZRAm/Ct5F5jqTxQrCYPFQw1FKkjzj///BApkSTWiGiHGohZVjs5OxaVU+KXwKsku7OSTGZKulebOiXt09MzEOqKwZKFH6Nj+2cQXPMZx7c0dbHKg4JyCEpyandHpCb8wo7CTaeGjbzQk9y3HU1Un5AuUpo1Rhh9vWOjfuZzTVDBZyIYFCcq7BeK7VnMp4zvCyb9imnjbo/lK+dj8ox4jDznGPonR9n0PRSkHJtAh9mP6lC0U31qU3sdMGBACD3JQtkWqulJps69C9vBFeTg4VSIzqOFo5KfqfbvZGr75csN2Bo6c+WrzdczkRufx4gPM6gcepC9WxQVRJWffvpp8AsvvBDB6Wm+Xk+irLbDIanDoUeaXXaVV1puuXb6JzUAAV9p4IA+dBSJwvKlA+CKGsDZU5ojn8yapk4gqIiicTS5sougZEghPhITsYjNwIWtZTcw4kgOwRjHBhVPZdgmxEcX0GWT4/cgjeGVu/KSB1w4x9olvCcXp1HEnj39Ayxftkw32LQ1ZbFPBH72mAKqT7VRcWnRUsrP5557LpxRTkKGDBlSSaBHsJ3/nebLmQyMcLH0QnyJakh4MNjY4/fu6oGGBrPpfVRobTLh9KNI/RXHxpoQIdtNJQHsZrjUSPZoQeJqIoqSwHG4JScwnKD1/w716krBwUH0CT4D48ZzSefgRP5fsg3oLkRHcKKy51dU1zQix/aQ8zbjbKtPERuxHAUlrbbN2qahmaI0JXymTQium0cX0K0aKrO5iAmEME83aj3pCA5dS6cUbyy7iZOmkJt4XV3FVQJp3ylg2qvarxSjjLUe9OGHH0a+/PLLUoRVcoXLbEa4GUMN+LeMHjp42xsNNlRjDSp6NxQLVKGUlwpq8wiGsM3m2OKRRYsWyWbckudr7rrrLvcrr7wScfzxxwfLBdOAWL2caey877BKKrc2AUQztyR2y+dXyf+bBHydi4uPxZRpa5GWMAGpaU2oza4hACO5FXJ6ZCkVXyW8r4wgTySoNe5NRMHWttR0WzRRTeP5NCrE9I4SitxlHEfTxBW0ii+MY+vwKlQ1fg4NWkuTVGtbjL/vwUW48k8n8t0JduehjieQ9p0Cqk/RUvWvIaJcQ8mpgy+88EIXxfCaSZMmudn+W1E3dCk13s2ysrIWU+tdxDfbOOG+oTDYIBmpMEaEkIY6llq96yli/JcfMEjkOu+88yo5GULKrVC5zJkPP1THxSrz3qRNmzZByjv10kr+YDbnQkNDULSlEps3fo52HRrDTbctOZKoR4yMWE9qagaeom9Sk8optq7QGJRVt+FcZhcS4qdR+92UeeueCIJ9OU1Ra6gMy+a9OmezaII9lNy7GpExoCmtH/7z6ldsZD3BTtbX+HZUPmYQSHtBAQNqo/NRO+dMuhCas0KpKK1kCKMQarp7cCh2MUXvICrKFrC9GO8ywwwNwPeiBPvWK6jVaPPZ1riw15kULd7geOESct0orrFb8cwzzwTffPPNYbK96oPFjcWJjyTOYDiuxszqoNQ7K/mDxfm/itz4559+xaA+HHO7OdsuKMnmqp66GD4nskpppl6SIA8qpY05ihyfdu7gOeSs8TwnsmvivTgtObINbtPJq23oeiNqyReicWpHJDVqhauv/RXX/HkIy+d1wDmS6oAfe0gk0VSb2rn2ChzJ+QQuTuSw1q9fX0kNeCzbyXAW9mQugldIm/USHhuJVhWoytsrUJva5/O7nUwvYgqgcXEvitSjKVLfQ22e7DRVBHHdAw88EEHn9GBxKplx1JgPF+XWblNj2436NoWmEbDFnZWc4N12m29XW1OLn6fO5xzmFI6LpZmWU0clN0NWU6cSpxVdZCbF6aVwcywcFCQdg67rHQy9awNbHUD9pPfXukMQFrECLVuMwPdTFyO9aRZnU7UPcOf6pGrwfwKy2oJALb0QFcBBJ554oosAruUc+Bq6KqcTyOdQ490zMzNzDbl0DgshEGvbG1zu8UN6iWlt8l3NpI31XooQL1G5JdtaLcOb1kqkpnIrRHN99TH6qCNNpOa3+pIBrUAsn151Xuac76ZtB4aLi+tO+nEeWmUVIiV1A2qrQgkwkdY/qW7VMBIpSssxRBzXC2TvnTp2/vee9Z6rZZ6N4K5eg7ikRpwa2Q4PP7MAwwd1RgLNKpx3wes7etbkEdjvCwXUBsS8JHpraCn7NDl0yLnnnqvxdNXkyZMtit7tCOTLuRJHI2JpCQFOzaiPMwtvu82ld7cH0H0+kZp21Bj2NFfSc+t1TgkboWtUv1dw7Z9wBkxzNWnijYShjxCI1Uv9EZK+04yXf+97VckC0oTvJ6FV80KkN3Nx3LycdJITnD+gvWATiNUB7FkS3eVEksnwhj+iRXZvhimqwQfjVmH40J7seCICduc9I+he3a12oU2MTUnuwEOGDAkdNmxYMCXWKroAu6hf6sPpviPpWeahN+RiblKAeHtyL/Z2CepdgVmtQfd4B2g8oKbuZDbGl7g209V0OI+jQqWCC64FcVwcroG9Ci2RWvsjVaQmGXaYxHWVdsaVzUNeMNdh+ozZjMJZgeYZReSe60izeN7iz3nNU3u/F8evdcdSkfYt2rcdho/+N50OKgmcMNLJridxjV2Vee/fHnjSUECYUBKoxeSysrKCOHfaRUy5yRSrqGtKpKb7eCqQj6HTST6Pl/J2NSptxm67U1DvDMziAXpYLctmFVRuHUWzyxNz5sx5hKJBBs9XP/HEE54HH3wwkl4wwf724j9i49A378536x5V6ITvf0T7VvlUkhRv02hLcSZy7zEL5jM7S8pLnWsMTWD5jOBZjk7tOuGeR6egdcssZDXXBA2vaW13yr6ztwTO7x4FRGMxOWPRUdRQDleDaa51ZWVlVY8fP95DJXImgTyKtukOBLbG03QF9A1vhcsdAnpHYDY9gICsGEnpfMntFAVe5gu6KyOuulc1evTo8DPPPDNU40QzJjiSx8WiRcMkAZ4W4pJSvPve/zB8oBupySvJmSlLbeu5G+Y9zlxUzVSu2aGF5iMtvRHaZcdg1DXf44ThPel+muy7OQBoHyn264HorPo2pizhiMriUEaYDaWuqXLKlCkhFL07EcgXMeJOLEG/jCBX6CLT2wunNqM1BXWCWcfaJNgL+dF0s7yYBu+X6cVyBnsSF19U8dRTT4VcccUVYVS52+xDIvUfaVxMuuxTEpCVCrja4/ivJ+DUEQmck/wppzBmsnJldtx2g31XQ/7QMYeABjJQVzsd2TQVZqXk4J/PbcCwwT3twITbRgm7JV00ZMn+yHkJ0NqEI3FsTdoZPHiwa9CgQRZnZFVyOBtJJjqA5s7Tqaeqpq+3RG+NpwVkAVoNxubUAq/+yP4hENtIpww/gj7GoxkD6UZ6NTViJlX//ve/rZtuuimCY+RggVcvV++i40DacwpsWJ+LHyeOxTmnJsIVPJOaaq5SYduK9xeYVUY1nBpygyas7Sk0UfVCsGch/jV6LQb068bpnVLAeVOAQxtKHJi9gGxMWVKi0oQVRAWZi8NbzSas4fK0KQTyyRTJB5KRajwtZ3vhVUAWfq16LYcidVeqz//CsDeX86KS+9FHH3Uz0keEnD6UJBYo/dGUW/ZH7+OPMUspmy+/moAvPj4Lo58YjprKj3lGTjUKzFevSnRrgycB1e12sSNehtCYi/HBh3l4/cNMvDT6HgZZSLcblV4aAHSDk363MjSit2GUBDMYBrjqlltuEfMVcEGHrLEM6vEkpebZ2zLl4r7e1IQ9wE1UbP2HPYDmF+OGG26Qqcklm5hmAqkh6iUBkXobxfZyZwAy8ccpnOpYjJ49qhkiN4cc05il9j+Y1ZmHhGg+Nmd4uX9A5x7HITxoK+5/fDoGD+hqB2Aw0psp715+buCxvaCAEb2NKUtrpTF0USjXEw/mLL0qrjDqolm4CxnqKDLZKNqml/M1JQLzuTRgy158Lr1SIhlFoVKmJo6Lw7Ozs1mX3kn4ekGAG+9Fzfg9InrWcIjy2bivcVSHX9GiVQgdRgoIZvli71BJ6ZdDQ/xVh+Gx69PtJqBrvkbnboNQV12I+x6bhqGDuvq82PQ2lTmQDjwFhDklgVrYo2Y7iGNpV//+/T3kytWzZs2KIZAHU3l2Mu3Sm4M4w8fN8W8IXTKrGVg+iCryMBM5Q5mYXuLAf8qR+8b8gkKcd8Gf8dxDNXTzm4nK0mhKPF6HggP31V5Aa+4zq5826CUIjbwar79TjTEfBmPsa/dR5M4IiNwHrkJ+900yZWkzoje13IrTXkPp2SKowznO9oQQuPfTn7qSy5+Gjxw5MlSTBJwye6BX/l0a79XF/PxCTJvyMS4a2ZkKqPHUXMjWK03zgeaA6vlr7F6/1tOYc6PH0yloGMpLq/DKf38lh+7OFTIYLIECQ6Ad7FVVN9hDor8Yq9FZyVWaDDiE3pah77zzTiV9QMKCyb6l0YoUC9ebqQ63KzcgUjdYPfwmo+LiUiQnFhMoZawcAUVc+UADWcWSWK/YVlXkzB6K/21RV/VvXHNZCu3QebjvwWdRWVHORuR1KtETgXRwKSBcCtTCqRJxq12kcBxM1m0rwSiD66RvYr39J/DTYBQwrp7KcM2adVxbigovKp1srmc72jXYq/YwIwPoCtY9wwFWa4mbx3DbDW2wdtX3+O9YrTrpdWiRmBdIhwYFTAAMulTbBRKOg434ZGRxZ6M7NIp95JWikA4jXbsNJ1MM4zhI36f+9EApv3ZET73bxY6llBNF4lHOqL7R0f/Dk4+egj9ffSkmTZpsPySOEGgfO6LfgT9n6sFI0LYYfuCLEXijOs6UVE77pmXQ9rqygxEcbLoI0GEsTz7D+vZC5dZf0bJVDt564xYMGXIh1q1baxdQjcg0pINd4sD761PAq/uufy7wbz9SQEAooDYbdVx9QgH47KGy1BYHY8zs/6ECdDhDDnE1u6A2dOcejeOGMahgozg89PATqLDHz9v9if2fDvw/uBQIgPkA019jnPkLlnKiOmNtexhV037/wRSxf0sArfkcGhrHReoYeCguB889fCZefulZfPD+W/bNkizUKRmrx29zCJw5GBQIgPkAUd3oJqSFXLp8Hcek4QRzERkyq8A61BRLCiRY7dW0M+B+u7aNSaXeuPSyq/H22+9xTF1ia1S94zW5hnpsxwb5JfhvUpoFxPID08gCsyQODJ19b9EElamTFxG/miEl8fpgK798RfM74MoiOsOQv9GRIbjqmuPQq9u5eP+Dd/H517/iiotPwNF9ujEIfzy5uG0Q8Xt++1+BOeCAtJ0e++soAOb9Rdmd5CswcyEbel3RpGDHvraj2e/k7oN1msK/GcIHMZ6ZtRnJqY1xzmkxOHV4Nj75fDH+es8shu3th+OP68/oJS2QmBTPFTdCCdpaVFVV2OGTFBs9JjoKwSGa1OFtahLNpRU3ksrB+sIj8b0BMB+gWhV3ss0HbMiczUzRmo4imudyaA2XHdSQ1KC0lQqxGqSnViC0biLi08bhqotH4vjhaZj56wpM+PJD/PxjV7jCm3Jtq3jaqiO4Ikcw7dUeBmAoQ5O0FPTo1gK9e3flXN102yFJtJD4LVAHUsNRIADmhqPlTnMyQNYNy5drbjnD7CleGxu1jwPaZw+lH8UF41jZWse51sHo1Daaq2lsQW2pJImxjFvWHM0zB2DEkFYoLcvD1uLlBGgSIiJbkQs3pua7FJvzZqGotCs++GguV8F8Ho8+2h+jRo5E86yWdscmLm3spIfSlx+uZQmA+QDW3OzZs2izHcY3hlG5JK5kOJORafdXYbbbhr3i7W68Tx0Ny4m6IorMdUiJqCYnLaTIzbXBPO1QVaZVON5CbHQCYuPboGkzKvQgb6Q57ADko+pCh46a1lmLIf2zcdyQJFx8+d2488438NPkl9B/wBAbyEZBFgA1SbWPKQDmfSTgrh43XJmRF9Gjx2A88sgDuP/JLyhh0zQVxM2rZdpVNnt13WLsibo6xRwLQwi9zeiqb49pLdq3Q0J2R4NO6SGoCWprirls7Co+X8TiphDECkWlCRidUMU1qS1rGd+h/Gp4LMUeH9s27Na+UVw6LjrnLPTp/iD+/tAXGDBwKN577wOceebJ5OLe5XADY2mbbPv0EwDzPpHv9x82QOY8cdx3/z/xz3+MwlWXZ+Cuu1YTTJxHzOmHXiyTQ9sHv5/f7l+VDVghgri4TRSjlwSv4lxlvoLvCI9iLp6mHNNGcCzsXQLnt/mKc2uMz+bBlSPDw0q4mkYOz9HPk4vYccRLYOt6Cb9D0gW/xU56Tppt7ZVoliLoq8oXE7TPoE12Hzz/z5Y49fhEjBx5D665fhHOPqMvJ97349rR6hy8EkRAOeal3p7+BsC8pxTbg/tNo5w4cRLGvvkSNqx4Aq66MYhsfRzKyimKcixqz/tvMCALDAzjyi0iigo2xvvanBuFlWvPxYZNWsEiBOlNtqBL2xmIS6igU4gApOVtdvRR0jqHMwRwNTKbrCE8tYi7egIB2SQzTDDKMn1Ife18EEXvkNDm8FgueMqno1HCdJx/5nD07t4J30xahpOvmI1RQz7A7XfcyLndHe2MTSdo3hLY7x4FTG3s3t2Bu/aYAvL4en3Mu3jogb+gaeoCCrqRuOW8Zli4cC7zEndTlrsj8u7q1dIQKwJnFZVQucjPK8E772fj1vub4X/jQ1BcFkMXzWhMnZ2IR57rhGXLuVpleDnfrwkWO+5NgoKUZxjXwlpCs9MWFsC7uuXOS6KP8d/EL6ooBZTSRNWeU/daoM79HWN2L8I1l3CE/Wl/xDdKQvv2/TB16mQ7a3WCOyvTzt8duBLgzPupDQgfAiojKuLjD7/FX2+6iW/6F5VJPdC7WxSmTl/N/wJfwyRx5NBQhWuNxpx5aXh5bDIy04Nw/aUrkdlsCd1HQ+xxstsdgzHvxuKm+7Iw+uH1DIK/lMHxm7MQFMd3UBp9g8cTzWvqePhRe5XMV1aQ23PcXtcG7gpO6Ah9i+tfbcbDd52NmKjr0K/fIEyb9jPjR/ezwWwkm7165R/woQBn3k+V7uW4wIoVK/mGaGQ04dzlGtmX17ABx2FrGcXOmmg2bp4iEPclWRTXg4NrCbpqzPi1Nc64oSWaNvbg+is2oU/fHDRp4qIXFxdxD6lATEIJrrxoNvp2D8cXP/Sliaw9O4FNNgcWYHeUBGLzPTu6vvvnBGouVseQwsHBsVwypwOqSr9DVMgNuO3aOPzlxhtw9NH9sWjRQhv0UooF0u5TIADm3afVXt25ZOlKXHpRYyTG5VKTrCyK0Ch+JadAZqOkNIFOFgKzBKQdA2l3XiqtdairEvmFLXD3Ywx+MDcH5566AdGJmwiWTALWRUcOLuruSUFFcSOERUfikpGbsXJNLZatcCHYVUqw7luHsjvl3H6PQK0xeRmlhS7UiNciLuIu3HtrC2S0Ox43/d/1KCst5TXvMi7bnwsc/R4FAmD+Pers4zX5I5eXV6JZ0zSKlPlUTEXSJ9uDuKgFaJttYe48OpAQzV5zjhFF9+ylEuftpWA5Xl69NgjffVOFx+4roqKLyrBK5s21DUIZGUrB70PIvUNCGKqoqgXH71PRv5cLFTV9iCst1q6oJwd61KXmt4Vl6ohqWrSS4sbi09cH4ptvJ+L1N162CREYP+9+ewiAefdptcs7pbQxs4Z0s/yRIyIjkJQYaz9rWdUEVyLBRdG7ZjI25muNJ638KA3w3lSFtNf0ew7ZjIqqDIrYyqscxwxJQ1RMLWN6kWOT4YpzazxMYZmgDqI4zvEzJYLGqVEo3BpFpZQ8sbSOtlcM5s0HMEkioGQQ3J6LAczCUe1/weinr8df/nKLPX4WmOVYEki7psDetKBd5/oHumNHADaTCjSZX0uNbMqdR4X1FgIpjYDROHAjWmYFo6g4ETXlBQS9TER7Mz4k+GQrJkA35cXglmdDcflFhcjOLOU7qikJ7Eh8l6ZY9uJkNE35BU2Tp/I4kVs0ubPKsHcSAh/ch6Qpl/Iea0uX9U8w6nQ3Bg07FZdfcgG4MENA3N5Nyh5ouWo3i3Vo3yZOYTyWNK4z4FWp1fjWrl2HOXN+BVfOROGWKtSWzKGvMmcVhaWQy3B51aA0KqhysXJcIiqqj0ZC7HJUexIJJntQvdsfL++u0FCtHdUUcxaQe20qokMGxdWEMtqQuXToTrrq4GAPvbriWYbFSE+TmB7HPPZFW73bRf6dG+WpVsPZZE2RFD8Bo/95JTr3HIfXXn0Bt952NzsgbzCEgNvnzkkYAPPOaVPvisCrBiWxTw3KOeNHAcnlrsmF9jBlyhQwjnG9Zy88j7GoK7ciImIDQRNrj2Ojo3IRG9MNS5bVcF4wxW96aHmVYLvLGaUwc7Esxdi0uZqmqOa44rJE9O+j8wvYaaTx2o7NTRLpLauWjiU0OXGsXVPTUNpqfcO+JJYjOIrL9SxHp1az8cJzN9JL7G8YNmw4uvfo4wO06kH0d9bBvrz1SHk2AOad1KQajJkEoEbj5AgaF3OtH3DRLnLgOfjhhx+0ukC9nMLCwpGSHIu0pm1QWZuKvPx5XAc5lm6VHuYbQiAHIzVxLWbOSSeYF7OT0OO7B2Td5WEeISGMI8YlWidNbcLlYSsw5esyJKdsQXVFHBv6zkRmPU2vLy6Hk8slvCMiyhEfG8r8xMb3XqPOhxsoaexOx5Lad3HW8Wfjo2MG4JLLb8W4T15HdotW9erB2cGqjv7odukAmB1N0IhyOiXwOgEsT67169dj7ty59vbll1/anNjxOB0z4mAW2dMSNJs3FSAmNhkffViHW65sQazm8PYoNlYPtdsV6NE1FB98kYSy4kpERbkoYlIE5/h3V8lT5+VMoeF1mPxTEUZdHo13XslDnx4FXLRdSjBOqtjJ+Fem24iocGzdshYvvX0GBlKZPaz/JIJZY+kIPnfwlU2ya7s9WUhJnIR/3ZuKbsfW4uabb8PQYYOQnt4cRx3VzQ7+HhHhnaQhepmhj45Vb39EYP/hwaxGoM2Iz/7j35ycHMyePRszZ87EW2+9xQn34obbk8ArEAuIhYWFWL16te9iOL0fly5dAsT2p5NIK1i1MwhWrhpBrm9RRM7OpKgd2wqbC7qjZYs1qKtJogD8++NmPsqycm2oiErMmxeDQWe1wotPlePMk1fwfGuK8VofTBx2Z52CnQElhRrc91AeXhsdBnefUI6v6+jEobx9xT+IBxL7uQC5OxJdO7IDndAfXYduxK+z70d0bCrD/ubhT3+6jEvpdNcSLcjMzLRXrnSK3YZr65zz/EH8qP3+6j8kmP0B7KxsrqrHAALLbQBPnjwZH37oXdHBWROpqakMyBeNSk7/k8JLIHYmdQwCXTXHoo1Tk5HVuhEWLsrBsQOT2bAkRoqTBFNRtRmtsyqxYk0mY1TPJvxSmY3MVDtGlJ7TtTAypGUca3cdGI/77wYuGcUwPa5UzoTSUq3irDt+3nue16lo21Lck/fVICJcPtdqBhLL7RdwfygkBQIMIYduhC4dF+Prd1Mx4qw2GHlOY3qILcdTTz3lK+T5559PV9B+NrBbt24N1Y9TqvqjAPsPA2ZToYYDGwA7x79cZB4TJkywx8C+lrLtgAt0ITw83ObMAm9eXp7/Lb7/EtcNoBISE5HMuNM5ObN4LoabQCPbr4v+Ihw3Jy3GT9OTcNzgJDbAWp6XVte+ZQc/BHJYDfMCLvtLYwwaAFx5wRKEczXYyjKtJLnzjsD7Tomg1AWwk9m4Sf7W0WicIhuzNMWHihJs+2d7J3qwbIwrNqR/Dp58pCVuumu9HXfsp6mL6CWmjgiMGPq2ven4mGOOocJsGEXxo9CxY0dbHHdKW852oDZwJInjRyyYf0+BJY4q8VnKKwGYq9Lb3FiNwSQ1AK6sZ4toxcXUGFNj7QWp9w4v9905JxMghekQNpiIcBc7gQ3kxk3ZeLQOs7izJllUo12rLRg3oS1dK9PQqmURqiqiCK7fjlvlNxEe5rZdQJ9+KQFTpoZi/s9VaJK+jvOFU/jMzhRe5oskDXB+c0QwikvCMWX6bF7ojrTGCQyUQN9sytiaQXVocWd2iaSjxxPGTsyN00+oxL9eDqd7qgdDBvfD559/AXFizReXRCWJS52xNqUOHTrgxBNPRK9evRh8sAuXqG0GrXJqku4XuJWOhHH2EQVmo8AS0NTrOkWtrVu3csG2NbbSaurUqXj55ZdNnfr2Ep258LzdKHS/ZjztLDmBvaN7zPXS0hI7TvbpI87ibSu55XLzTsSXVrtxahU6tKrEtFkt0arVIl5ry42+jQ5RWfZkl0urNIbio8/D8cSzFfj4zUp06ljLhdppn+Z4d+fcnFnZyesthuAC2r6z8NOMTDRvJ3DTwYTRQSwrnHn8thMxTx/cvTzrNBe7ENdeEI67H8zDn686BWlNmtmdsOo5MjLSN27W0EcKy0WLFtmbKfvFF1+MgQMH2lw7OzsbSUnUUbCdmGS4ts45z5vrh/r+sAez//jXKVJJFF62bBm4GDUmTpxoc2D/CuGq83ZvXVNTA3Fgaax3lrTynjy6tGKmlF4CnCJQRkWJ23rsZTY9nvqAiImJJWCT7AkVanS+69TYeupc5LY16NVlNV74bypOG0FBnNJvTa201V5ZW2K3ZkQFB4cyyEAzXH5dKG65fguOGUQbMsOHiGtJTN5VkrY6LKyWc4kbY9acMEybEYnH7ndzaVnN5NLTatT1y76rPA/UdVFCnaPL5aa4LW+1ljQNruMMq1743yfrafJLsSUns5KphkMaN6uuxLXVMSv997//tTcdn3DCCRg6dCh69uzJoAjtGDlUdnm5lnrT4QjswxLM/gA2vagqQNx0wYIFtvj87bff4qeffjL149tLAy2zhsRtaadNZftucByogsXpBWTdL611ZIR37Kzb5Ha9pVTukd4kkJeVlXL86qIzRg0WL1lG3440LmAuMb2CedFphCtYeBuonDeC0LrFRqQmN8X8JcdTkTMenuoObFhlvCaAScKoRGVVOiZM1soSeTjvTAtxiTxXFkXfa2m/vcD3luC3v3pfcJDE9yX4df4APPmqOp9V7BBciIuvpreYTFmHJpDtr7E/j0pFKg1bt6jhuDgB02cuwaCBfQnYCBvI6sSl/1DSqiFGp6H6k7QVFSUf9Gqu88XOi+mrr76yNx1LKz5ixAjOo+6Dzp072+K4OgKTnO1Nbe1QHWcfFmBWryyCam9EIAPgqqoqmirW2bZfic8fffSR/d9UhNmr91aFq/eWGGbEYHPdf69GIMCb3l4NJSMzm1wgGbNnzcSgQYNR6wnF1J+XoXefTA6D17KxFGHuApmuQm0gxxAzJ51yEt57vwAP3873u5ZxdhAXZvNJdlI8hSAhvhanHFeFtz+JRpf2FMKjKwheSgEufTOjdNAramtJJp5/pxb/d816tG8TRzOXhxAWS/19IIvtSoQOj1jL6Y7d8dRLLkz9aSveejkBndsXkVPLsy2U79g1d/en0YH8r05P0kVCfBnOPKERx8W5BHcZRe2mWLd2ld0udlQedfBbtmyxN12PjY21LRFqT/n5+XY7kOlRm1J8fDzjk41E//79be24xHE9Y9qb2o3aghnKHUrAPmTBbAAsAouQThFI3FTuk6oAcd433nhDt9VL4qTqkZUkaqnidpVUMXqvxl/iwgKylGDJjWJQUb6JY9pUiuThdlCO5CSJrRbC+uag2mqG1OyzMe7Dn9iz16B060Ikk9OmZ3QjkGtw9plhGHh0HhufHU3PVwxpa820w4y0aZi58Hj8PPtGHDfgaSrNWrAMIXwH43C5KzF7zhosntUJj9/RGVGRn1IU70C6SCLw9Qy+fJ0HHnY4EZFbGcO6Dd7+uCn++9YaXHLeegwbkIawSA+VZ3KOObSBrO+RTkB1ExpaSueYaPQbeiE2rJ+GPr172GAWCHenjks5T1qbkjprA1QNscQYtH/ppZfsTfecdtppGD6c7qTk3lK2Gaaga0qHkjh+SIHZCWCB1wlgiUdLly61nTe+++47fPHFF15qOn4FQlWOek4B2Ihajlt2emiALG2nnm3VqhW1oe3ZUJahlsHdrfBm+HaCFGJebejs/NZ46KpinHd6D8TFUmESsgpnHxuNvJLT8f5HP2LGtPXIKSrEvXfk4rLz45CcVE67MwMB7IgDqpG6YpEcV457/7UOBXkDcMaJ8+ggwc6Is60sKx0l5S1wwhlp6NpZUwL1GfLW8jbKnX2U6CmgWnWhmDk7GPc/sgRRKZG4/k8tOEbcwCmHXDpmR+XZWYYH9bxXCpEVoEVzKg1bhuCVV1agf6i3w96ypWiPSyfwalOS1CaFmPbqyA3gP/30U2hTOvroo3H88cczmmhfxixrT2807wod9kX+GHHcSI/m/IHaHxJgNiK0E8A6J/9njX+nTZuGb775hgHfpv6GLgKveliNT/cUwM7M1PCVlyqxKStJXH3ZihwsWWRh2OBitG+Xhg5/7kYXwzkMcKfKfxnLc0bi26l9OXbdiBjXxzTxNEVI1FFcjiUJN1+Vi7498zkWDrJD1da6dwJkW+kUTPHbwpdfSNTbgOk/dcXN12Xg3NNjOUYkN2fI20XLQvDVJ98AD1AZFt4cbtpYXZqsvNOkoYmLtCngahOtuJSMwBCFJ//WGB3aslPiXzmueE1aO81kNy84OfuuxH5nluY55zM6p21HEocWp4+k1LIMXdsl855stGiRidVrNtsKMSm+NC7emyQGoOGXksBo2pV0JEanonaoTSkrKwsnnXQSBg8ebI+z9V/t0CmO674DKYYfVDALQPpYQwARTu6Qmjo4adIkfPDBB7ZyQ0RxJolU6kFVcRKFTS/qvGd3jw1Hjo2NYz4l7J1TcOIJx2NDzjIGwovEdZcFY3BfemcRqPGcqhhNkbWq5iIUFHkwc95GdGwVjO4dP+XKDhlsAPS5DnmKUS9bciIFI3yQuopf7aZDhreB1i+VV1Ot1RZDkJsn76/N6NAayNm0Dv8ebeHfL2fi3FM4VTHNhQlTSnHyiZqquJ73CcQGCPXz3P5Pzid0IuF4e1N+KH74WRrd9bRr1zFwgcLsauzutbFuf8Z5pPwFMvMeJ+DMfeaay5YWREuvIk35+j+vZ0x+ki40xIji/QKtooRqr2fYmtpcEQAAQABJREFUU9J05+Fi9IrrvV2/wKtU5IlmEREeNEuj5wzaMJTwCuoXNDuMagsCsiGSGInalGlXkvikQNN5ieHar1mzBqNHj7Y3vfPcc8/Fsccea4vjbdu2tcflOm/auI73dzpoYDYfqf2SJUvw/vvv21MHJUrvKElLbEQgEbShkt6vHl1A1gSFHt07YO1qiqMJ7alMW81IHDH4Zf5ZaNykNYKtIsyb/RL6DGiMozonoV/PlejbawnNSY1ZadR+2ussN2OTrGGFh1DzbSpz56XVuLm62oVZ81N403RERjXC2WefSk6znjOxvqXIbp7txHEuXTCD+O1clTEISbywM48vASWCgBA4GIS+OhGTF3vQu/8IKpAomteRw6Mdt0pu9UEqsJAk/AZpc6V1p8adv0F8l4BKvNpJ99RRsRasE9ZSKusIUJ50uxWCqJH9fk2z3M5hWSY6y0irLjt6OC0CCFqsF3GfzcyMbX21Tcaw8DR+HoM31MgC4H2pAK+F4K26XEpKp+Ouv2XjkYdup2mpLbYUKSjh/tHIS+zWpiQtt4CtsbIkQbUfmTfVfrWZ9NBDD+Haa6+1JTzT1s21/bU/aGA2HySiCEzyrVUPeNddd9WrFDnSiwPL5GTEID1rKliE2pdklF3ZLdpgQL+jsHhZHkLZkP58djNcee5KlmUT4uMshv6pJBBq4Lq8CUXT5whgNzlEGivVImg1e8dwOYFAZfKWyzR+/zJ6QaMxbRXfGY+/3LYBbVomIj6pE94YMxatW2VR+XKKDax5sz7Dmg015PBs83ajF/eyUeCf7bb/oTRZrWLDI5hc8TS/pTNqQjCG9s+kAm8z3SN1m/JQdA+BN9imuSQkO06YS3mv5qUEvsZro7XqGtlA9UYS9TB/xhULXaYFL+i0ciznVHtID5rqktjoPeKafF6rdlgOv/Vgaf0J4OB0rKEEVuW+nD7iEZg75x24wjLYGXD44uqCnj36o6LkYzRJmY2MjJakr1d7bH8zOxsw/ndyUgG5slcUd2t53P2YjPSmV2g4pzaryR3Z2dm2X77Tuej++++3bddNmza1ga9nTFvV8f5MBw3MpreS2UDaaGmNpVyQ9lCglab69ddftx0+DAHkaytRXK6V/rOXzD17ujcKkJjISnzy9RKcMjQOd/9fHlpl38dOhlzWbujLuK9hs2drtTlLOBs/w81XszGp3TuSraHmSS8vcVzwHXo5n8TH8KhKKrta4L8fZvDqT+g3YITN7ay6STSvSZwO4rpMA3HMiAvw6msfY+WKxSyHyiCx0u/Fdv56q/Jfy1laJzMsUQtKPevw2dc5SErdigpGwQwidwxhf8OovMxC9yoiCcMbsUPVMrOl9PHetI5RMXEOXSS3sINNYGcWwuHFagIohyAuJnhT6RIajIIt52D+4iDkbcmiQ0swZ36lIzJsHfI3vIl+fS/m+lRr2Vm52JjVzNyorFiOyOg/YerMPExfcC6Wr1yPO6+PR8f2Scy7igrCUrit9sgrisejz3TC5RdcjhMT3mPHuZAASmI+7Jw4Y0yrU7prvmYUkhIu9p6Awnx1HvqWHdGEl/YiOQGsfGUdycjIsBmOwOucHXfvvffanmVyF5Wov4Yi+JNPPom//vWvkMht2vpeFGOPHjloYDal1IfKR/qzzz6zxegzzzzTHnv07t3b3gvsmn4oYBtboJ6V147Eqn0BtouLg6vXb9UynZrjpsiidvi+W9ejTesqeGqzeU0B8aoZ/E4AIgvyyLGf41WK0yE876IbpRdUPGdzMd7DRdlg+18L6GxczgZms2kCkd5cbJ1U7sXipbEJ+H5KIfr0SsJ7H3zFBl/sU8TJe01bm1Ycx598MjIz2Ihpw66rforv7853y9zGd29LepXmMYeEpCG/oAjjf2AkofxIzF/mQlFeEZ59djEykjfionMb0Sutgt+n79DsruZYNL8M309mKKN1rTlmj8CsxZuQt7oOJ5zSjEHyy5HZtCU6tmnB5WXysX5DMdbktmIHIzE6n9rdpVxuJhG1lVyxgs4x6zYmYNqLpRympODya3oilHTKZ/ikT96OweBhhThxaB0uOX0a2rfO5cyxDxAalk2SqqNhLxM0gTR4Dx88354dmxa420wS0jNH9Ocd3qTjJPQ9uoW9mAD7GyZdazgwGwBLYy2xWgBdtWqVXmSne+65xwawAC4Go+HhuHHj8Mwzz5hbcMcdd/iOD8RBEHsTSy6MP//8sy3qSoRwmoT2VyEERIl1cpC//vrr7amGUvcreodJp59+Ok5mI5aTvJReArYmRigsj8prkoAtgsoUZZQW5trv7eUyqbFt1w5uzF00BGP+48LFIyeyTSQwP42LarFlawrXaSqmiNucnC2BUsNGAiaM7pwx5Bh11KxKgSeuM4vjwDjagBvz2U1sWmXsnBTWRyY2ibEeuOmmieBGlCoYrH52BK6/l6WrrGCjTMKSpev4fQW2aCZRTknPqj5iOMzs1OVoLN8ch+fuXo9RZxegulJjU41jTQO3H9n2Q1MZOyaPp4TMtx2B7cGyVc0w8edaPPiYt0Hecp2HC6FHUlO7CvlbB+K9r2uwdX0BMlvEoF3rxgxeUID1OWtIz2IMHTIIJRVhmPi9RO5qTl5IJbAr0JqrYfTumYasjGCWu4oi91J+czzBF0WlVATp1gwzZy0n+HPIfVPQrm02GievoXKwjpIAaeKRhCMNtbPshCW/yTtVNIfXMrl5xWlzV2gIpYHCMpwwKp0mxDb4Zcb3DDNcn3bm3j3da0ysGXIGwGasrHw0DtZwUNfV3jRVVopaJ4DFweVhKCYj33C16f3BmQ1OFaZKDi6SCg4JzqyCKWnsbPYaJ2s2kzYlid+nnnqqPR6R1lBitnyu3333XUycONG+Rz9t2rSxASAHgl2J4t5GVIf1uUDHztX4+Zc4REcNI742YFNBCtbmlGH+wgpM+kmtbS3CmobhqJZZmD55BSLSo7gyoosgp0kspxTN2vRGJ85bdtG98ocpFWjOSQCpDBPUNC2ZHKaWDg2F2LCxkBWdyimPFUhsHI5j+oWgsGATpk6TScoLXqdG1gC1jENCOa5srYrCwiUeOrA0ZidSxPHbzvyyGXDB4moZXKpG7p/pTUIZu7sQfXsEc9G2aHw70YVn6Qu+fKHA6cKo85pgSI9CLIpcY0/a+ObrX2hOY3CAmjpkZmVg3OeFOOO0aHqNeRgEMJ+KtRqagyrRsvXJ6NyBz1jTGUiAwfVDyWFt7lhLzT+/MWEJQS8ateCYmFKMlUvwRnILJrc3Uy79OapX9JdnHJDFrX6ypQ/6qm8taQ0rLI0ebGWUvGX797pp1r979/4JgPLNFoDFYdeuXet78IEHHrA5sABsu+eS2bz33nt48cUXfffoQG1XbVZOJQeCGdZ7+bY/hwSYjRbSNGT1ZFJMqfcTkUREp/FeYD7rrLNsd7thw4bZ5gJxbBHZCeyWLVvawJbDiTSP/knviYgI4ywirnSYVY4Zs4BPvo9F/io1DnGwOrQlR+nbNxbr1ixCKiNqpiWFc32mjZxLO5cj6Djb6aCM2tmWTQZyGmERPvtiMn2H+9vjq7Kyco4L6SFWXcOGHYfsrObUDaRyDJqLosJ8cuJazJm7gJxInEeund5OzZRT9JD0IvrM/fU75JZ3wLR5rbFkRRW6d5vPIIDt2OtX83k/1rYtA29nFU466kSoPdmjXetqKtoqcc5pYfh5ugdfTuiJ+as85KSx1KQ3offaPDZGid51tv20Veu2eOzeDVxbeRPKK1z4cWo2PvgyAglRa3BbxzWUNraQK0dz28hyxlIikYIogetJaSghU5U26verBdrQbWU1QFa5/Muu//7ndJ+Uf4yw4ipmXbrx1Q+tMXfZEuQum47NW8JIJ755m0Tjvfv3f8WBBTwBWBxWU2KV5DSksa4cRKTEUhsUh5U0KM8wZ5ItWjoXgVdtSUllUOdwMNIhAWbTiA1BREARRQ1BvZ2IJbOUpijqHk2g0Kakyeiy8cndTscy8MtO/fHHH9fzEsvOzrZBocACTmBXVWndoyBOjZxn59e5Uxu05cycn35ei4ED+rFR11K0LsTG3BJsyF3A+xbY96lpWthKcZa8jVScNGmy7/z0aT9i5gyqmvgdFVXkSEwKIaRKjoiIom28jODxAlffKPvpzpKhSc7GIHRot4UrVqzE803SuJTLAGRkzUVthWiizoe+2jQdUUj9TVZ8BZPMVWps+sOplykFOPOkagzqS4VNzkYsWd4E748Lxefz+3LCARBHbf23361Ep/YJ1DjHYfTrCXj8KeCvt5bhib+vpn94GRV43/C14YzZ3RzLV/XAJEoknTqm4dgBv/A7K8jB1bxkG2apflssFWq3kq35Zz7hnK5ZW9MSb7wXiptu/wrHDW+Ob75T3lrkfdcvEICTk5NtRiF3YKOF1hDuzjvvtMVVKWIlWgvACnrwyiuv+MqoNigAq/2okxWQ1XbVXp3JSFSm7pzX9ufxIQVm/w8VMcSdtIlAIqIBtncKIupNRh80aJDtJK8oEworIzOBlGsCtgLwmSSlhZK05pr3KgcGL6gszF+wzL4WwnHZ5J+m2MfeH43jtNEJRJMTbO4h2yqbq1sTQBR+V2PwOq697B3zOh5mpyBuV8trXht5SAgVWRxH76rCdV3frEazaEkuJ+VnY/7yWNz/ryJcc2l3OoGUc5zOMlPpVltrQO18c/1jgUoNv7aW43lqsTcXtsHcJREUhyvxyN05OOfUEDw5mj7m/W7HMcNPwisvj+bSsE1xw/Ud8MvEtTiq03QER1IiKQ7ndNET8OMUN974OAUZzRh4r/ViemYt46yy9QRyPLuVfWte6gRUVlco9SsM2LB6bVN8MC4Jd9yzGNdecypyN8tjayY5LKOf7iDyi+pUHajcNCXpSQMtr0KlbHbuV155pQ1gidgCprwNNc/9zTfftO/Rj7y61NaMs4h0MqqLXdWbL4MDeLBv1G6gghox+/cIpGsiojYlcWABS72lKkvXf/zxR3vTdWnDL7nkEnsiulzuNPYRx/7888/tmVW6R0milJLykxSgBiQupnnHyt/+x5PKX6A3ZbUv2ID2HgmYxLGdTM+sP9u/SeKm97p+FXhvd5O+WY1KDW5rcSWlkES8+sZCvDqmFHfdcSr6dGuBHp0Y0L5JHt/BYUkt5WSWzfk+57sk9trfQeeOti0WoqQ4GW+8zznCeW1x7kmhOPfsFDw++n84dkg3dOvaBenZibhiZD66dvmBUzk7YeqPYRg/MRVLclqiWXIRbrliJfr1nofYhGVYu6oGz485A8cNykErTu3UfOudJQFVZZQGXmGUREO7U+UDlFfYidHu7api+cIwbnxTPPC0heWLJtGxJws/Tp5O8M23szZA1rPa1CbkyCGaaUadlFFKMm1edtlltggtDi0OLIWruK8TwGpP4uJqE2IkkuZEr+11aWe30x/TbnZ6w366cNDBLCIJREoioJIqQ0T8PeLpObtB8n4pu8S9TC+s52fMmGFvyk8T0K+44gp7DPjYY4/h7rvvtoEtU4KmTJqkCtaz6oUlOnkBvPuVaPLZcbm9Yq65Z0/3ZmymlTK0jRgxHI2SCOo3p+KRFxqjb+c0XHxWGE4cXsx1malZpga4lpFJnF5b298poIjGm7h30yZcTEXWcnLZeLz4Vit8PS8SNXnLOExoi+bNW+PDZz/E8xmt0bHdMGqo3fjnkyG0f9fg/lvn0CSVixjan4vzm+H5l7ri4TEcY9/oRnpTib71tdDm/d4OM5j1Vc4yBhPw8ew4NzKWWSzFHCrlZJfm0KG8vA6L5rKjeS8Jz7+8GYMHJWPIlaPIPV+zs1J9q6MTgFX/EoGlYxH3NQDv2rUrLrzwQlsLrTGy3H/FgSW5OYM16pran4BruLBesuO6NF+ijmh7B6Kz8uk3z5j2uf3u/Xt00E1TIrzCuZi4TfpcozmUSCPCqML2hDDqGVW5RrNolBvKW9PYZArTGFvvUcWpcsWx5QtuksZRaiwqg95tymEqytx3oPdqcEbRo04qMzODyqVSTgldh8U5TekrDtx1XSlBXcKGVcIhQJg9dhWAjKJMEzDCI5dj2cqzaSILxfABnyMtkyJ6TQSVcgymPyMDDzy+CbllndC+OUPw0qVya1kYzXQVWLNiJu67Mw03Xh2GhNQ8ulym4pfZ0fjzXU1wdLcw3HhVJSeHLKEJjkCt4rxrxTpjgzdJ5dAQRitxrFjdEZ+Oj8d6avnbtmqMti3XUtufRoB7sGp1LpVzYfjhl2SsXbIQw4bS9OKKs+ety5yp+tEQSXoUAVjnTBowYADOOeccuxM3HFh1/Mknn9TrvCVei55SkKqz3N02ZjoP084EYHUChimpHCqDuH1WVpbddpw0MOXcl70woTbuNE0dNDALFOYDJQZpbKu5yc8++2w9k5IqQ0TWeFn36yPEtXc36RmBUmFktHd67kjbfeONN9qiuMRtAVumCQH7rbfe8r1C4y2JbOrVlZ/KsyvJwffwfjhQJYoOziRNeXrTBDpgxGPixFpceVk0Ljy7Dh3a5CIxvphjTtHOOyFCpqGI8CrG626CZ15tzumVUfjTyEWcTbWU8bibcAxQgbyCWHz3Y1vc/PAW9OmSjrgYekGFuvH6mFX2krGnncAO1mpEby5ORfy4Cy48aQEuPnchuXQECjclU+vdmH7tQRh5WhHH9CV8t1enEBpaTb1BHL75vgx//3cr5BRwDcgN6/gp8tlOw1kjW1DhVoPvx69BePxmdGkdQrpX0NsuiE4bK+1Plhis71d9mSR9iRyONLxSm5FZ0gDYTGHUvbY9ltKXOPeeANgA1+wlBTg7EOU9atQoOxyROlm1LXUy+ysdUmDe2UeKyKoEOYW88cYb9bxupIhQQ1aP7AT2nnBL9cTSWGovjaZJAvPNN99sR3KU148agyaASHE2duxYc5u9l/nCaNkNsHe3V6+X0T7+ES3U0YhTG26dlBgDaeQLSyKxYHEo/bFrcM7JwQwRVIuszEJ+N+OAsR9wk2Nron9NTQGXtxmKtz7N4vpO6xgBcx5aZkVwrEpPNkRiyrRgXHr9VrqDHs3pn3WkSzF+nMlJEZyplJEdgpzVcRj7Yh0uGLmB6vpgLF3oxq33t6aiLIydyVoG+lekFIn1tI9X1GHe4mZ47a0gvPyGGwP6hyFv8xKCspwgy6KiKRY/TPoFcRxt9ejXy7aTr1u3gW1gNcHrtrmxE8AK9aNYXgbAkqKkF5Hvwfjx433UlcJT9S2mobazu+1FwBUDUFvTJinAhB0ymV9wwQV2GRQBtHnz5vsVwOad2h+yYDZAMEQzhRbhpKDQPGZVkBZmM0lElo3QjCXFKc0419yzq716TiNqydZokvJ+5JFHfMBWAxLwtZ7Uq6++am6z97pXjUONRd8hUJnvqXfjfv4j2kVGRrCxCoRU9nRoxZlMtcRcLLbWpiOXmvt7ruTazYMiaWfWPGsCkjO96mg+Cg0vo5iYgHc/ScX/JnCCx7DNGD5oOYFIk1riFvw6LRZ3/aMtlq2uQDjHtjU1bi7kdjQiyXje/HQtnvqrBwOO3oTN+XE46Zok/PPGLbj1unUICqMuxJ3OoQowb1Ey3ny/Gi++zvdSSXfln/pwhYr5+GWW12FGZY6KiuG4VxyaC7xWVqO0RE4t9ZNC58orUMMkeVrJK1CdriQp53pf2dRWq7MT95RUt7sA1jOqS5PURqQIc6bLL7/cjhnWo0cP25/Aeb+pe/+27Hy+IY4PWTA7P06glDgroAooJqnS5Kc8ffp0W3Gh1SacSdxSzxrl2Z6CSmK0OLY4nRqHSapMufGp4iSiqWwCvoIlOG2Q5n41BuWlxrMnYpx5fl/3oQxYIE28abxH9+nFiBip5CycM10Qip8nbcBR3cpw2w3p5Nq1SGm0iq8U55H2vpzmn+Z49e0kPPz4Vjz+UALOOjkMzZrk4vFnfsXdD/fjkKTEZ2uXw05mZjNMnrERKxdJylmNFp3Pwlv/rkCvbuu58mUWps7IYXjgSHLicl7fjHPO7k0TnRszZs7lutUbbVrpm1XXVVUKmPjbIZTAKxA7ATxv3jzbX9/p1ivRVvTPzc3dI7detRnVs2gmMCoP1bMzaTqj/Bg0i0+c3tk29YwkOXFu53nn8w19fEiD2RROYpDAI5e6q666yh57iHuK4CaJcAKUgK3wQU4bsu4RmJREWOUrkVj73U16XsoxAVvOA8708MMP22FjBGz1+CtWrLCVd/7ufXpGYppxdJEZZE/K4Hzn3hybsZ1xaND3pKZoZcoUeDhx4YcfanHsiFicfmwuTjgmj4EY5Gmm2UES4TiraVZrPPZCW8xdE4HLT7GwZu0mvP7mAiqhSmmf5syrkHBKAeW0EHShBMOlaRf/ig1r56Pf4FH23OZkunImpQzC3X+fwOJX4ZSTOOMoOoGa5nxfxFRxVtWlKaPzO88++2yb+3Xq1MnmwJKOBODXXnutnl++FJoGwE4R3JnXjo7VNgyAVS9iBNqc6aabbrIjiUgjLgDrPSYJwFJ6qZ1qTC5dzOOPP263G10T/fdnUplVHqcCTNxGllWLPRw7JsviB9n7A/1j3sse0aI3jl0mlUsbx7IWlVLWmjVrLFZ8vaIRUBYr2SKXtNgA6j2nZ/nBFivN4njbIve2/5t8d2dPCcFq0aKFxRCsv8mborjFeGQWlWYWFXgWtaXWdddd95v7zHtUBipO9rgM5vm92ev7GzVK+k2Z2rcOs84+6wzr6EGjrNDUgdbHYwdZZeu7WnWFaZanIMuySttY+cthvTvmRqvXoEv4fJDVtUtbq3nzLF9e7Kh8xypbu3YdLMbHso497nieb25fu/66K6xRI8+2TjmFPcK2+oyICPcdm3PaUwNt0WnDYidtsbO2OLyy2ElaHBPXu5/TCvmudnadOp/XMcXbevc6r1Mctp9RHejYeU3HtE1bt99+u93WaAGxCMp6bY0AsjjutujPYD344IMWdSu+PPR9lAjs+3Xf/k4GL8Ktyi4cHzRtNgtQL5mexnBmjVnlgy3uq97bpFtuucUOXm7WEXKOVyTWEvC2ffn777/HmDFjzGO+vXpjcVz1nuKWO+IK5maNe1gp5q/9nBRl4rbiEs6kOa0yR2jSuvLVdDmV4Q0q8cTB/ZOcGlQGfa8/R/C/tyH+qxfn59jSSmhoGMXQErRt05qOIJz87w7HylwXRp4YTfPSJirAFtKGHYKY+EqG9M3DuG/Ow/V3r0OPzqkoL9uK7yb8YBdJ9BGHMwpBI5p26dKRs7pkKqIPd6MMTJ82g8c7loxkAzZxtKSlFrcTbZ977jlbmWW+XTPjxO1kyvQfw/rXk3lGe2d974jWEs0VWlfacM3OkwTjTKobKc40xJPuRvZppxJMZdfMKWnSFUZIUmSAM2+TCJycmeNUu9dhpEyLhK7XE5Lg1g033GBzQyqnLAK5XmcoDq7enQ7y1jXXXGPno2ecm3pn2gjtHnlHPbW5V729NvNfe3EllYtjKItieb1rBLZF33GbY3MOtsW52hY7IYsNp959Jj9TBg4ldnjd3NeQ+/Dw7ZyJK0NYl1x8rtWl+zF8f29r+HEnWw/fO8z6ftxRVvmGZGvR1NbWoIHijm2t9m1TfGX0pwnB5uOWUVGxvM8O/em735SffgUWOzmLjj0WQWJR/2FzYH/phx22xfWi7Doyz5q9/7vNee1VH+wY7LKoTM5rOlae9913n8XO1qKCrF670R+1Hfpt29c5b7ne86ojlVOSATsyS2VUnpyuG+DMJISdnJyZIgweffRR2+iv2VAmqZcV55NyTNzaaTOWvVjLjah3FffUvSYpbzmOSBsul0/NflEv7Uwak8t2qN5fnNTpAOC8j43I/ss6951WefROPS/tuyQEkzQDR723yi2lnMZYKoNs2U5Fm7lf3El5y8yyvzm2vqUJJ21s3Jhrv751yzhqqMuQ2KgPiiq5dGpuJTomLaFNuhLVtU34XTX0tttEn3bv6oumzKKZuLOkJNWLMZOZ69pfeumlGDJkiD2/V04WMkGqPiSBGX9p3acxspImQUjp6Uwqr5Pu5prOS9rSJpqpDP73yXx1xhln2L7Yiv4hvwNn0nMqk/wMxGnl12+Sxsu6X5KHuLRTMlB5ZUrV3PsXXnghwJlJeN9Y3cmZaXy3ez31rqywej2kxr9UflhUTlhZWdvHcawAi4oLm2PTL9eXr96hpHEQAWVRcWYx3pjNXfWMc9O71LPTg8xiA6l3zf8+/3KJY3NO9f+3dyZgchVV36/uyWQmC2QjJCyBJIAEXgmLRPYdIgIuyKKgAgIKiCJ8gMoroAIii4K4guDysqisyiIICLIJCAiygxASQiAJZCPLrN19v/+vus9N9Z0lM0lmpnu49Ty37+271HLq/OucOnWqKpLl1ffVw/exBWj4JBLgfR9bhpNIq1FEmm7XbhpyflB/d5SXAGE8q+va8j5Mi5xpWMvnobZ2sD/vvMPm0fZTNi7lKxNNnTo1+uiUKcpLUaJTJ/QxoZEaznbzLwNmpJlHvg+shiuSU1AkpyDfvwvLgNaFtKOs4X2uLY/t3YfWpC9vsDbf8b6s7ZGMUj5dufwWGaD0Cx/QtxWAvd1D4C2Lg7LBW1pcIFJD3aaPTflJQ2D250qQzBVtADMwW4XaGfUmVIu5BkCaLVXGKHIoiNS/8dUnadEG2DzQKiteJUbtsvSSjAOw1TJHGMMsD8l3uJ98Zg0O8cIc4Tc0JNrvKHrxxRcjOTr4xkU+496AFL5n1zAt4A7Lbc9W5RzmWcNaPo8YzSzOMaMz0Si5G9t/gKMhvDZdC54DruOPP94DWEs9+W6GpFx0ySWXtAEq3RMADG0tbjuHebJ7nAEQxivST9LT3tMwVvSjH/0o0vrWkWbFlaBbPAFeSeAIXiCgTmsCTpw+5SZfqM4YKy1OGhnStTxwtjxWEpiXj/coh9UWRFCfZdQ6DBQWWEaF8UdUbVRsAmo076sOvYGCe2IOvysBHl9sQXLcccf5oSa+xYPogQce4DU/VdJf6Ac1GHUSVRxVHWMHgXgtWL54hyE0ghjdL+6GFxt5Rb3kIDAEgrHv8MMP98YYugQYW1D3bDw93HqF8XDSZSimPZXWR9rFnzDfTO0k79Bs4ECG9QpyBGHywHB1E4Z49RUVMxwCkt3AjwGznI6s/t5LC0cNXHMpVxgEFJ9v1Grcdy0YvSwvduY5dYQKT1eG7gvp0wUJA8YnuljkAYMWftsWoJPFhxGQEKZn9/AkYzO5MF/2rr3vP67gn6oFc1hJIdG5b4xPJSQrgv9WgVSygR2mwRLJgVUaLx8s0ozj/eMf//ALDpJOuNwvwKbBoC8FcEmbYMzDtaXPO/THCDAn1lmAPUPWd1Zy5CDgUkrDgp8vY6300VjQkH62LcgQ+gSTX9KDyTvq5/uIu/hDXNCCTQFotIh34cL5/rAoWNdKarfvfwJgGirySSPIaIPRgfdxtmHEoDMAh/TiG+oH+wMApsEkD+GIBu8cdthhbnf1wdm5cYK8vaClBdLnCOvannEO07P6MQs1ZbfnnDnC8oTxVNp1VYIZYwUGCQhPRTMUZISHwAZWA2pHRA8rm+95nzPxSq31B8yC8QZgszUJoLLFzkNgY9Qx5kNyGQMQnwVjHIBvxi++wSCDNAHYUkn9wTcnnXSSl9gYVzhYeBGDIFLPXBcBkQWGVUgPw1F3gQ3NTOuApgwRhUFdBb8WFvssAR4aJNJm3y9W6QgDAKaOMGKxTpsFKz//Q7rwn/ShAUYsGj7ywBEG5iIzhERexo8f7/Ngzw3A1J0d9qyzs+XDeIb/dg9tDscWnIgM7J3F1dfPqgrMRmQkgUknKgE1mcqk9YYR7L3uEDcENt+FwAaoMCjHF7/4RT8fmvFvDvPVBkBmfQUUgJRGBoa0RiXMlzE2ksckNuVC6iGVsHqz6qOt/Mi0TSYWsLAhB9Z7VELmbduih7gxWjCakD75aC9AO5gVCQyzmkZj77IOFuDhjEWXMkF3xs+Ty8gy0cAkcFcBDFjU9/VgoYELG0fLg4YVvccdtAfA5MHCygLYvg/PVjfQgkaFM42y8Rl1Q7BGOvy2Uq6rCsy0uBATpmGGCgwPUGwtJ5iD/mRY4StLaGup+T4ENuocw18cODygFiMtARVOAwSY0hgTYMMISEruIbEIxjwGau7REDG0ReAbVHEYi/LhRMFBQGLLUus3DZDnkZPRyTta0CUwYBtNeB/XU+hG+tAOANM94D/DMWGgi8HBUA7DaUhKGgn6k6wVHQYATJ+dtOgKWAjLZOW0Z9SRdU8AcFLiUXcs50P6BmDyaiGsi+5IYPu+ozNpoI1RT0maoDlRNxw4yUDDSgxVBWbrFyFtYGyYFDWPviQTHwAKLamNIdO6ro4QAjuUBjC6HBD8QR8XkDF2CqiuvvpqL5UBDAcBCY/UhRlgYs4hs4cggHFMFScdJDbAxjgWSmz819kJBAMaZ4DNNEC0BltJA/XcAnEkmZU+OsYj1k6DpqSHCo3Pe3sAJt/0gbsKYABgAMZ4lUwfoxVGLBoH8kBDzTcWQgCHdWHPV+VMg0BAqwo1E7QRGkwmedDoMNWRQFeGpYioq7Du/MM+/qkKMBvhqEgYDTDDdFhHOehLwfhIR0Btc1lh4tVN8FAaGLDJHw2Hhsf8AWPKO81LS/LEZBAcC0JVHPWSxglGBdhIhDCvIbBRk01iI7loQPgWiRluDI41HkAzuwcDFf+ZKEJfn6ViCWaJRmWHYZmJBC3JPxIWZ5bQYYJvsBtgSe4ugFkkgHjp/pi6SnwEpB10ohHB8SI5kaEnAVzMQfGXRpNA/dCYAF7oQp4wLlLfjD4Y0MNGphhD5fxWBZiNyTlTyQSTvgAKtZHhKA76tDaTCeYLQbG6yd4RsKlwhmw4MFwhLQGVNTYMO9EgcRAAJoxDWWAagGNl5nlYBsptM7lQDU1iI0mZuWWzt47RmmcAFpUZcPMfn2fSpAFEhSaffMdyOsxUCwNqrqnQSHkLYV7CPPIc4KKqokojgcM+PM8BC0NAGNHoQpAHk4w87y0AWxnIP90yGj00K2ZgYWuwQH0QjNe4tntcV1qoCjAb0agEqwgYxoL1Q5HcSAMOWlcssqi1BPvOvlnd546ATZ7Gy3DDwZzcY4891o89A2iGvOgmILls6AUrMWomjIbEhpFC0ITlQJqbxMbiyuQTszJjmDPjHEYkGjr619CDPbvYMIApe2FAAhMnjSANj4UwzTAvPCddAEw5KUPYV+c547+oqwAZjQIJHIbeAnCYppWHPGP3oDENGxXjp/A9+97u2f9KOi9HRCXlqgt5MaaCuAZs7llFcA+JTeB+b1ZCZ8BGpeWAyekesIIJko/hJoxX9M84CHQpaAQINExIOys398IyIc3lTcZtDzCT2EhHfIY5NAEkViV5j7gBIn1guiRdlcDki+8oJ5KefnwYkL677LKLV8+RwPith6EvABymD92gI2Cmu0MwvuGe8VMlS+GwPHZdtWC2AnA2sCaBTWXAcCHTh9/1xnUIbPJp3QQYBmMKB6owK5QyXotERGrTx6WvPENjzwTiAXycATZ9386AbRKbb1GzWf0Uqc33+++/v+/HA8quGrF4F5XU0scIFAb2ATMAo67SbQiDARiwcPR1MJ4gXyHf9HW+ViX9fgHm9ghABVUC04R5C5kmCWwkHQeqLpZThrwYrwXYzMumYTJgEyeOGwALyQi42wM26fGdGW/4zzfWl7XxZ+7xfRgHaTA8BoAJpBGmzz3cT+nOoELjCdbeTCTeqxQAk5dkqDQeSeavO//7LZi7Q4S+eLczYDOMw4GnExPnTz75ZL9eNOPZqMtIk3D6J4Y2JD3WcqzGSVAawxpg7T8gJoTqJH1qQEn+MI7h+RYGNAgMWFjBSZd8hqE9dTV8nl73HAVSMPccbbscc0fABnT06WwIDl9txpXN88ucSLDeW2DMFis1EhswEpLgtv8GPNJAKyDQ/6UfHwbSpGFhDJj4GS8Pg8VDfjkoTxp6nwIpmHuf5p2mmAS2AQUpitqraYP+QBVnUgPj688++6z3GcfJIwQiwCM++rthMImMBGY4CekL+MOABRz1GQCj0uNsEgbyRdzEhVZgUt/iDt9Nr3uHAimYe4fOK5WKAdsMeRaJAQkjE8Nw9LPx18YDDT9v9tDC4BUCm2+JjwMAE8JVXJDOjNETF6tRMjxmw3q8C1jNWGQAJl8m5S1u3k1D31AgBXPf0L3LqYZAxoKNlZpxYlRrgItURA3HgowHGpvQ41mFtGUcm4N50QS+ZxyZYTAC/uW4cgJgPJ5w4sDibWFFAE5KYcaZyR9xMOadht6lQArm3qV3t1IDTACGMy6Zl19+uff5TkaCJLYAkLGEM9uJw8ay6WcDWFTr3/3ud34smkYACRyq4d0FMEY3+tnEj186q1firGJgJj6kdhp6ngIpmHuexiuVgoEAhw7GnNlrmmBTJAGIuRnSlwb0SF42ludggsRpp53mpS0SFycVC6jRYegIwKYVhBKYdxmmwsmECR0PaDUWFqYPQ7J/HT5Lr3uOAimYe462Kx2zAZkI2GYWIDMxASsyKnZHSwUBcHyqASGby9PHZd4xfV+ubUiKeEMAcx91ne86AzCOIkhg+uNaqI9ofMClk0YGBxiMcGa0s+fpuXcokIK5d+jc5VRCIGOlxmqNSyTSEVXbDE2ceZfANYH/eJDhwIGay1Y6WKQxjvE9gA6lrAHY7ofPiAsJzJxxA7DNvCIt+sU0MICfITBUbMsHz9PQ+xRIwdz7NO9SivhaG3jwMWd9LSQg9wkG5OS1DTUxsZ+ACoyBy9wrQ8ARRwhggIm3GH1gGhIksOWBuOhb00ggefEiC1cU4TmNQxr6jgIp9fuO9p2mDKguvPBC705pixQYkDv70FRwJCrgwzim/ZM8mA3IgJhrDq5ZLABXTaQrs7huvvnmOAmzlgNgJHA4nGXxcaYhSEPfUiAFc9/Svyx1Axk3bTUO+smh62bZB538YeYVs5UYorK4kMLWJ+ZTGgnAixErCWCGrUyFbg/A5JWDYKD2f9KfPqNACuY+I33nCdvkCNRmk7adf1H+FCCawYvhIwOxneknY/XWwvv+Q1tzDAmMfzeGNgsG1hDA4TMDtRm+7H17Jz33DgVSMPcOnbudChPmCQAEX+vuAhpAGchs6mOYCZ6ZgwhTMPEWC/vABsgVAdjSwIPMZliF6aTXvUeBFMy9R+sVpmQA4kUDBmPJLA/UXTBjLLOdH2wSBcCzNOxMWvSvbVok97sKYPLIcBRSnjFnVvAkdKVv719Mf1YrBVIwr1ZyrnpkBjgAyLDUdddd5yc7YJzqisqNFMfRBEcRAGbL1ZIzVOwQxCZViRdDF1qA3eN9AzbXdt8ATFysKRYu1Ed+GedG0lsI07N76blnKFC1YO7vTIKajSsmYEYdZkIFa4LRDwZIBAOY0QIDF0DGaGZrhzP7aYJmPRHsPf8n+CGeMC67tjPS1xYcZBXLEMCHHnqo9+9mNld7CxQEyaSXPUyBqgKzMRc0MYbmuiMm5Vm1BcpCOTmzCB/rdrH0LdIOQ5at8xWWy+iCustkC/yvmUzBSiA4jBB4FjYE4fekZTS0uAAvIOY/TiOmhvOdARiLNwCmobHveW7557o/BKMJZQmvK61sVQFmGAUiInlgSoI5KKAacp8jZKhKI3R38mPlpd/LKiMs73PRRRf5KFjhg7Lih83wE3TBEo0Bivus6cU6zyxkcP7553ug0fDxrKNAfxw6okLb4nuo9ba4Ad+hQu++++5+LnVHACYd8t5ZWh3lodLuw2ccdEFsVIA8VnLZqgLM1hpCXLPAwnwE+ogE3uGeMVN/ADZlAqRMmkCNPfPMM8uGjCg3zBVqKdxjxwuWG0JCEwe06IweqOG8C4BDFZplaJkiyWyr8ePH+yWCwniIOwRwyPTko9oCZeGAppTFykM5LZgwsf+VdK4KMBvBmC9r4GUCAmon/sEsXI7F16Q1FQLRYTyrEIujWs7k3cCC5AVYqN34Z+Payb7NGKAoKxKVxfbxw2aBPXy5KbcxYQjAsPxGL3a2tGAApvEwANszzpYn4kzSl2fQHTBUsgQLyxMCOMw391k/nCE7HGss4K9OMNra/Uo4VxWYYRS8mejL2danqJ0s84rVlkXWbauVamGmzpjAAEO5AScSlIMtVKCDDT0BdiRrOPUQZrTvO0rDHFPYqI0+eSiBw2+6AmADtjUQfMO9Sg/tAfi1117zY+7sdmnDbYwuQC+jeSWWq6rADHPAJBhjGHphQzY8lcxbifWqMPgYsE1iVyLhu5MngAw4CTAfUxrDJX3CuML3wvt2HQKMHS7YZQOjGep8GEIAk2ao4fCMBoYAeA3A/DfXURqXagh0zehasGoLfMTkEturzPLPKi5mAIQOVnZ7XinnigSzMZwRzf4b0VC1qQAkEvNoCfgZ0+fjIGC4uOCCC/x2MDB+tUgKn/l2fkzTAKxWFqML/+2evddOFP6WfcN7NrPK3iUOk+jdATDdHZYxQqJhfWeCCCueECxflkYlnCkj5ePMLiKHHHJIm2zZtFMEBuUzull5+B7+JI5KCRUJZusX25KuSYJBWIgabpfKNEGkAeOsAJnN1S677DI/PNORFKuUSuhOPmCiZDBGS97v7L99s7IAhvb0J3FMoc/NQv0WWGeskgNlJgBG29GD7hplYnwe8NpMNd6zbY64JvC9CRpzu0Ww9HWoSDDb3kVIWVpICIbxixlADKNwAHgYkgOwY5gw44Qti8M83vaYv6+JXinpG1N3VYWGvgx72dK+4VxnykS/m/FtjJHVEmwRfxp8666Rd/gK+hj/mIsqvIbdgrF1Gi1Tv9vbiK+3aVAxYDaiMQcXryX6xPRfbCVJCIOBhueMrwJ4pLAxJN9TAbSYJhmsAnqbqNWSHvQihJIm2Qc2AOM4wiqfMG0Y0IZgbBpb6oNgUit8r1KvLa/GKzRs0MP4yrRC1iBnWJT/gN6mpWIYO+WUU/z+XdYwGF17u8wVA2ZrCTkzxMLKkeykgDRGFUIKmEoEkQA2qg3OEyaxjXjWMNj/9Nw+BWBkmDYJYNxG6f+iGQHgG264oSwChsJgXJxZMHiZ0YtRBkJfMXNZJrv5x/Js4OZzc47hOtziFq3wjDPO8EOFGA+hB0LGgsVl/3vrXDFgpsAhESAY3kgcjJ0edthhHrRM02MxOcZbLbCUDa0mwKav090ZRhZPNZyRDDActLJGi3uAkv+hyryi8oTvAkiz6KIN3XTTTWWfI4HoOzKLi3dD5xLSNQlW9lEV/TEQA2DKyX8kMIKCgPBgQ3a6buYyi4deJYWKArMRJlRzYBQkB77CHMzKwTcYNQdg/+lPfypTxbFus6E31tWwcbC4q/UMWDighYHYyhL+Ny+4EKj2XvKMwYeJE9ARCXzrrbeWvQJTo0KbBLZxaV4y2oZ1VfZxlf2Bt/A1xxHHAIzPAl2+HXfc0QMYWmBcDYOVH3oYTcLnvXldkWAOCWPEgigGbNQaDtRxgG0T61HF8Y6yvYlRffqawKujMpESgJPyA2g8k5COnPmP1LTGztQ9QM03yfLzPvHQv7322mvdN77xjbIswrCMImB3ALxIawsWV1gnPOM+9yyE13avks5WDvJkIye33367zyI2AGjCTpdIYGi7IgCH8fVlOSsSzCFBIJQRK2QiGBJmhdgcIbBpXY877jh3zz33VJUxJiw311ZeygmgsRlQJrySwm4G72L1x49633339TtZ2Ni6gZd3CAY07pukRSKhPmME4h595vaCfcuzsE6IK7xnAPE3K/AnLIdNJrn00ku9ZIaOXZHAVv5KKl7FgzkkVnvAtnshsOnX4OJJv84mZoTxVMO1MRyNFgzH9q2sg91RwFbAwXvMcGJFTkAKfZKAtjhs/B0bQ7gtrD1Pno2ByZvlD7WffibDh+ZFhu2ikgM0JVAejKxf//rXfdcMHgqDldN4zMofvlNJ11UF5pBwRmDutUd0Uzvtm0qvCMunlcfyy5I+xxxzjB+m4xndC6z4qNH0ZQmM69rSQgzZsaABx6OPPurVRZgXGlmc/iP9EAfBjD/+T+LHvjEa8ximn6CxVizaSHT63WFg8kslBysTDVEyr1ZO3rGjkssS5q1qwRwWIiR6sjLC96rtmj2TWT2T8XYcYRjzpZ8cWpKTZaLPxwgA48LYE5gsgG8x0jkpeYyp7Wxx2X+jJfdDANOI4PllAdUen3g0IoyPoceUxWXvVuLZykle7ajEfK4oT/0CzGEhw8qgkqqBmcL8h3kGxEhYrKkMk9Cn7aw8PMMwRr8XGwJ9bMaIUbnpxwLojr63+8bY5AmJjrME6jMADiVwCGB2kjSHibAs1XBt9LbyV0OeO8pjvwNzWNBqriCkMP1fAn1QgIx07EwlhjEBIKC1fisLGiA1GScl8E57we5DMwMwabYHYMb9AbD5zofxhfGE9yv1upp5JEnTfg3mZGGr4b8xF2B+QDtNACx2XyR0BmQrG0AmYDRjnJStV/EfBszEbWDjnfCadABnEsA0BEyVZHwfFdqMXHxvgXg4iN/yb8/Sc+9RIAVz79F6hSkZIHjRHPgZN8bI1N0AKDGWEVC9CUkw2xASQ3uMz1sIAYwEtplB9pxz2BCkIA4p03fXKZj7jvadpgwYCaY2d/pyOw9DsNmElBDMXDM5ggCQGcrjQAJ3FcDtJJve6kMKpGDuQ+J3lrRNWsDwxBzbZcuWdfZ6m2d4LZmPOk4QgJdgZ8C+8cYbO5wlpk6d6lVoG3cOIwsbBfs2fJ5eVw4FUjBXTl3EajCgseEdZi8B7O6CGdWYMWoCYCaEw1Oo2EwcaG/ucQpgT66q+2m7bEXVFaF/ZdiARH/X1srGw4qQ9BFur+TWD7b1r4866ijvY8y7xG3SFfU9BDLP7OAdO9pLI71XmRRIwVxh9QLICHgnHXjggf4aBw2meaI2MzxlQEueeUb/GPCbYwmunYwBA1SL20eqHwMv5zAue56eq4sCKZgrsL4AF4E+LRMrMFSxugoL8DE8FYIwvOYZ611jAWdIinHqPfbYw8dlgPV/Sj8pgENqVP912meuwDoEZAa+ffbZx7tz7rXXXr4PjGsmBjGASz+a9/iPCo5UNjfL3/72t37hfKQ1feWkVK7AYqdZWkUKpGBeRQL21OchoPfcc083Y8YMd80117izzjqr0ySZBcSEepZdIqRA7pRc/ephCuYKrs4Q0Iz94pp5xBFH+GWEsVSzUqb1kZnFxGR6JDf9bQJSO5XIFVzBqzlrKZhXM0FXd3QAOgysWspBMGeQjqzcyW/DeNLr/keBFMxVXKc2DFXFRUizvhopkFqzVyMx06hSCvQlBfqHZC7NFNJgKf6KfUnPNO2OKMBwW8SMLtVPaSy9o1fT+ytHgf4B5pA5CtqdMCOFIwX1ynFET3wFkH1Da2ts6X9BR1hvPZHuByzO6gWzMYjA2zpDVt3Zb7vczNdd4c3/uKFH/K8bsK6MRPZOj1WqGBJJU9Whh8tQqoP8ovmu5bWXXGHRAtfy5D1u4HZT3ZC9PtUlykVNDW7JdT91nF2NWNY0MRqD1hatlzvADfn0sW7A2PVdpPH3jMbWP4ihasEcqUKpNCp46bWXuKbvXuUy26uxHyYMH356z9VlWQNRhUAm/4RYc+nZMkRqbDMCYMu0/7pFH93VZXcVFh+Su+pNU4r56EJbEuW0f9g9P3X5d2e7zGB9xpZWHOLe6D0VRVtLD5r6uVJ8pfIV/32gfqvWAFbGgkNGuOzeAvLEj7rMiNqAUXugLg0EhZyLGuWB1VLZ25eWUcAaolIZyHtBZYglnetBIKjhze6sOtp4N5f5iHJVGgsvy18nf6LG2Vo/SS8wBXupqnjkui4z9iMuKwUsu856+qlaVu6k1N17VLWSuayYqF1adTZqbZTSW9yJsOz5avzT9PSjruWFJ11+1msu9/Lf3LCz/+wGbrKFElce6KtXaoBGYvjC4kWu4bH7XX7GS671sevcgO2PcMOOPsVlBmrfpLze6SkVlXZC6y1QR472zzSELtAro+mag4/7gxrOVpdRIxC1Nrvmh/6iMjwqBUP/cwsUXxci6uevVC2YNWGvTW+1TFqvzooziaY0G269wjWfe7XL7qc9h95Xf82YEmbqsQysemG8r7eiyb032y370UEuWqI/04XdrYprb5NCjxehXcDppk+4Y+Jl6urd0P0PI4ulkHf5t9SYPn2bpPMEaRYz7cEH+lzBoqSdejHg6FG5kUPcIF5ol1csmuBbu1V25nlH75hqrUSyo8YJyEpuhHaLGEJGSkxo57JIu/mno/S7GU37rxfzmRlQ62o22ttlx2uBvw30ppfEXSzDivLXGQ3DTJWS87egW0i7jtLQfewkBCS0ZpoUFSH/fhihf6Xzn87y2VH6ncdYEU+rQzJDYKt0qbP09aJcq8sOWdOrXZkBkpKq3wxqbnuItu8hea5F36q/W3rPRys1ztXo6ErIKyGE2RqSyoyCGR/ZeUVx0NfW7KaIoZlSyNRoo3jU3Dgye7L6znEPQPmMWtTpbFmss5JUEplsMfOdJr+6aEgiUrMztcXdFKMW6d4epFoQob6OzJQKDX2K+fI39F38jzg4lpOw9E0XTmE58jlX8DYPFmNQlNIA4vTD97oQbSW8UvlgLvX1nEDQ9J8nXNPDd6i/+oqLls5zNRM+4mo3mezy82Qc0co4UetiMUmCrKVKaX75Wdf81EMuP1PDI+++6QrLxNBZbY9aX+uy62/m6qbs7eqn7OKyQ2UOJ5TSzc19yzXc+xe9q+EO1Xhu2nMus4beyQvRQwe5ZXfe4GrGPu4blyIYxRXNja52863coI/uoUyJ4/RdfuF7rvGR+1xuxouuoPwX3p/vG5WMhlWyw9ZyA7ba0w3afi9XO36TYvqrykzB901P/9M1//thlx05xuVVnqhJliQBODNObdtr/3aL/3iFZ+RIwzxYnr0ELLS4IR/7rKsZPTamRbdpWCzJ8l+RxuVk11hXpzdeckvv+INreeJuV1g412taAzbdztXvsr+r+zAWMr0clKEYCRGsZLC4VBeFhqWu6d+iyePaWHD6MxrOksY1qN7VTNzG1e/8cVc3eYqEhBjJeG8lk+ztzyobzDiACERI4iXXX+EajviGy+wqEg0fobrWgvCvPuyar9flejpGfMRF77+hMceAhKpA376rApseu9c1HHO6t3q7wfre5cQuAqcMKO6Ve1zzry5zDfvu4oafebUbsN548ZGGvpwMRgvnu4bTTvKNhaPhXm8NMf5oMZrEWu26rvnm81y0UNEZJYX56Cnnhlx1YRHMpewUli5xSz55mMvupRuDlEm1OpmsdpnQh/m3FrmWW250jRpiGXruzQLRZ/RSe8xciqwrJ2NeUaDlvy+4ZV85w2V3VKzKZ2a0UCz6ZYZs4vJvii6P3i5JrUgZnlUZvebxrC6n7evBbDKy6fG/u4ajT+syDX02k9JTWkFmzOau+c5zXJO6ujQorm6ofmpd67/udI0//K4b8uNfuzUO+bIeriINfAb0E9NCCpx8ERZfeoprvf4Ol2FfgMFr6/lS1cNgl3vmTtf0jfNc/S/PcWuK19D8/NAaDXkVBHQaT24msVdUwDpcImLDP+5wDceKuF/cQcNP4si80LNgnipbr4wbJhV1vFpRuNEQVSqJMYP+1m78Py67kwrrhzb0/ZIlLlqgP0sXaJhjU1cz9WMu9/jDbvHl33dRs7aBwTmBoDxkJhWZLrOOzgPWLDKHB5sAP7zOMyTSxh+8A5MMlMpIKDFzzai13YCjJXGkYroGqepLGly0SBJSi91naoe6ml12165wA9zSHxzkmp79lyLRpzRmqyGg0io6DeFs4POrq2KskfqdA0bKiKTkwLfKkB2rxorGUWQuaho6l7oEtToOsbQAACYSSURBVBtt3g0aLjesFRMr/VInqqvMkPEus5HuQY9FArjGnWo2+ajL7radW/b1r7iGh+7yH2C4W10h9/YMt+iMPdRo3OFqDpiqRkQxz9ea4ovkjLJ4nsq9has5ek/X+NWzJTx+LT5Tgw8PIqErNAS4jQaIWNRzVNrORHalIqi99RPC91GgTynh4XJzZ7nGu652me3EW7V1rjDtAVe7y1GubpdPeCK3PP2ga336FjhfnCiJ16buizdqx23s6o/8gRswQRW2NshTwVRJzc88Iun6/6R6znQ1H9nTtfz5967lsydK1dvWlzw7dE1X//lz9f4AVWzGey8V5khs1Uq65+a72p1PkPRaz6vMnvmhWdMyVztRLQChREIah/q9j3RuvxPdgImbKzpEpNRvyneLHCKm3SeJua0q4inX9M97Xf2W2xUblECqFCPs4m9cdxk3YNwEN+hSaSWj1nOF995WGSSJNUQUNb3hasZNdbVbfVUNYp3vy/uhHxmXAFx2CBKTsAo0jPNRjMn3SQsaYho8yg3c/QhXu+nWxaGme/+goT5Zp0eINjuu5xqu+6Gr33p7l11DdI5pQD66yZMlVZm++dKbrnT5x2ap4f64K7x4l6ud+lU3SF2JrLpNLS8/4xr/+DUpXEtczcEbiSdOd83qJqHy20hAqQR9ejJcGk6FW185HseayC4x4Wsr+v3vf19YuHBhQQ/ioJUq4uteuyDNUroNj/0jmiMen3vkLtGcHV00/3tfifIL58VZKSxdFC34wYnRnF30zqGTo3cPUX3MnFZ83sW8L/nLNdGc3Uhjp2j2eI3a3HlTHH/yYuGl34rm7Kl3D9symru30nr9+eQr3f7f8ta06N1D14jmfnZyNGcfF8375mFRfsG7Pp5CLtft+Dr7oGXm69G7R+8QzT1ww2j2Fuoh/Oz7UZRr6eyTLj1rS8Mb/XeW/4Zn/hXNES7mfnFKNHsbtVnX/7os3ty82dF7X1Edf2p0NPdzH47m7OCihqceKYvDeKLQ0hQtvET1sKviO3h8NPegAVHzG68W321tXR5vUP9NLz4dzdlO7x+1u+ejBRedFhUalix/V1eNTzxYrNsvbB/NVhvz/vVX6m6J//P5snd7+08Sh+D06quvLgi/gDkCx1nt0XuUJrfPork56qijMnvuuWdG24AWtBKkR7xNcFfmeaV3QtwSF1xu1nQ/Joq6E81RP26fQ112+CgvRXxmEN91gyVJaMA7yGPyvlrrSEaqwhKpuQoYvjJrSedqltqtKAqNwXYwfKvDx801Lb0XDrrWGV9ggjcald7lfX/4J+3/4PgQyRCDKle7/kQ3cL9zXeFpGdeGTZT6P90VmkpqKnGtalAcWPAJPr8Wp7Rt8o27pH/GOyTXXv7tG/+mflZIw1L+TZDGxVCiMmBn6hnXK+aHvNWMGusGHXSyi16Tf2at6lPf5aa96N/JxN5dFpm/veKfIM8tLzzlImnUrlV1K4Vj0N4HuswgXfAOdapQt/UObuDHTnOFVx9X10tVM+15GUqX+GfYUPoiGE8bDsEl+ASnWnUmwx7bwu/b4JiO4XV64a9aKP1/tTHYV5955pkhWjwue/TRR0ennHJKQUu8ZomIIxlxTxWOdKi2SFu05OdMlzVJ180NLrupbDQjRpUnC5FLfct2q5rnpeGO3Dtvemf/3OxZrjD/ba8OZ9ZaX9+rQusmSE3XcIkMQFFjsQLDhDCWuUzMkcGjYqr+N6lSBm9xKUngWl593uXeelN+xrPUf58nrhrqsspD7q0ZLrMhZX5DgJNqGQxdJaLp/l/yVcqbL0dHMfj3eFgsU/waDF/6vvs0TMRFa0FPTo0YwfsLlMDE5JiMBgp8fQrPOIb44NNenofiza7/0nDn3p6p4UR9E0nFH7Gp6uE5V1iq4blmddqx7Gto0jfwi+fLRXRDAZ8RD9k1Sg2db+S6nuQqv9ke1l5++eXCZZddlrniiivUIjq3zTbbNL711lu/1ha+5+nvPMCMGWDRvHnzvqnjGu0G+D3thvAZre6Y4bjwwgsjrb0crbfeeh7UerfXQE2rCbF9XeZ0XlPGGcaECcYj/qH9KT6yX2+RLhkwlt19k1t22Wdd4TE9RSiIWbADReIXDEDZHcbKOCQrteexRHwlRvaJxteWSumc+CTx1LW+8Ypb/LNvutZ71F/F+g3V1XZEwrOTN2J2F8U+QbrlTGVwNJGJeTsNeh6+0lG+knG0l8/OvgVoSEY1mMvuvrnbNGwvOZ9vG08OGopMfX0RzPkWT+qC32+LQioWK2sQYemJntvDRGFL5WIyTvTeG87JdpmprVdj/Y5r+O4JLvqvj7nso8xuurfBR100400Xbb1Q2Fdeejl4YRbUiXb0LPzpT39yEq4exFtvvTVb9t6hPbvPUtb+U8peHWDGnsiZ9vL5adOmHaTzAdoC9Gzp6VO+9a1vZTgUWUEbbGeGDRsmIV2kaDJRfbd6AxXNQaDy85KY9r+D+iu+XPotvbPsvlvdki9+1mV2XstlP/M/sly+rDHXiQLvODGq1Pf333WFea8UJYKKFvBLWXT+j6Xf5knHX+Xfe8ct+tZmMnaJyNurw71kpphKSa+9mUAtVa95mSS1mA0137dVKyocz1eU0TYZLN5oN+rSzTZFUGNaTMktu++2btKwGKd930FuVAwlajTVWQZ2layYEY0Id/hZ+QPeL5Wh/EHxnx55SQcU5K/gaupddptNndsKfV8E9/ws9o/0bOnr0tje0ogDUQLkNkQpxtkDv4Ynw9eSJUsirZseHXzwwR7Em266KSq1lOdnkMSy+vqAWBDVXDMgJiCPOCQrPAXv0Cbbf9X2JSdp4fVTJd7HaV+i7K677urOO++8gnYKzLK1SU+p3jH5ZFnPDBqCZqSx3SGuIDoXW2vl0irPM0L7FYkKV1g0zzVhDZ+iOIarAhc86AafcKOrn7ytLLgasqkb5Fr/+7xbfPHnVXfLPJiKLEwaFgKWtBbTkrTM+j6Vp3mJOZZ/0/jkP13+EfHQp2RFfeMu9cu+rfm3X3Q1QxmzHqR0m9ySm652Tb//jobapCassH9WSpTuBQcecARoYfkr3un4l/fAipeQFh/flwqm58W5wQNWkobFpI08ZRnxN0vpAGBJf19XbF07X2+OEX8CapxzDEzxN6UYlb84bspg5YZ2nif0aYkeeHZlhq/rxVbUJLWodg039IQfu9rxG7v84veLIwthBtHm5GGYqR/kaoapy6PguwPhO6vx2jc0pFEqAzuXPPXUU4Vzzjkne/fdd/tiCoeztRrrpQL4JXoV8CJ8ORDGPhiY7b81Reo5uqbm5ubL/v3vf/9Jy7x+Z+211z7moYceGixAZ0866aRIazNHail6RvUuFQpGr1l3gp/2lpGRqzBDNJ4hvXgLAbHkDuh9i6lM8UZEBcMjcS2r1NoJoiDJmxm8jiu88E8NT33PDd33YCuvPw9YfyMBQgzUqpZa5Ak+L70X3GFIiTTkPRZh4ykZwGxMvPSBTvZN5Ief3ER9tmg6I1xu6MFHu9oNN1n+qq6ya49z7iVdTBylFzuQSDFYI9f80n9c48N3q5Ya3MBtdpKDyq6+YfDGnNhgVJZE8Q/dlIFDBVRpAdQ+7oxGbzV+dh1+mZe3XOF9eWl1h4YlrIbxFK9Fl7gR0R3qjHQVWl9/uYg/5R9/gAETNRtNwYOdMvny6xN8AAYP8/TP1KjeloltzcYAEEvlsXNm0GA5Ak10LW8psk3HuGjWPwXUelc7bmKZj5FPrL2fmO7tPVz5e0kQE5M2CixceeWV7uKLL1aBnZsyZUqT+sT/Jxyeq79vc08BfAJiQB0H/0H8r3hBNYirPeoH6TxXazSf9OSTT+4uY9hf1el2P/3pTzObbbZZ9he/+EUBfZ7PaFVMUlsmub9SgcosGUVqx3/I4awRLZNzxTZyTrrlIhmxilbONnFDdELISFQsqlVBjgkygBSWLPSGD/9eyXCGZdkDiEYhaNj9O/ZTiju7xsiiDoM/s6jU8trL9kZ8zi94L7aUewYEnL4tlQTlciEdZYVS+v5aPuP06byq528kfgKGan7habfo49u4ph+d4ZquO9e9v+u+bqncSn3wTO+rpDyCUv5pFDODVQat+JHdaFOXe/Y2P2LgXy6BAI+7/Lw53gBZjGQlaFieevGfrxf9cFaUYWiRdtR0/dc031mNXLPqShgdOGnL4itWr/aBAFszSpJWoxuufi0/2tHy4tP+qTUMhWWLXf79BaUvMm7gZopLaWZotNWeLb30S67xiQe8VuTrwTeg0hIkkZlZlpv79vL+sjUOlv5qOCdV6nfffbdw+eWXF7T2eRYg0y9WV/ce4W4vbYBwvJIEyICYlg98hlyuv8W22V+08wP7IXtqtedR9vXXX3/yxRdfPED/PyuRf4Y64Ft+/etfz+pwf/nLX/J77rlnVvv7Cs/FWrLMthNv126VKnCgGK523+NcyyVXuJrDD5CqfYd7/6LjNUR1hKsZIycI+TznZ74sF8GRwqNAiatlQPyaobIWj9rA5V59wmU339O13neZW6yhrXr1XfHDptVunSaRiHW1VpYx4W35UMjyrFp5ajac5I1WmQ3UeElNa/j9CX6OcM1aa0vaFQTixa75L6e4wcdc54bs/Uki81Ihwqlr8hi9K0b6zXmucJCcTcaOK0pTATn/jqS2+NjlFovhBLagDD4XBmZpAk0woRhywH4HiRkbXGHNu1zLo3e6/G77uZqRo30+MgMS7XQJPFntQ5Vda4zLaZgmO2miK7x8l1t85fmubvupRccRpdP6yrMu//KtbthZt3rHkZohQ4o0/O+TLrvZStKQ8iAa8jJkTpAUfvpht0zSEeNafr66QjeeqMZtbUncNeTQ8bSrO/xUR90TmIiSDAPGbegXK8gwjDVihGv47eEuv2CuG7D+BDWWC1zr47epTPtJC/qy/3TgZpNd3QknuuZLf+FqPqPB/Hefdou/tYdr2v90VzvpI0pD3QpJ94LU7uZbT3S1O57uhh1/tv92dS5FZHxkONEWQ9EDDzxQOPTQQ2sa1M0YP348W/C+IDX7QiV+LRmQEB0o7HEJiDsMKForCq0CMu/QKqCGXy+R/2dtOXradttt97V//etf63z605+u0Y6FkQxlebUoNSzKblKaDy3jXHc1eECJsbJrjnCDP/Ull/vnFS4vN7zs5lPkxfS6W3bWV7z6zQSLzMRBsoJ+WP2tZyVNULmK2geVkB02ytXtdqBrveUmVxhyv1+dovn/znZNl5+tIQrlRhimZJkR4wVsWTpV1PYsmCUsuLpNP+yWbaB35jzlMqPEbDXjXMN5YkR19+Igps1Nh/gCs0LdFlu7mk8oW6/f6zJrT5Jz/51u8ZfudJn1/WMvtTPSrr0V9c0nXKQ+nmkmbRpgMqIGIpqmJ8tkbc01+fF3D340iw6Cd0vUs+yQNdzArXZ2LWf9zBU20Xjq+B3kk3y1a7366mLTTnsPTSXco2aqW98MX8vV7foZ0fBmVxjcPRrGQlh1Es1WvGPVR11zshZGuMK1/PaKolVfdZCdsrkeqmF67WlX8+FN3dDPfVX/JYTMmk5GggaubtJkN+CwXV3uP/e67CbbqnVodo2XnOKcGik/SjBTVfOr7fnKkzCrRmLoF05Wo363yz+lbzbeSBrfeHl6Xawui94Zo+M9HZvp9ceUn41me3+DGmazlQSLnq50AMQEwwLjwzJk5bXZffaPf/wj0tZtv/32786cOfNXAvJF+gtHUdt1AnKnINY7PvhI7M8KzrA9kQPqZrUoD7/99ts3S91eU8NZk/7+97/XXnXVVXBTQePVkTYLV76Xq966HxeE6xUGKg4C6MxCbdlJe2nBPoFVs3xwjM+sK4k7TlJ4mKTxQh1L3lGfVOCVUKvf72RXo0aA72kUajfcyBVGjnK5f9+j0ThxFMDRpAbvooztCDrPXaSbM10kDNZ+Zn+5U350eRbJSyk/2TX14ejJruWRG1T586W7vKd8iPvX0XRM+VZnx4juyk523IfcoF33UxyarrHGcPkd7+Van7tXEuEN34Bkxq2pl/SiJKwfppLEdkuk2s3VbZVt0NSj1ZApLUmLWFPw+RCJBYzm+3+nRmC6qvwt5x5Xmb92ohu07U5KLusryed3eQl8/r2EET1qRmv21Eg55Nx+v8o+y+chO14ty5iB8t9WwzhCjckjTa7uyC+4AesUW5zaDSTFR60EDakD5Ts39x1NirlKDYbo/J4KKTGSmbC2XFgHi2YaUWDcf9kiV7ubVj459ecyTn2oHMhWlhJPeHvKBptLI7lKw07viA7vyq9cBrP111QZxNYDtf3tppPdoCm7Ki0RWY0CPgoDt5V2V5CdfMZd0rC0phjV8KF11ICp+7Gh6m+tDdUFYax5LVe/0/7S3vSCVPC4DiwfXTwDYg62CTIgv/HGG4Vf/epXhcMPP7xGhuaMDMrNw4cP/4PAfaQMXLcoapl8i3pM6bpLqQHOlQlIdA5rMXaT6v0dtTb7PPvssz6+3/zmN/kDDjggI8MZAPdBQ12+UPa/S+egZc6rL9P4xEOSev+VhVXNaJMQIH/tzLAxksAjVVkjNSXyw1rG53+8ylhMVFIao4j6zU3PPeVann9Kw0AC/hJ9jwSXJTgzSOr2mhq2Gj5MfbHR6l9t42rXU6V2Epqf13TMpx515MktkTiAyViLbORY+X6P1TS67aQmTireB4QKudkzXdOTD6uPKoeEhfpOPtzegDdQjLSG0hd4a0YMdwPGbyoNQIsfML+2xLw+ArtWvhsevc813fdnaRHNMoDt6obs82nfaKxwlk+JnoWl77tGLR/U8srzGpqbp0bp/SIthq/jstBRUzHrttrO1Ugqx3Eq3abnnuweDUt5xpOqWepzbuZrLr9IzhqL3lUdaBqo5odnSnQbOGkLV7+tpqFKe4iNXr7gHf+0Tn9VkzL+JuciNWpL1bgOUqM6bLSMW+O9RxfedcWGWKoGzRx1oS5V80vP+CM/d7bKr8ZFw4Oubg3V3zq+/gZK8g/8kBZwkBG2rA46zkqbJ0l+lyEr+tvf/paX5xbY8dvvalToAUniH+jv30sRICxRLQF0r4Y6gRjZ4kN9ff1RO+644wujR48WZ7tInfnorrvualVrEzt4q4ASEN30cy3o/cQ3hcYlUf79+RG+2VG+Hf/lwC+3zfN8a5RfslAG3dL3LY1qPLsYwnj5RH7C+cUL/FFoamg/Er5J5l9+wT7/ykfSRziOJJkWD4J7heaGYvntg0QadrvNOfEe6Rfz0gEtiSBJ4+7QMMhznJfWZp93aJekm/lzx++2d0GcQbzQohjXsrZvh++18XUvRDKWFXkh4avtIwq+bRtx+3fgb/jcAuPF9957b+u2227rcaH9syPh5GX5bBxbgo7bfffdAXid/e+rM2JHzVcc1pDafY4yO0d3fOaPOuqovFqfVvxKLSQLbPc7O1PJHVa0iFeAiDjaB4SM4+MZ3ycYOX7ON8TRWRr2sn+vg3SIxqcVOPyXvivkWjtOn3eI174lPx2FUj7jx5Spo3LFLyUufDrtNIK8ZvEn4yx9s1I05FvVjf+2g7L5uk02Golsl/+lvhRnO/Etr8d26BjmpTxC/69YB6INQqQbISmopKlG8tLKffnLX0bSeizstNNO702aNOmH+q9+YBzAT1F9i291/2KVIwiSlC7rnU6wgBMmaY/gM6VGHCQjGaqDO//883NyPslMmDCBd30QAXxfwvoTdr/TM6obQwmQhxJ4NVYXJXW202/5yI9JEkfpe1O/+LBLcZRS8PkgHiJS4Fs7infa/03mf2XTR2WmEBi+upPvMFfJvPh4VkRLpbnSNIReZNv/FK+NZqtUBuLV0Z244jzwrfLkean7tBTelXT59rkazi3ceOONhdNPP92r1BovbpEAu0XgPl8pPV+qAkCMOp0r/a+400ANZYXqwr477LDDA2qNIJc/rrvuuhbG1cJGr9uqd/hxep1SoI8okORbzW/Aj5phAM/rwgIq9cP6r/GMYijhA9Nr1YT6Qw45JJbAmqhxws477/yKcu8LudtuuxXuu+++1qVLl8bVAGGSxIkfphcpBSqIAkleZbz4wQcfbP34xz8eq9Ti99e1l/ZJ4nmPg+9973sYg8MuadWAmYyS+cFBjteePHnyRWqpZD4tglquoa2ygLfSv7AAodrrB9nz9JxSoK8okOwXw6vPP/987tRTT0Vd9oJK/L1AfH6p/q8b8D44AA9VH7B4hy3SNhpbu16uoTEBfvKTn7TIba3M4gDAU1D3Fdum6SYpEAocnmkucV4uzbFKveWWW+bl+ME48XaG2PXXXx++j0d87H5/OJcNZclT7ECpIv9cd911fYumAkY33XRTM/0OI2SyJbT76TmlQG9RIKkpLliwoPDnP/+5WT4Unm/lIBWJjx/XUNOhBtLSkK03/Nq9/njGZhhK6TrNvjp5l112eU33PXHkHprTDK0W+arG9ZXso8QP0ouUAj1EgSTPNTY2Ro888kiL/KhjjVJ8O11ekKeLd8PuJPwNn39gAkaBkAAbqDX7ify9F+q+B/UZZ5zRTH8EolpIVW+jRHruKQqgDYYqNf81pz939tlny/+2yJvqJr6v4aaf6/9EHRYAsR+KshsftPPA8ePHh+rIjhpYv3nzzTcvDaK6SFPDmuifhJUXEju8n16nFFgVCiSFxaxZswqacxCDWFokKvVtAumuBtRqHGqyvPfUuWwoS/3oz0mFeVyJeSktVSZ/6623Nqu/EtdVUg2KH6QXKQW6SYEkLy1atCj661//2ixtMR5qEj8+paGmLxgAqn2oycrRU+fkUNaashB+S6b+GUrQg/rII49sefTRR1uampri6qI1DVXx+EF6kVJgBRRIqtRaXSeSx2LLscceG0tj8d9bmtp7lnhQc/LigErdL4aa4hL10AX9jtBI9iGZ/H8lgi7RfQ/qc889t4l+TFhXSRUpfJZepxQIKZAEMc+0xlbuggsuYCag5zEJkgYB+Ur931yHBbqE/XKoyQrYU+c6VlkIIt9Dqs7t8ibzxNb9SMsBN9GvsYpqr5LsWXpOKQAFko3+O++8w+4QMYi10kekte7+NmTIkKnGe6WhptBN2R6l525QIDmUlZWf95H0XxSHB7VcQ1vp39DPsZCq3kaJ9GwUoCsGX1hgnybNL27WEtKx44eMW//R2lvHiLdCq/QHbqipG/hcqVcZygpV79EaGjhTQwSzdN+DWiuGNj3++ONlUy1bmXbXzhQ5q9D03P8pQP3DBxa41kJ5rVq/LpbGmms8W8Oi3xcvjQ24E37zftXBvfRyNVKA/kqo7myhoawrJa2ZeulBrX5P46uvvlo2lBVWplVqeu7/FEiq1FrPLv/jH/845hUtoNEi/vmdeGcr49F0qMko0XvnunBW1jrrrLOvVO+/KXkPaG2xk7/mmmsa1R+KOTapZsUP0ot+RwFAHKrUc+fOjbRwXpOGlpg77HlEKvXf9f8AY9nSUFPo82CP0nMvUIChgZD4dVoQ4cuaP83kb19hn/rUp5q1K0AzS7dYQEqnQ1lGjf51pl5DLYwptlpsEhfMWKXWyMjLGhk5QTwSeiDCR+lQk4jQ1wFjRah6r6cKO1dDCyye6kGtKWoN6ieVuYZS6Wl/un+AOdkv5j9L9nz7299myVrPAzJszVdD/0P930CHBfgmNHbZ/fTcxxQYWBpCsGxso/7Q/0kFj11DtU5xg/pN8VBWqnpXP5hRp0NN64033ij8/Oc/j/vFLDApPrhOC+nFUxNLC+iFw57GM+m5gijAUFYopZ38aT8pSX2/7vsWeosttmjR0i5NWroo5uQkQ8QP0ouKpUBSpdbUWabQNskyHQ81SRI/KOPoZxL8CX98oGY1JcpfdX8ZUghBPVRDWSdoQYRXdN+DWouQN9KfCqdapqp3xWI3zlhSpWZq4v3339+q9ahjaaw+8euqb5bs0cr4cYAf0qGmmBzVd0F/KHS/21AuehdMnDhRWysUQU2/Sv2rdCgrhkvlXiQbWy05lT/zzDPjfrGs00tUvz9S3W4UsCr1H/JA8Ci9rEYK0D+KrZVazmU7qWB/0D0vpXXO08+aPn163J9ODm9ULov3/5wl60JLTEXa4gVJHA81qT5v1JrtO+meBeo77RcbNfrZOdmfzsrifaD6WI+onB7UatWbbrjhhub58+fHCEEahAaW+EF60eMUSPaLFy5cGN1yyy0tMmDFQ01Sqf+lemTJnlCFRqWOG+9+xsdpcQIKUOlhiz2C/pUMJTN034NaUy0btNVmK1PiLCRVPLufnlc/BZL9YnZD0VJSOU1NjFVqeW/Nkgvmaaoz7dwXB+o1BHX8IL3o3xSgHxVW/Cayel+iBdpiQ8pZZ53V8Nxzz8Wqd1JSrH42TmNMakLa0rRwzjnnxCDWbKYW1dPPtB/4pIA9qce0XxwQ5IN4iepdxgSadrmzJDVLplp/ukX9sybtnRsjDYajH5eG1UeBZEOpLYOjX//6101qXOOFAuRHcLucP3ZPMCrSOB1qShDlg/yX/lUI6loB+rNiHG0IXQT1Xnvt1Uh/jalzFlD/UAnTsPIUgH7hpoKLFy+OtERU6/777x9LYy0b9azqgyV7wu4R9ZX2i0WENLRPAdS10L1vLTHRqVoQYY7ue0mtftuyhx9+OB9KZiR1GrpPgdAOgWTWklD5448/PgaxvPfeU7/426L9mKC6qJ+wjoJH6WVKgbYUoNWPVTetIDpJVm+WVrUF3nLf//73G1566aWYg5PDJ/GD9KINBZK0euWVV6If/OAHZUNNcvC5QtMRwyV72nSJ2lZbeielQPsUaMM8GgbZTe6gf9XrXkpriZkm9euaZ8+eHTNs0oATP0gv/BBfqMUwNVFLPzVvuOGGsdFRXZt7ROe9ElVS1rgmnqV/Uwp0mQL0y0K1biD9N3mRvaD7HtRTp05tUD8vx26AFtL+tFGC/dvLV/vAhfaOO+7IffKTn4xVamk/r4iuXxJNwxVloHvaLxYR0rB6KUB/OmasMWPGrC3r6plDhw5doPse1Fq6qOGxxx6LLWJJC+1y9v7gXCU1FU1FLWj3T0DsZ7Npz7HFUqm/J+m8TlBd0Bl6pyGlQI9RANU7lNJOQ1mbS/X+je57QOvcrP5f02uvvRYjNsnQ8YN+fJFsyKZNmxZdeOGFeG7FQ01Sqa/WMVn3wgB9oXMaUgr0CgXagFr9vL1lsPmHUvegHjduXIP6g61MzbPwQVC9k0NNuMZee+21rZqKGqvU6qI8LGm8b6KmUpU6QZD0b+9SIKkODhKoj9Z2n/GulhovXaalgPO2C0ey/2hA7w9nNBDKR6Dh0pJNeS3dtExV4hs4OYDMEIiP0/8hQTUlaRg8Si9TCvQ+BejfxaqhVMcxUr3P1T1j5NyJJ57YqP5ijNnk8Ez8oAovkmV55plnolNOOSUcampSd+QCNXTrBlUDvdJ+cUCQ9LJyKNCGOWUg20ITAv6gLFp/ukn9xpbp06fHkK3m/nSyX4zLq5ayZaWPeKhpk002uVGzmrZOVFNZ45d4lv5NKVAxFGijNk6ePHlfeZE9phx6UGsYpkH9yFy4C0eoosZIr9CLZFcBF1ctxZST9I37xfLeekrl/kSiVgAx9ElDSoGqogBMGzOuFkQYJPX7eA1lvaP7HtTqTzbcd999BdRUQlLSVSKWySv5tPw++OCDhYMPPjgGsRbOm6v9tU8SsIcGtYXWEtMiuJ9ephSoKgqUMbFUzvVk9WZpG1slo+Xkk09uev7552PsVqLqnWxocGX95je/yTBTPNQklfqn6lqES9lSUWXl50YaUgpUMwXaSCYZyD6i4atbVSjrTzdqKeDWcBeOSlC9kyr1nDlzop/97GetyncsjaV13CmVertEBQFiyp2GlAL9kgJtQK3pfQdqyOY5ldaDmvFYLV2UD11DAXVfhDBdXDA1BbQgi3QM4pEjR74klfrQRE0B4lQaJ4iS/u2/FCiTWlJNB0v1PqW+vt5cQ/PaUqVRS+XE47bJ4Z+eBHcyLU1NjL7whS/gveVnjdXW1r6vxfO+qcXl1wiqqE1DFTxLL1MK9GsKtGF+GY02kOr9S5XaVO9m9UtbtKtljN2e7E8nVWpcUr/zne8w1BQvoCeV+iqp1BMSNVPWOCWepX9TCnxgKNAG1JLSO8iL7F5RwEDd+Mtf/jIX7sIBqM3bKkb6KlyEKjUumFdccQVSOB4v1jYvD2jMfOdEraQgThAk/ZtSAAoAao44aDz6sOHDh8euoRraarztttsKoWuoDWutLI753hoFXDDlelrQVMRYEiv96Vpc/og4U8WLNnlNPE//phRIKSAKlAFFUnrNsWPHnq09p5fqGZI69/nPf775iSeeiPELIG3sN765ggveDxsC7eoRfelLX0KlxlIdaTy8SY4f52qb3OH6b6Esb3YzPacUSCnQOQXKgCNQb6SVTa4ZPHiwqd7N3/3ud1tD19BQynaEZaRwCOI333wzOu+88xjz9tK4rq4ukkp9PUslBdkry0twP71MKZBSoIsUMBBx9kFSeg8NZT2WzWYN1E2aapkPXUNDsIagDu/jgnnNNdewQECsUiveJ9VX36eUlJ0sD/Y/PacUSCmwChRoAyiN8R4jCTpLcXpQa6+l5nvuuScyQxYS2FRvztYvBtDaNTHaY489Ys8txTN3xIgRJxxyyCHhLKbUuLUKFZZ+mlJgRRQA1IDMBw0TjRw2bNiFWsKIvi6gbj3mmGNatTtiLJAN0Nx44YUXIi1tRJ/Y94sl5fMycF2i82gfYfEnBXFAjPQypUBPU6AM1DJWbS5JfYsMVqZ6t5x//vn5WbNmeVDjInrxxRcz1ORBL/BGUqlv11YvWwYZTUEcECO9TCnQ2xQoA3VNTc0n1Od9TocHtRaQb5VxqyBPLQ9iATiSFH+O94KMpiAOiJFephToawqEgKyRu+U3pILPV6ZMUkf6v0CW6lN1jzWoCWUNQfFW+ptSIKVApVAgNGCNVn/6N5LGzeoX/14ZHBtkMnwvuJ1eVisF/j8HW/0386qUNQAAAABJRU5ErkJggg==;rounded=1;" vertex="1" parent="1">
                    <mxGeometry x="406.54" y="392" width="89.4" height="103" as="geometry"/>
                </mxCell>
            </root>
        </mxGraphModel>
    </diagram>
</mxfile>